{
.appVersion = "983";
DisplayStrings = (
"/colon_f_l_a_g_two_colon.liga  Official site"
);
customParameters = (
{
name = fsType;
value = (
);
},
{
name = licenseURL;
value = "http://scripts.sil.org/OFL";
},
{
name = license;
value = "This Font Software is licensed under the SIL Open Font License, Version 1.1. This license is available with a FAQ at: http://scripts.sil.org/OFL";
},
{
name = trademark;
value = "18Franklin is based on Libre Franklin, which is a trademark of Impallari Type.";
},
{
name = description;
value = "Libre Franklin is a reinterpretation and expansion of the 1912 Morris Fuller Benton’s classic.";
},
{
name = vendorID;
value = IMPA;
},
{
name = note;
value = "Based on Libre Franklin";
},
{
name = vsuffix;
value = "-v.024";
}
);
date = "2017-01-06 04:52:40 +0000";
designer = "Pablo Impallari, Rodrigo Fuenzalida (Modified by Dan O. Williams)";
familyName = 18Franklin;
featurePrefixes = (
{
automatic = 1;
code = "languagesystem DFLT dflt;\012languagesystem latn dflt;\012languagesystem latn CAT;\012languagesystem latn ROM;\012languagesystem latn MOL;\012languagesystem latn KAZ;\012languagesystem latn TAT;\012languagesystem latn TRK;\012languagesystem latn CRT;\012languagesystem latn AZE;\012";
name = Languagesystems;
}
);
features = (
{
automatic = 1;
code = "feature ccmp;\012feature locl;\012feature subs;\012feature sinf;\012feature sups;\012feature numr;\012feature dnom;\012feature frac;\012feature ordn;\012feature lnum;\012feature pnum;\012feature tnum;\012feature onum;\012feature salt;\012feature ss01;\012";
name = aalt;
},
{
automatic = 1;

glyphs = (
{
glyphname = A;
lastChange = "2017-03-21 15:43:52 +0000";
layers = (
{
anchors = (
{
name = ogonek;
position = "{741, 9}";
},
{
name = top;
position = "{390, 742}";
}
);
background = {
anchors = (
{
name = ogonek;
position = "{741, 9}";
},
{
name = top;
position = "{390, 742}";
}
);
paths = (
{
closed = 1;
nodes = (
"190 0 LINE SMOOTH",
"204 0 OFFCURVE",
"211 7 OFFCURVE",
"214 15 CURVE SMOOTH",
"255 133 LINE SMOOTH",
"257 140 OFFCURVE",
"262 144 OFFCURVE",
"270 144 CURVE SMOOTH",
"482 144 LINE SMOOTH",
"492 144 OFFCURVE",
"494 139 OFFCURVE",
"497 132 CURVE SMOOTH",
"536 17 LINE SMOOTH",
"540 4 OFFCURVE",
"548 0 OFFCURVE",
"558 0 CURVE SMOOTH",
"754 0 LINE SMOOTH",
"769 0 OFFCURVE",
"773 20 OFFCURVE",
"768 34 CURVE SMOOTH",
"528 715 LINE SMOOTH",
"522 731 OFFCURVE",
"509 742 OFFCURVE",
"492 742 CURVE SMOOTH",
"295 742 LINE SMOOTH",
"277 742 OFFCURVE",
"271 735 OFFCURVE",
"265 719 CURVE SMOOTH",
"23 37 LINE SMOOTH",
"15 15 OFFCURVE",
"23 0 OFFCURVE",
"38 0 CURVE SMOOTH"
);
},
{
closed = 1;
nodes = (
"306 314 OFFCURVE",
"303 322 OFFCURVE",
"308 335 CURVE SMOOTH",
"369 505 LINE SMOOTH",
"371 512 OFFCURVE",
"378 512 OFFCURVE",
"381 505 CURVE SMOOTH",
"441 334 LINE SMOOTH",
"445 321 OFFCURVE",
"443 314 OFFCURVE",
"432 314 CURVE SMOOTH",
"318 314 LINE SMOOTH"
);
}
);
};
layerId = "258ED206-D907-4350-8EBA-CBDDA1C16BF7";
paths = (
{
closed = 1;
nodes = (
"209 0 LINE",
"259 144 LINE",
"493 144 LINE",
"542 0 LINE",
"739 0 LINE",
"477 742 LINE",
"273 742 LINE",
"10 0 LINE"
);
},
{
closed = 1;
nodes = (
"375 551 LINE",
"448 314 LINE",
"301 314 LINE"
);
}
);
width = 739;
},
{
anchors = (
{
name = ogonek;
position = "{619, 11}";
},
{
name = top;
position = "{330, 742}";
}
);
background = {
anchors = (
{
name = ogonek;
position = "{619, 11}";
},
{
name = top;
position = "{330, 742}";
}
);
paths = (
{
closed = 1;
nodes = (
"65 0 LINE SMOOTH",
"71 0 OFFCURVE",
"75 2 OFFCURVE",
"76 7 CURVE SMOOTH",
"159 231 LINE SMOOTH",
"161 236 OFFCURVE",
"163 238 OFFCURVE",
"169 238 CURVE SMOOTH",
"491 238 LINE SMOOTH",
"497 238 OFFCURVE",
"499 236 OFFCURVE",
"501 231 CURVE SMOOTH",
"582 8 LINE SMOOTH",
"584 2 OFFCURVE",
"588 0 OFFCURVE",
"595 0 CURVE SMOOTH",
"619 0 LINE SMOOTH",
"626 0 OFFCURVE",
"629 4 OFFCURVE",
"627 10 CURVE SMOOTH",
"365 732 LINE SMOOTH",
"363 739 OFFCURVE",
"357 742 OFFCURVE",
"347 742 CURVE SMOOTH",
"314 742 LINE SMOOTH",
"305 742 OFFCURVE",
"301 739 OFFCURVE",
"298 731 CURVE SMOOTH",
"33 9 LINE SMOOTH",
"31 3 OFFCURVE",
"34 0 OFFCURVE",
"40 0 CURVE SMOOTH"
);
},
{
closed = 1;
nodes = (
"177 278 OFFCURVE",
"175 279 OFFCURVE",
"178 286 CURVE SMOOTH",
"323 677 LINE SMOOTH",
"328 691 OFFCURVE",
"333 691 OFFCURVE",
"338 678 CURVE SMOOTH",
"481 288 LINE SMOOTH",
"483 282 OFFCURVE",
"482 278 OFFCURVE",
"474 278 CURVE SMOOTH",
"183 278 LINE SMOOTH"
);
}
);
};
guideLines = (
{
angle = 69.4967;
position = "{118, 119}";
},
{
angle = 110.0797;
position = "{542, 119}";
}
);
layerId = "91AB5BCA-6A50-42DA-B2F7-8181BF189245";
paths = (
{
closed = 1;
nodes = (
"73 0 LINE",
"161 234 LINE",
"500 234 LINE",
"585 0 LINE",
"629 0 LINE",
"359 742 LINE",
"302 742 LINE",
"30 0 LINE"
);
},
{
closed = 1;
nodes = (
"331 698 LINE",
"485 278 LINE",
"175 278 LINE"
);
}
);
width = 659;
}
);
leftKerningGroup = A;
rightKerningGroup = A;
unicode = 0041;
},
{
glyphname = Aringacute;
lastChange = "2016-11-02 00:47:50 +0000";
layers = (
{
background = {
paths = (
{
closed = 1;
nodes = (
"214 3 LINE",
"264 147 LINE",
"498 147 LINE",
"547 3 LINE",
"785 3 LINE",
"523 745 LINE",
"278 745 LINE",
"15 3 LINE"
);
},
{
closed = 1;
nodes = (
"380 524 LINE",
"453 317 LINE",
"306 317 LINE"
);
},
{
closed = 1;
nodes = (
"461 693 OFFCURVE",
"510 734 OFFCURVE",
"510 796 CURVE SMOOTH",
"510 856 OFFCURVE",
"461 899 OFFCURVE",
"400 899 CURVE SMOOTH",
"340 899 OFFCURVE",
"290 857 OFFCURVE",
"290 798 CURVE SMOOTH",
"290 735 OFFCURVE",
"339 693 OFFCURVE",
"400 693 CURVE SMOOTH"
);
},
{
closed = 1;
nodes = (
"373 746 OFFCURVE",
"350 769 OFFCURVE",
"350 795 CURVE SMOOTH",
"350 822 OFFCURVE",
"373 842 OFFCURVE",
"399 842 CURVE SMOOTH",
"426 842 OFFCURVE",
"447 822 OFFCURVE",
"447 795 CURVE SMOOTH",
"447 769 OFFCURVE",
"426 746 OFFCURVE",
"399 746 CURVE SMOOTH"
);
},
{
closed = 1;
nodes = (
"443 875 LINE",
"468 935 LINE SMOOTH",
"474 949 OFFCURVE",
"470 964 OFFCURVE",
"454 964 CURVE SMOOTH",
"409 964 LINE SMOOTH",
"390 964 OFFCURVE",
"377 958 OFFCURVE",
"371 933 CURVE SMOOTH",
"357 875 LINE"
);
}
);
};
layerId = "258ED206-D907-4350-8EBA-CBDDA1C16BF7";
paths = (
{
closed = 1;
nodes = (
"214 3 LINE",
"264 147 LINE",
"498 147 LINE",
"547 3 LINE",
"785 3 LINE",
"523 745 LINE",
"278 745 LINE",
"15 3 LINE"
);
},
{
closed = 1;
nodes = (
"380 524 LINE",
"453 317 LINE",
"306 317 LINE"
);
},
{
closed = 1;
nodes = (
"461 693 OFFCURVE",
"510 734 OFFCURVE",
"510 796 CURVE SMOOTH",
"510 856 OFFCURVE",
"461 899 OFFCURVE",
"400 899 CURVE SMOOTH",
"340 899 OFFCURVE",
"290 857 OFFCURVE",
"290 798 CURVE SMOOTH",
"290 735 OFFCURVE",
"339 693 OFFCURVE",
"400 693 CURVE SMOOTH"
);
},
{
closed = 1;
nodes = (
"373 746 OFFCURVE",
"350 769 OFFCURVE",
"350 795 CURVE SMOOTH",
"350 822 OFFCURVE",
"373 842 OFFCURVE",
"399 842 CURVE SMOOTH",
"426 842 OFFCURVE",
"447 822 OFFCURVE",
"447 795 CURVE SMOOTH",
"447 769 OFFCURVE",
"426 746 OFFCURVE",
"399 746 CURVE SMOOTH"
);
},
{
closed = 1;
nodes = (
"443 875 LINE",
"480 964 LINE",
"378 964 LINE",
"357 875 LINE"
);
}
);
width = 809;
},
{
background = {
paths = (
{
closed = 1;
nodes = (
"418 857 OFFCURVE",
"374 900 OFFCURVE",
"318 900 CURVE SMOOTH",
"263 900 OFFCURVE",
"218 857 OFFCURVE",
"218 804 CURVE SMOOTH",
"218 746 OFFCURVE",
"262 702 OFFCURVE",
"318 702 CURVE SMOOTH",
"374 702 OFFCURVE",
"418 745 OFFCURVE",
"418 802 CURVE SMOOTH"
);
},
{
closed = 1;
nodes = (
"375 770 OFFCURVE",
"350 742 OFFCURVE",
"317 742 CURVE SMOOTH",
"286 742 OFFCURVE",
"258 770 OFFCURVE",
"258 801 CURVE SMOOTH",
"258 836 OFFCURVE",
"286 860 OFFCURVE",
"317 860 CURVE SMOOTH",
"350 860 OFFCURVE",
"375 836 OFFCURVE",
"375 801 CURVE SMOOTH"
);
},
{
closed = 1;
nodes = (
"294 742 OFFCURVE",
"290 739 OFFCURVE",
"287 731 CURVE SMOOTH",
"40 9 LINE",
"38 4 OFFCURVE",
"41 0 OFFCURVE",
"47 0 CURVE SMOOTH",
"69 0 LINE SMOOTH",
"75 0 OFFCURVE",
"78 2 OFFCURVE",
"80 7 CURVE",
"157 231 LINE SMOOTH",
"159 236 OFFCURVE",
"161 238 OFFCURVE",
"167 238 CURVE SMOOTH",
"463 238 LINE SMOOTH",
"469 238 OFFCURVE",
"471 236 OFFCURVE",
"473 231 CURVE SMOOTH",
"549 8 LINE SMOOTH",
"551 2 OFFCURVE",
"554 0 OFFCURVE",
"561 0 CURVE SMOOTH",
"588 0 LINE SMOOTH",
"595 0 OFFCURVE",
"598 4 OFFCURVE",
"596 10 CURVE SMOOTH",
"353 732 LINE",
"351 739 OFFCURVE",
"345 742 OFFCURVE",
"335 742 CURVE SMOOTH",
"303 742 LINE SMOOTH"
);
},
{
closed = 1;
nodes = (
"457 282 OFFCURVE",
"456 278 OFFCURVE",
"448 278 CURVE SMOOTH",
"179 278 LINE SMOOTH",
"173 278 OFFCURVE",
"172 279 OFFCURVE",
"175 286 CURVE SMOOTH",
"308 677 LINE SMOOTH",
"313 691 OFFCURVE",
"319 691 OFFCURVE",
"323 678 CURVE SMOOTH",
"455 288 LINE SMOOTH"
);
},
{
closed = 1;
nodes = (
"328 964 OFFCURVE",
"323 960 OFFCURVE",
"321 951 CURVE SMOOTH",
"303 875 LINE",
"341 875 LINE",
"372 948 LINE SMOOTH",
"376 958 OFFCURVE",
"373 964 OFFCURVE",
"362 964 CURVE SMOOTH",
"339 964 LINE SMOOTH"
);
}
);
};
layerId = "91AB5BCA-6A50-42DA-B2F7-8181BF189245";
paths = (
{
closed = 1;
nodes = (
"78 0 LINE",
"159 238 LINE",
"471 238 LINE",
"552 0 LINE",
"599 0 LINE",
"350 742 LINE",
"291 742 LINE",
"37 0 LINE"
);
},
{
closed = 1;
nodes = (
"316 700 LINE",
"458 278 LINE",
"172 278 LINE"
);
},
{
closed = 1;
nodes = (
"374 702 OFFCURVE",
"418 745 OFFCURVE",
"418 802 CURVE SMOOTH",
"418 857 OFFCURVE",
"374 900 OFFCURVE",
"318 900 CURVE SMOOTH",
"263 900 OFFCURVE",
"218 857 OFFCURVE",
"218 804 CURVE SMOOTH",
"218 746 OFFCURVE",
"262 702 OFFCURVE",
"318 702 CURVE SMOOTH"
);
},
{
closed = 1;
nodes = (
"286 742 OFFCURVE",
"258 770 OFFCURVE",
"258 801 CURVE SMOOTH",
"258 836 OFFCURVE",
"286 860 OFFCURVE",
"317 860 CURVE SMOOTH",
"350 860 OFFCURVE",
"375 836 OFFCURVE",
"375 801 CURVE SMOOTH",
"375 770 OFFCURVE",
"350 742 OFFCURVE",
"317 742 CURVE SMOOTH"
);
},
{
closed = 1;
nodes = (
"341 875 LINE",
"379 964 LINE",
"324 964 LINE",
"303 875 LINE"
);
}
);
width = 637;
}
);
leftKerningGroup = A;
rightKerningGroup = A;
unicode = 01FA;
},
{
glyphname = AE;
lastChange = "2017-03-13 19:24:31 +0000";
layers = (
{
anchors = (
{
name = top;
position = "{717, 742}";
}
);
background = {
anchors = (
{
name = top;
position = "{717, 742}";
}
);
paths = (
{
closed = 1;
nodes = (
"743 164 LINE SMOOTH",
"734 164 OFFCURVE",
"731 167 OFFCURVE",
"731 178 CURVE SMOOTH",
"731 278 LINE SMOOTH",
"731 286 OFFCURVE",
"737 292 OFFCURVE",
"747 292 CURVE SMOOTH",
"932 292 LINE SMOOTH",
"945 292 OFFCURVE",
"950 300 OFFCURVE",
"950 309 CURVE SMOOTH",
"950 433 LINE SMOOTH",
"950 446 OFFCURVE",
"943 453 OFFCURVE",
"929 453 CURVE SMOOTH",
"749 453 LINE SMOOTH",
"739 453 OFFCURVE",
"731 460 OFFCURVE",
"731 474 CURVE SMOOTH",
"731 559 LINE SMOOTH",
"731 572 OFFCURVE",
"739 578 OFFCURVE",
"754 578 CURVE SMOOTH",
"1054 578 LINE SMOOTH",
"1072 578 OFFCURVE",
"1080 589 OFFCURVE",
"1080 605 CURVE SMOOTH",
"1081 721 LINE SMOOTH",
"1081 734 OFFCURVE",
"1075 742 OFFCURVE",
"1063 742 CURVE SMOOTH",
"414 742 LINE SMOOTH",
"397 742 OFFCURVE",
"389 735 OFFCURVE",
"381 719 CURVE SMOOTH",
"27 37 LINE SMOOTH",
"15 15 OFFCURVE",
"21 0 OFFCURVE",
"36 0 CURVE SMOOTH",
"188 0 LINE SMOOTH",
"202 0 OFFCURVE",
"210 7 OFFCURVE",
"214 15 CURVE SMOOTH",
"273 133 LINE",
"276 140 OFFCURVE",
"282 144 OFFCURVE",
"290 144 CURVE SMOOTH",
"491 144 LINE SMOOTH",
"501 144 OFFCURVE",
"504 139 OFFCURVE",
"504 130 CURVE SMOOTH",
"504 25 LINE SMOOTH",
"504 8 OFFCURVE",
"511 0 OFFCURVE",
"531 0 CURVE SMOOTH",
"1066 0 LINE SMOOTH",
"1083 0 OFFCURVE",
"1090 10 OFFCURVE",
"1090 22 CURVE SMOOTH",
"1090 145 LINE SMOOTH",
"1090 159 OFFCURVE",
"1082 164 OFFCURVE",
"1068 164 CURVE SMOOTH"
);
},
{
closed = 1;
nodes = (
"368 314 LINE SMOOTH",
"356 314 OFFCURVE",
"354 322 OFFCURVE",
"362 335 CURVE",
"464 537 LINE SMOOTH",
"480 567 OFFCURVE",
"504 565 OFFCURVE",
"504 535 CURVE SMOOTH",
"504 334 LINE SMOOTH",
"504 321 OFFCURVE",
"497 314 OFFCURVE",
"485 314 CURVE SMOOTH"
);
}
);
};
layerId = "258ED206-D907-4350-8EBA-CBDDA1C16BF7";
paths = (
{
closed = 1;
nodes = (
"731 164 LINE",
"731 292 LINE",
"950 292 LINE",
"950 453 LINE",
"731 453 LINE",
"731 578 LINE",
"1080 578 LINE",
"1081 742 LINE",
"393 742 LINE",
"8 0 LINE",
"207 0 LINE",
"278 144 LINE",
"504 144 LINE",
"504 0 LINE",
"1090 0 LINE",
"1090 164 LINE"
);
},
{
closed = 1;
nodes = (
"351 314 LINE",
"504 616 LINE",
"504 314 LINE"
);
}
);
width = 1120;
},
{
anchors = (
{
name = top;
position = "{713, 742}";
}
);
background = {
anchors = (
{
name = top;
position = "{713, 742}";
}
);
paths = (
{
closed = 1;
nodes = (
"582 40 LINE SMOOTH",
"575 40 OFFCURVE",
"573 41 OFFCURVE",
"573 49 CURVE SMOOTH",
"573 346 LINE SMOOTH",
"573 354 OFFCURVE",
"575 355 OFFCURVE",
"582 355 CURVE SMOOTH",
"850 355 LINE SMOOTH",
"856 355 OFFCURVE",
"858 356 OFFCURVE",
"858 362 CURVE SMOOTH",
"858 388 LINE SMOOTH",
"858 393 OFFCURVE",
"856 395 OFFCURVE",
"851 395 CURVE SMOOTH",
"582 395 LINE SMOOTH",
"575 395 OFFCURVE",
"573 396 OFFCURVE",
"573 402 CURVE SMOOTH",
"573 693 LINE SMOOTH",
"573 701 OFFCURVE",
"575 702 OFFCURVE",
"582 702 CURVE SMOOTH",
"920 702 LINE SMOOTH",
"926 702 OFFCURVE",
"928 703 OFFCURVE",
"928 709 CURVE SMOOTH",
"928 735 LINE SMOOTH",
"928 740 OFFCURVE",
"926 742 OFFCURVE",
"921 742 CURVE SMOOTH",
"516 742 LINE SMOOTH",
"507 742 OFFCURVE",
"502 739 OFFCURVE",
"498 731 CURVE",
"85 9 LINE SMOOTH",
"82 4 OFFCURVE",
"84 0 OFFCURVE",
"90 0 CURVE SMOOTH",
"115 0 LINE SMOOTH",
"121 0 OFFCURVE",
"124 2 OFFCURVE",
"127 7 CURVE SMOOTH",
"256 231 LINE SMOOTH",
"259 236 OFFCURVE",
"262 238 OFFCURVE",
"268 238 CURVE SMOOTH",
"522 238 LINE SMOOTH",
"525 238 OFFCURVE",
"527 236 OFFCURVE",
"527 233 CURVE SMOOTH",
"527 10 LINE SMOOTH",
"527 2 OFFCURVE",
"529 0 OFFCURVE",
"536 0 CURVE SMOOTH",
"936 0 LINE SMOOTH",
"941 0 OFFCURVE",
"943 2 OFFCURVE",
"943 7 CURVE SMOOTH",
"943 33 LINE SMOOTH",
"943 39 OFFCURVE",
"941 40 OFFCURVE",
"935 40 CURVE SMOOTH"
);
},
{
closed = 1;
nodes = (
"287 278 LINE SMOOTH",
"281 278 OFFCURVE",
"280 279 OFFCURVE",
"284 286 CURVE SMOOTH",
"512 677 LINE SMOOTH",
"520 691 OFFCURVE",
"526 691 OFFCURVE",
"527 678 CURVE",
"527 287 LINE SMOOTH",
"527 282 OFFCURVE",
"525 278 OFFCURVE",
"519 278 CURVE SMOOTH"
);
}
);
};
layerId = "91AB5BCA-6A50-42DA-B2F7-8181BF189245";
paths = (
{
closed = 1;
nodes = (
"573 40 LINE",
"573 355 LINE",
"858 355 LINE",
"858 395 LINE",
"573 395 LINE",
"573 702 LINE",
"928 702 LINE",
"928 742 LINE",
"504 742 LINE",
"80 0 LINE",
"123 0 LINE",
"260 238 LINE",
"527 238 LINE",
"527 0 LINE",
"943 0 LINE",
"943 40 LINE"
);
},
{
closed = 1;
nodes = (
"279 278 LINE",
"527 703 LINE",
"527 278 LINE"
);
}
);
width = 1008;
}
);
leftKerningGroup = AE;
leftMetricsKey = A;
rightMetricsKey = E;
unicode = 00C6;
},
{
glyphname = B;
lastChange = "2017-03-16 16:25:00 +0000";
layers = (
{
background = {
paths = (
{
closed = 1;
nodes = (
"392 0 LINE SMOOTH",
"608 0 OFFCURVE",
"711 65 OFFCURVE",
"711 202 CURVE SMOOTH",
"711 287 OFFCURVE",
"672 338 OFFCURVE",
"562 379 CURVE SMOOTH",
"559 380 OFFCURVE",
"559 385 OFFCURVE",
"562 386 CURVE SMOOTH",
"662 432 OFFCURVE",
"693 477 OFFCURVE",
"693 546 CURVE SMOOTH",
"693 675 OFFCURVE",
"583 742 OFFCURVE",
"376 742 CURVE SMOOTH",
"78 742 LINE SMOOTH",
"63 742 OFFCURVE",
"53 731 OFFCURVE",
"53 716 CURVE SMOOTH",
"53 22 LINE SMOOTH",
"53 10 OFFCURVE",
"62 0 OFFCURVE",
"76 0 CURVE SMOOTH"
);
},
{
closed = 1;
nodes = (
"284 150 OFFCURVE",
"280 157 OFFCURVE",
"280 172 CURVE SMOOTH",
"280 277 LINE SMOOTH",
"280 292 OFFCURVE",
"286 298 OFFCURVE",
"303 298 CURVE SMOOTH",
"392 298 LINE SMOOTH",
"442 298 OFFCURVE",
"475 268 OFFCURVE",
"475 227 CURVE SMOOTH",
"475 188 OFFCURVE",
"445 150 OFFCURVE",
"387 150 CURVE SMOOTH",
"297 150 LINE SMOOTH"
);
},
{
closed = 1;
nodes = (
"284 452 OFFCURVE",
"280 459 OFFCURVE",
"280 474 CURVE SMOOTH",
"280 572 LINE SMOOTH",
"280 587 OFFCURVE",
"286 592 OFFCURVE",
"303 592 CURVE SMOOTH",
"385 592 LINE SMOOTH",
"432 592 OFFCURVE",
"469 564 OFFCURVE",
"469 520 CURVE SMOOTH",
"469 481 OFFCURVE",
"439 452 OFFCURVE",
"392 452 CURVE SMOOTH",
"297 452 LINE SMOOTH"
);
}
);
};
layerId = "258ED206-D907-4350-8EBA-CBDDA1C16BF7";
paths = (
{
closed = 1;
nodes = (
"372 0 LINE SMOOTH",
"588 0 OFFCURVE",
"671 64 OFFCURVE",
"671 202 CURVE",
"671 257 OFFCURVE",
"664 343 OFFCURVE",
"533 382 CURVE",
"625 427 OFFCURVE",
"653 477 OFFCURVE",
"653 546 CURVE SMOOTH",
"653 672 OFFCURVE",
"563 742 OFFCURVE",
"356 742 CURVE SMOOTH",
"60 742 LINE",
"60 0 LINE"
);
},
{
closed = 1;
nodes = (
"260 298 LINE",
"385 298 LINE",
"435 298 OFFCURVE",
"468 268 OFFCURVE",
"468 227 CURVE SMOOTH",
"468 188 OFFCURVE",
"438 150 OFFCURVE",
"380 150 CURVE",
"260 150 LINE"
);
},
{
closed = 1;
nodes = (
"260 592 LINE",
"378 592 LINE SMOOTH",
"425 592 OFFCURVE",
"462 564 OFFCURVE",
"462 520 CURVE SMOOTH",
"462 481 OFFCURVE",
"432 452 OFFCURVE",
"385 452 CURVE SMOOTH",
"260 452 LINE"
);
}
);
width = 691;
},
{
background = {
paths = (
{
closed = 1;
nodes = (
"328 0 LINE SMOOTH",
"503 0 OFFCURVE",
"606 65 OFFCURVE",
"606 197 CURVE SMOOTH",
"606 297 OFFCURVE",
"547 356 OFFCURVE",
"457 373 CURVE SMOOTH",
"451 374 OFFCURVE",
"451 380 OFFCURVE",
"457 382 CURVE SMOOTH",
"545 409 OFFCURVE",
"588 467 OFFCURVE",
"588 551 CURVE SMOOTH",
"588 675 OFFCURVE",
"491 742 OFFCURVE",
"325 742 CURVE SMOOTH",
"120 742 LINE SMOOTH",
"113 742 OFFCURVE",
"111 740 OFFCURVE",
"111 732 CURVE SMOOTH",
"111 8 LINE SMOOTH",
"111 3 OFFCURVE",
"114 0 OFFCURVE",
"119 0 CURVE SMOOTH"
);
},
{
closed = 1;
nodes = (
"159 40 OFFCURVE",
"157 43 OFFCURVE",
"157 50 CURVE SMOOTH",
"157 346 LINE SMOOTH",
"157 353 OFFCURVE",
"160 355 OFFCURVE",
"168 355 CURVE SMOOTH",
"337 355 LINE SMOOTH",
"462 355 OFFCURVE",
"558 311 OFFCURVE",
"558 191 CURVE SMOOTH",
"558 82 OFFCURVE",
"481 40 OFFCURVE",
"323 40 CURVE SMOOTH",
"164 40 LINE SMOOTH"
);
},
{
closed = 1;
nodes = (
"159 395 OFFCURVE",
"157 398 OFFCURVE",
"157 405 CURVE SMOOTH",
"157 694 LINE SMOOTH",
"157 700 OFFCURVE",
"160 702 OFFCURVE",
"166 702 CURVE SMOOTH",
"321 702 LINE SMOOTH",
"456 702 OFFCURVE",
"540 654 OFFCURVE",
"540 546 CURVE SMOOTH",
"540 424 OFFCURVE",
"430 395 OFFCURVE",
"337 395 CURVE SMOOTH",
"164 395 LINE SMOOTH"
);
}
);
};
layerId = "91AB5BCA-6A50-42DA-B2F7-8181BF189245";
paths = (
{
closed = 1;
nodes = (
"326 0 LINE",
"501 0 OFFCURVE",
"604 66 OFFCURVE",
"604 198 CURVE",
"604 296 OFFCURVE",
"549 358 OFFCURVE",
"439 376 CURVE",
"546 407 OFFCURVE",
"586 466 OFFCURVE",
"586 550 CURVE SMOOTH",
"586 674 OFFCURVE",
"489 742 OFFCURVE",
"323 742 CURVE SMOOTH",
"115 742 LINE",
"115 0 LINE"
);
},
{
closed = 1;
nodes = (
"155 354 LINE",
"335 354 LINE SMOOTH",
"460 354 OFFCURVE",
"564 312 OFFCURVE",
"564 192 CURVE SMOOTH",
"564 83 OFFCURVE",
"479 42 OFFCURVE",
"321 42 CURVE",
"155 42 LINE"
);
},
{
closed = 1;
nodes = (
"155 700 LINE",
"319 700 LINE SMOOTH",
"454 700 OFFCURVE",
"546 653 OFFCURVE",
"546 545 CURVE SMOOTH",
"546 423 OFFCURVE",
"428 396 OFFCURVE",
"335 396 CURVE SMOOTH",
"155 396 LINE"
);
}
);
width = 669;
}
);
leftMetricsKey = N;
rightKerningGroup = B;
unicode = 0042;
},
{
glyphname = C;
lastChange = "2017-03-17 01:49:34 +0000";
layers = (
{
anchors = (
{
name = bottom;
position = "{375, 0}";
},
{
name = top;
position = "{375, 742}";
}
);
background = {
anchors = (
{
name = bottom;
position = "{373, 0}";
},
{
name = top;
position = "{375, 742}";
}
);
paths = (
{
closed = 1;
nodes = (
"158 752 OFFCURVE",
"20 606 OFFCURVE",
"20 381 CURVE SMOOTH",
"20 155 OFFCURVE",
"158 -10 OFFCURVE",
"373 -10 CURVE SMOOTH",
"604 -10 OFFCURVE",
"690 167 OFFCURVE",
"700 221 CURVE SMOOTH",
"704 247 OFFCURVE",
"693 252 OFFCURVE",
"686 254 CURVE SMOOTH",
"561 279 LINE SMOOTH",
"545 282 OFFCURVE",
"536 279 OFFCURVE",
"533 271 CURVE SMOOTH",
"498 183 OFFCURVE",
"447 154 OFFCURVE",
"380 154 CURVE SMOOTH",
"299 154 OFFCURVE",
"258 212 OFFCURVE",
"258 377 CURVE SMOOTH",
"258 540 OFFCURVE",
"306 598 OFFCURVE",
"381 598 CURVE SMOOTH",
"449 598 OFFCURVE",
"476 544 OFFCURVE",
"488 475 CURVE",
"678 487 LINE",
"693 489 OFFCURVE",
"697 494 OFFCURVE",
"691 522 CURVE SMOOTH",
"665 655 OFFCURVE",
"544 752 OFFCURVE",
"375 752 CURVE SMOOTH"
);
}
);
};
guideLines = (
{
angle = -183.559;
position = "{500, 331}";
}
);
layerId = "258ED206-D907-4350-8EBA-CBDDA1C16BF7";
paths = (
{
closed = 1;
nodes = (
"158 752 OFFCURVE",
"20 606 OFFCURVE",
"20 381 CURVE SMOOTH",
"20 155 OFFCURVE",
"160 -10 OFFCURVE",
"375 -10 CURVE SMOOTH",
"612 -10 OFFCURVE",
"676 110 OFFCURVE",
"697 264 CURVE",
"499 277 LINE",
"487 208 OFFCURVE",
"449 150 OFFCURVE",
"381 150 CURVE SMOOTH",
"306 150 OFFCURVE",
"238 212 OFFCURVE",
"238 377 CURVE SMOOTH",
"238 540 OFFCURVE",
"306 592 OFFCURVE",
"381 592 CURVE SMOOTH",
"449 592 OFFCURVE",
"487 544 OFFCURVE",
"499 475 CURVE",
"697 488 LINE",
"680 648 OFFCURVE",
"551 752 OFFCURVE",
"375 752 CURVE SMOOTH"
);
}
);
width = 707;
},
{
anchors = (
{
name = bottom;
position = "{357, 0}";
},
{
name = top;
position = "{357, 742}";
}
);
background = {
anchors = (
{
name = bottom;
position = "{363, 0}";
},
{
name = top;
position = "{357, 742}";
}
);
guideLines = (
{
angle = 90;
position = "{618, 369}";
}
);
paths = (
{
closed = 1;
nodes = (
"170 752 OFFCURVE",
"60 610 OFFCURVE",
"60 368 CURVE SMOOTH",
"60 127 OFFCURVE",
"170 -10 OFFCURVE",
"363 -10 CURVE SMOOTH",
"484 -10 OFFCURVE",
"584 61 OFFCURVE",
"619 171 CURVE SMOOTH",
"620 175 OFFCURVE",
"619 177 OFFCURVE",
"617 178 CURVE SMOOTH",
"583 188 LINE SMOOTH",
"580 189 OFFCURVE",
"578 188 OFFCURVE",
"577 186 CURVE SMOOTH",
"537 81 OFFCURVE",
"471 32 OFFCURVE",
"367 32 CURVE SMOOTH",
"194 32 OFFCURVE",
"108 153 OFFCURVE",
"108 368 CURVE SMOOTH",
"108 591 OFFCURVE",
"196 710 OFFCURVE",
"359 710 CURVE SMOOTH",
"460 710 OFFCURVE",
"540 647 OFFCURVE",
"563 552 CURVE SMOOTH",
"564 546 OFFCURVE",
"566 544 OFFCURVE",
"570 545 CURVE SMOOTH",
"606 549 LINE SMOOTH",
"611 549 OFFCURVE",
"612 551 OFFCURVE",
"611 556 CURVE SMOOTH",
"599 659 OFFCURVE",
"479 752 OFFCURVE",
"357 752 CURVE SMOOTH"
);
}
);
};
guideLines = (
{
angle = 90;
position = "{726, 369}";
}
);
layerId = "91AB5BCA-6A50-42DA-B2F7-8181BF189245";
paths = (
{
closed = 1;
nodes = (
"162 752 OFFCURVE",
"60 610 OFFCURVE",
"60 368 CURVE SMOOTH",
"60 127 OFFCURVE",
"164 -10 OFFCURVE",
"357 -10 CURVE SMOOTH",
"479 -10 OFFCURVE",
"597 71 OFFCURVE",
"608 177 CURVE",
"565 189 LINE",
"542 89 OFFCURVE",
"461 32 OFFCURVE",
"359 32 CURVE SMOOTH",
"186 32 OFFCURVE",
"105 153 OFFCURVE",
"105 368 CURVE SMOOTH",
"105 591 OFFCURVE",
"188 710 OFFCURVE",
"351 710 CURVE SMOOTH",
"478 710 OFFCURVE",
"549 639 OFFCURVE",
"568 543 CURVE",
"612 550 LINE",
"600 656 OFFCURVE",
"501 752 OFFCURVE",
"349 752 CURVE SMOOTH"
);
}
);
width = 672;
}
);
leftKerningGroup = O;
unicode = 0043;
},
{
glyphname = D;
lastChange = "2017-03-16 16:22:47 +0000";
layers = (
{
anchors = (
{
name = center;
position = "{371, 371}";
},
{
name = top;
position = "{371, 742}";
}
);
background = {
anchors = (
{
name = center;
position = "{371, 371}";
},
{
name = top;
position = "{371, 742}";
}
);
paths = (
{
closed = 1;
nodes = (
"33 0 LINE",
"325 0 LINE SMOOTH",
"588 0 OFFCURVE",
"721 157 OFFCURVE",
"721 373 CURVE SMOOTH",
"721 584 OFFCURVE",
"594 731 OFFCURVE",
"326 741 CURVE SMOOTH",
"262 743 OFFCURVE",
"54 742 OFFCURVE",
"33 742 CURVE"
);
},
{
closed = 1;
nodes = (
"280 585 LINE SMOOTH",
"432 585 OFFCURVE",
"483 513 OFFCURVE",
"483 376 CURVE SMOOTH",
"483 215 OFFCURVE",
"407 157 OFFCURVE",
"281 157 CURVE SMOOTH",
"260 157 LINE",
"260 585 LINE"
);
}
);
};
layerId = "258ED206-D907-4350-8EBA-CBDDA1C16BF7";
paths = (
{
closed = 1;
nodes = (
"60 0 LINE",
"325 0 LINE SMOOTH",
"588 0 OFFCURVE",
"710 157 OFFCURVE",
"710 373 CURVE SMOOTH",
"710 584 OFFCURVE",
"594 731 OFFCURVE",
"326 741 CURVE SMOOTH",
"262 743 OFFCURVE",
"81 742 OFFCURVE",
"60 742 CURVE"
);
},
{
closed = 1;
nodes = (
"331 585 LINE SMOOTH",
"433 585 OFFCURVE",
"502 513 OFFCURVE",
"502 376 CURVE SMOOTH",
"502 215 OFFCURVE",
"407 157 OFFCURVE",
"331 157 CURVE SMOOTH",
"260 157 LINE",
"260 585 LINE"
);
}
);
width = 730;
},
{
anchors = (
{
name = center;
position = "{341, 371}";
},
{
name = top;
position = "{335, 742}";
}
);
background = {
anchors = (
{
name = center;
position = "{341, 371}";
},
{
name = top;
position = "{335, 742}";
}
);
paths = (
{
closed = 1;
nodes = (
"113 0 LINE",
"224 0 LINE SMOOTH",
"496 0 OFFCURVE",
"625 115 OFFCURVE",
"625 376 CURVE SMOOTH",
"625 624 OFFCURVE",
"513 739 OFFCURVE",
"238 741 CURVE SMOOTH",
"176 741 OFFCURVE",
"115 742 OFFCURVE",
"113 742 CURVE"
);
},
{
closed = 1;
nodes = (
"161 701 OFFCURVE",
"209 701 OFFCURVE",
"227 701 CURVE SMOOTH",
"471 696 OFFCURVE",
"577 628 OFFCURVE",
"577 372 CURVE SMOOTH",
"577 130 OFFCURVE",
"478 40 OFFCURVE",
"220 40 CURVE SMOOTH",
"159 40 LINE",
"159 701 LINE"
);
}
);
};
layerId = "91AB5BCA-6A50-42DA-B2F7-8181BF189245";
paths = (
{
closed = 1;
nodes = (
"115 0 LINE",
"224 0 LINE SMOOTH",
"496 0 OFFCURVE",
"625 115 OFFCURVE",
"625 376 CURVE SMOOTH",
"625 624 OFFCURVE",
"513 739 OFFCURVE",
"238 741 CURVE SMOOTH",
"176 741 OFFCURVE",
"117 742 OFFCURVE",
"115 742 CURVE"
);
},
{
closed = 1;
nodes = (
"227 699 LINE SMOOTH",
"453 699 OFFCURVE",
"581 628 OFFCURVE",
"581 372 CURVE SMOOTH",
"581 130 OFFCURVE",
"460 42 OFFCURVE",
"220 42 CURVE SMOOTH",
"159 42 LINE",
"159 699 LINE"
);
}
);
width = 685;
}
);
leftMetricsKey = N;
rightKerningGroup = O;
unicode = 0044;
},
{
glyphname = Eth;
lastChange = "2017-03-13 19:24:25 +0000";
layers = (
{
background = {
components = (
{
name = D;
transform = "{1, 0, 0, 1, 20, 0}";
}
);
paths = (
{
closed = 1;
nodes = (
"432 426 OFFCURVE",
"425 434 OFFCURVE",
"414 434 CURVE SMOOTH",
"43 434 LINE SMOOTH",
"31 434 OFFCURVE",
"24 426 OFFCURVE",
"24 411 CURVE SMOOTH",
"24 318 LINE SMOOTH",
"24 301 OFFCURVE",
"30 293 OFFCURVE",
"50 293 CURVE SMOOTH",
"399 293 LINE SMOOTH",
"422 293 OFFCURVE",
"432 301 OFFCURVE",
"432 321 CURVE SMOOTH",
"432 414 LINE SMOOTH"
);
}
);
};
components = (
{
name = D;
transform = "{1, 0, 0, 1, 20, 0}";
}
);
layerId = "258ED206-D907-4350-8EBA-CBDDA1C16BF7";
paths = (
{
closed = 1;
nodes = (
"432 426 OFFCURVE",
"425 434 OFFCURVE",
"414 434 CURVE SMOOTH",
"43 434 LINE SMOOTH",
"31 434 OFFCURVE",
"24 426 OFFCURVE",
"24 411 CURVE SMOOTH",
"24 318 LINE SMOOTH",
"24 301 OFFCURVE",
"30 293 OFFCURVE",
"50 293 CURVE SMOOTH",
"399 293 LINE SMOOTH",
"422 293 OFFCURVE",
"432 301 OFFCURVE",
"432 321 CURVE SMOOTH",
"432 414 LINE SMOOTH"
);
}
);
width = 740;
},
{
background = {
components = (
{
name = D;
}
);
paths = (
{
closed = 1;
nodes = (
"342 392 OFFCURVE",
"340 395 OFFCURVE",
"335 395 CURVE SMOOTH",
"42 395 LINE SMOOTH",
"37 395 OFFCURVE",
"35 392 OFFCURVE",
"35 386 CURVE SMOOTH",
"35 363 LINE SMOOTH",
"35 356 OFFCURVE",
"37 353 OFFCURVE",
"45 353 CURVE SMOOTH",
"329 353 LINE SMOOTH",
"338 353 OFFCURVE",
"342 356 OFFCURVE",
"342 364 CURVE SMOOTH",
"342 387 LINE SMOOTH"
);
}
);
};
components = (
{
name = D;
transform = "{1, 0, 0, 1, -4, 0}";
}
);
layerId = "91AB5BCA-6A50-42DA-B2F7-8181BF189245";
paths = (
{
closed = 1;
nodes = (
"342 392 OFFCURVE",
"340 395 OFFCURVE",
"335 395 CURVE SMOOTH",
"42 395 LINE SMOOTH",
"37 395 OFFCURVE",
"35 392 OFFCURVE",
"35 386 CURVE SMOOTH",
"35 363 LINE SMOOTH",
"35 356 OFFCURVE",
"37 353 OFFCURVE",
"45 353 CURVE SMOOTH",
"329 353 LINE SMOOTH",
"338 353 OFFCURVE",
"342 356 OFFCURVE",
"342 364 CURVE SMOOTH",
"342 387 LINE SMOOTH"
);
}
);
width = 711;
}
);
rightKerningGroup = O;
rightMetricsKey = D;
unicode = 00D0;
},
{
glyphname = E;
lastChange = "2017-03-16 16:20:35 +0000";
layers = (
{
anchors = (
{
name = bottom;
position = "{333, 0}";
},
{
name = ogonek;
position = "{607, 10}";
},
{
name = top;
position = "{333, 742}";
}
);
background = {
anchors = (
{
name = bottom;
position = "{333, 0}";
},
{
name = ogonek;
position = "{607, 10}";
},
{
name = top;
position = "{333, 742}";
}
);
paths = (
{
closed = 1;
nodes = (
"49 25 LINE SMOOTH",
"49 8 OFFCURVE",
"56 0 OFFCURVE",
"76 0 CURVE SMOOTH",
"611 0 LINE SMOOTH",
"628 0 OFFCURVE",
"635 10 OFFCURVE",
"635 22 CURVE SMOOTH",
"635 145 LINE SMOOTH",
"635 159 OFFCURVE",
"627 164 OFFCURVE",
"613 164 CURVE SMOOTH",
"288 164 LINE SMOOTH",
"279 164 OFFCURVE",
"276 167 OFFCURVE",
"276 178 CURVE SMOOTH",
"276 278 LINE SMOOTH",
"276 286 OFFCURVE",
"282 292 OFFCURVE",
"292 292 CURVE SMOOTH",
"477 292 LINE SMOOTH",
"490 292 OFFCURVE",
"495 300 OFFCURVE",
"495 309 CURVE SMOOTH",
"495 433 LINE SMOOTH",
"495 446 OFFCURVE",
"488 453 OFFCURVE",
"474 453 CURVE SMOOTH",
"294 453 LINE SMOOTH",
"284 453 OFFCURVE",
"276 460 OFFCURVE",
"276 474 CURVE SMOOTH",
"276 559 LINE SMOOTH",
"276 572 OFFCURVE",
"284 578 OFFCURVE",
"299 578 CURVE SMOOTH",
"599 578 LINE SMOOTH",
"617 578 OFFCURVE",
"625 589 OFFCURVE",
"625 605 CURVE SMOOTH",
"626 721 LINE SMOOTH",
"626 734 OFFCURVE",
"620 742 OFFCURVE",
"608 742 CURVE SMOOTH",
"68 742 LINE SMOOTH",
"56 742 OFFCURVE",
"49 734 OFFCURVE",
"49 719 CURVE SMOOTH"
);
}
);
};
layerId = "258ED206-D907-4350-8EBA-CBDDA1C16BF7";
paths = (
{
closed = 1;
nodes = (
"608 0 LINE",
"608 166 LINE",
"260 166 LINE",
"260 292 LINE",
"550 292 LINE",
"550 453 LINE",
"261 453 LINE",
"261 576 LINE",
"606 576 LINE",
"607 742 LINE",
"60 742 LINE",
"60 0 LINE"
);
}
);
width = 648;
},
{
anchors = (
{
name = bottom;
position = "{361, 0}";
},
{
name = ogonek;
position = "{546, 10}";
},
{
name = top;
position = "{342, 742}";
}
);
background = {
anchors = (
{
name = bottom;
position = "{361, 0}";
},
{
name = ogonek;
position = "{546, 10}";
},
{
name = top;
position = "{342, 742}";
}
);
paths = (
{
closed = 1;
nodes = (
"111 10 LINE SMOOTH",
"111 2 OFFCURVE",
"113 0 OFFCURVE",
"120 0 CURVE SMOOTH",
"550 0 LINE SMOOTH",
"555 0 OFFCURVE",
"557 2 OFFCURVE",
"557 7 CURVE SMOOTH",
"557 33 LINE SMOOTH",
"557 39 OFFCURVE",
"555 40 OFFCURVE",
"549 40 CURVE SMOOTH",
"166 40 LINE SMOOTH",
"159 40 OFFCURVE",
"157 41 OFFCURVE",
"157 49 CURVE SMOOTH",
"157 346 LINE SMOOTH",
"157 354 OFFCURVE",
"159 355 OFFCURVE",
"166 355 CURVE SMOOTH",
"454 355 LINE SMOOTH",
"460 355 OFFCURVE",
"462 356 OFFCURVE",
"462 362 CURVE SMOOTH",
"462 388 LINE SMOOTH",
"462 393 OFFCURVE",
"460 395 OFFCURVE",
"455 395 CURVE SMOOTH",
"166 395 LINE SMOOTH",
"159 395 OFFCURVE",
"157 396 OFFCURVE",
"157 402 CURVE SMOOTH",
"157 693 LINE SMOOTH",
"157 701 OFFCURVE",
"159 702 OFFCURVE",
"166 702 CURVE SMOOTH",
"534 702 LINE SMOOTH",
"540 702 OFFCURVE",
"542 703 OFFCURVE",
"542 709 CURVE SMOOTH",
"542 735 LINE SMOOTH",
"542 740 OFFCURVE",
"540 742 OFFCURVE",
"535 742 CURVE SMOOTH",
"120 742 LINE SMOOTH",
"113 742 OFFCURVE",
"111 740 OFFCURVE",
"111 732 CURVE SMOOTH"
);
}
);
};
layerId = "91AB5BCA-6A50-42DA-B2F7-8181BF189245";
paths = (
{
closed = 1;
nodes = (
"555 0 LINE",
"555 42 LINE",
"155 43 LINE",
"155 354 LINE",
"514 354 LINE",
"514 396 LINE",
"155 396 LINE",
"155 700 LINE",
"540 700 LINE",
"540 742 LINE",
"115 742 LINE",
"115 0 LINE"
);
}
);
width = 625;
}
);
leftMetricsKey = N;
unicode = 0045;
},
{
glyphname = F;
lastChange = "2017-03-23 17:06:59 +0000";
layers = (
{
background = {
paths = (
{
closed = 1;
nodes = (
"33 25 LINE SMOOTH",
"33 8 OFFCURVE",
"39 0 OFFCURVE",
"60 0 CURVE",
"227 0 LINE SMOOTH",
"250 0 OFFCURVE",
"260 8 OFFCURVE",
"260 29 CURVE SMOOTH",
"260 271 LINE SMOOTH",
"260 280 OFFCURVE",
"266 286 OFFCURVE",
"276 286 CURVE SMOOTH",
"463 286 LINE SMOOTH",
"477 286 OFFCURVE",
"481 293 OFFCURVE",
"481 303 CURVE SMOOTH",
"481 425 LINE SMOOTH",
"481 438 OFFCURVE",
"475 445 OFFCURVE",
"461 445 CURVE SMOOTH",
"278 445 LINE SMOOTH",
"267 445 OFFCURVE",
"260 451 OFFCURVE",
"260 465 CURVE SMOOTH",
"260 559 LINE SMOOTH",
"260 572 OFFCURVE",
"267 578 OFFCURVE",
"283 578 CURVE SMOOTH",
"577 578 LINE SMOOTH",
"595 578 OFFCURVE",
"602 589 OFFCURVE",
"602 605 CURVE SMOOTH",
"603 721 LINE SMOOTH",
"603 734 OFFCURVE",
"597 742 OFFCURVE",
"585 742 CURVE SMOOTH",
"52 742 LINE SMOOTH",
"41 742 OFFCURVE",
"33 734 OFFCURVE",
"33 719 CURVE SMOOTH"
);
}
);
};
layerId = "258ED206-D907-4350-8EBA-CBDDA1C16BF7";
paths = (
{
closed = 1;
nodes = (
"60 0 LINE",
"260 0 LINE",
"260 286 LINE",
"546 286 LINE",
"546 445 LINE",
"260 445 LINE",
"260 578 LINE",
"602 578 LINE",
"603 742 LINE",
"60 742 LINE"
);
}
);
width = 623;
},
{
background = {
paths = (
{
closed = 1;
nodes = (
"115 10 LINE SMOOTH",
"115 2 OFFCURVE",
"117 0 OFFCURVE",
"124 0 CURVE SMOOTH",
"154 0 LINE SMOOTH",
"159 0 OFFCURVE",
"161 2 OFFCURVE",
"161 7 CURVE SMOOTH",
"161 333 LINE SMOOTH",
"161 341 OFFCURVE",
"163 342 OFFCURVE",
"170 342 CURVE SMOOTH",
"468 342 LINE SMOOTH",
"474 342 OFFCURVE",
"476 343 OFFCURVE",
"476 349 CURVE SMOOTH",
"476 375 LINE SMOOTH",
"476 380 OFFCURVE",
"474 382 OFFCURVE",
"469 382 CURVE SMOOTH",
"170 382 LINE SMOOTH",
"163 382 OFFCURVE",
"161 383 OFFCURVE",
"161 389 CURVE SMOOTH",
"161 693 LINE SMOOTH",
"161 701 OFFCURVE",
"163 702 OFFCURVE",
"170 702 CURVE SMOOTH",
"528 702 LINE SMOOTH",
"534 702 OFFCURVE",
"536 703 OFFCURVE",
"536 709 CURVE SMOOTH",
"536 735 LINE SMOOTH",
"536 740 OFFCURVE",
"534 742 OFFCURVE",
"529 742 CURVE SMOOTH",
"124 742 LINE SMOOTH",
"117 742 OFFCURVE",
"115 740 OFFCURVE",
"115 732 CURVE SMOOTH"
);
}
);
};
layerId = "91AB5BCA-6A50-42DA-B2F7-8181BF189245";
paths = (
{
closed = 1;
nodes = (
"115 0 LINE",
"159 0 LINE",
"159 355 LINE",
"508 355 LINE",
"508 397 LINE",
"159 397 LINE",
"159 700 LINE",
"534 700 LINE",
"534 742 LINE",
"115 742 LINE"
);
}
);
width = 584;
}
);
leftMetricsKey = N;
rightKerningGroup = F;
unicode = 0046;
},
{
glyphname = G;
lastChange = "2017-03-16 16:23:01 +0000";
layers = (
{
anchors = (
{
name = bottom;
position = "{372, 0}";
},
{
name = top;
position = "{372, 742}";
}
);
background = {
anchors = (
{
name = bottom;
position = "{372, 0}";
},
{
name = top;
position = "{372, 742}";
}
);
paths = (
{
closed = 1;
nodes = (
"488 -10 OFFCURVE",
"539 40 OFFCURVE",
"575 75 CURVE SMOOTH",
"580 81 OFFCURVE",
"583 81 OFFCURVE",
"586 77 CURVE SMOOTH",
"626 19 LINE SMOOTH",
"636 5 OFFCURVE",
"646 0 OFFCURVE",
"658 0 CURVE SMOOTH",
"696 0 LINE SMOOTH",
"706 0 OFFCURVE",
"713 8 OFFCURVE",
"713 17 CURVE SMOOTH",
"713 344 LINE SMOOTH",
"713 362 OFFCURVE",
"700 375 OFFCURVE",
"675 375 CURVE SMOOTH",
"395 377 LINE SMOOTH",
"380 377 OFFCURVE",
"374 370 OFFCURVE",
"374 360 CURVE SMOOTH",
"374 264 LINE SMOOTH",
"374 247 OFFCURVE",
"380 242 OFFCURVE",
"394 242 CURVE SMOOTH",
"488 242 LINE SMOOTH",
"498 242 OFFCURVE",
"501 236 OFFCURVE",
"497 225 CURVE",
"494 216 LINE",
"476 170 OFFCURVE",
"442 146 OFFCURVE",
"386 146 CURVE SMOOTH",
"310 146 OFFCURVE",
"258 193 OFFCURVE",
"258 374 CURVE SMOOTH",
"258 544 OFFCURVE",
"304 597 OFFCURVE",
"378 597 CURVE SMOOTH",
"450 597 OFFCURVE",
"485 547 OFFCURVE",
"495 492 CURVE SMOOTH",
"498 479 OFFCURVE",
"499 472 OFFCURVE",
"515 472 CURVE SMOOTH",
"686 498 LINE SMOOTH",
"702 500 OFFCURVE",
"706 505 OFFCURVE",
"700 533 CURVE SMOOTH",
"676 640 OFFCURVE",
"563 752 OFFCURVE",
"383 752 CURVE SMOOTH",
"169 752 OFFCURVE",
"20 599 OFFCURVE",
"20 368 CURVE SMOOTH",
"20 145 OFFCURVE",
"159 -10 OFFCURVE",
"370 -10 CURVE SMOOTH"
);
}
);
};
layerId = "258ED206-D907-4350-8EBA-CBDDA1C16BF7";
paths = (
{
closed = 1;
nodes = (
"492 -10 OFFCURVE",
"545 44 OFFCURVE",
"582 82 CURVE",
"582 0 LINE",
"713 0 LINE",
"713 392 LINE",
"374 394 LINE",
"374 259 LINE",
"503 259 LINE",
"494 233 LINE",
"476 187 OFFCURVE",
"442 163 OFFCURVE",
"386 163 CURVE SMOOTH",
"322 163 OFFCURVE",
"237 193 OFFCURVE",
"237 374 CURVE SMOOTH",
"237 534 OFFCURVE",
"304 587 OFFCURVE",
"378 587 CURVE SMOOTH",
"447 587 OFFCURVE",
"479 541 OFFCURVE",
"499 470 CURVE",
"707 501 LINE",
"683 624 OFFCURVE",
"582 752 OFFCURVE",
"383 752 CURVE SMOOTH",
"169 752 OFFCURVE",
"20 599 OFFCURVE",
"20 368 CURVE SMOOTH",
"20 145 OFFCURVE",
"159 -10 OFFCURVE",
"370 -10 CURVE SMOOTH"
);
}
);
width = 753;
},
{
anchors = (
{
name = bottom;
position = "{361, 0}";
},
{
name = top;
position = "{356, 742}";
}
);
background = {
anchors = (
{
name = bottom;
position = "{361, 0}";
},
{
name = top;
position = "{356, 742}";
}
);
paths = (
{
closed = 1;
nodes = (
"466 -10 OFFCURVE",
"539 45 OFFCURVE",
"578 115 CURVE SMOOTH",
"582 122 OFFCURVE",
"586 121 OFFCURVE",
"586 115 CURVE SMOOTH",
"586 9 LINE SMOOTH",
"586 0 OFFCURVE",
"591 0 OFFCURVE",
"599 0 CURVE SMOOTH",
"616 0 LINE SMOOTH",
"623 0 OFFCURVE",
"626 2 OFFCURVE",
"626 11 CURVE SMOOTH",
"626 371 LINE SMOOTH",
"626 375 OFFCURVE",
"624 377 OFFCURVE",
"620 377 CURVE SMOOTH",
"384 377 LINE SMOOTH",
"381 377 OFFCURVE",
"379 375 OFFCURVE",
"379 371 CURVE SMOOTH",
"379 348 LINE SMOOTH",
"379 344 OFFCURVE",
"381 342 OFFCURVE",
"386 342 CURVE SMOOTH",
"575 342 LINE SMOOTH",
"581 342 OFFCURVE",
"586 341 OFFCURVE",
"586 334 CURVE SMOOTH",
"586 255 LINE SMOOTH",
"586 161 OFFCURVE",
"514 32 OFFCURVE",
"356 32 CURVE SMOOTH",
"193 32 OFFCURVE",
"108 153 OFFCURVE",
"108 374 CURVE SMOOTH",
"108 584 OFFCURVE",
"195 710 OFFCURVE",
"356 710 CURVE SMOOTH",
"462 710 OFFCURVE",
"547 640 OFFCURVE",
"563 551 CURVE SMOOTH",
"564 546 OFFCURVE",
"567 544 OFFCURVE",
"570 545 CURVE SMOOTH",
"605 551 LINE SMOOTH",
"610 552 OFFCURVE",
"610 555 OFFCURVE",
"610 559 CURVE SMOOTH",
"598 663 OFFCURVE",
"479 752 OFFCURVE",
"356 752 CURVE SMOOTH",
"175 752 OFFCURVE",
"60 614 OFFCURVE",
"60 368 CURVE SMOOTH",
"60 129 OFFCURVE",
"170 -10 OFFCURVE",
"355 -10 CURVE SMOOTH"
);
}
);
};
layerId = "91AB5BCA-6A50-42DA-B2F7-8181BF189245";
paths = (
{
closed = 1;
nodes = (
"470 -10 OFFCURVE",
"546 51 OFFCURVE",
"586 129 CURVE",
"586 0 LINE",
"626 0 LINE",
"626 377 LINE",
"379 377 LINE",
"379 342 LINE",
"586 342 LINE",
"586 255 LINE SMOOTH",
"586 161 OFFCURVE",
"514 30 OFFCURVE",
"356 30 CURVE SMOOTH",
"193 30 OFFCURVE",
"102 153 OFFCURVE",
"102 374 CURVE SMOOTH",
"102 584 OFFCURVE",
"195 710 OFFCURVE",
"356 710 CURVE SMOOTH",
"463 710 OFFCURVE",
"548 637 OFFCURVE",
"564 544 CURVE",
"611 552 LINE",
"599 660 OFFCURVE",
"479 752 OFFCURVE",
"356 752 CURVE SMOOTH",
"175 752 OFFCURVE",
"60 614 OFFCURVE",
"60 368 CURVE SMOOTH",
"60 129 OFFCURVE",
"170 -10 OFFCURVE",
"355 -10 CURVE SMOOTH"
);
}
);
width = 706;
}
);
leftKerningGroup = O;
rightKerningGroup = G;
unicode = 0047;
},
{
glyphname = H;
lastChange = "2017-03-16 16:20:48 +0000";
layers = (
{
anchors = (
{
name = bottom;
position = "{367, 0}";
},
{
name = top;
position = "{369, 742}";
}
);
background = {
anchors = (
{
name = bottom;
position = "{367, 0}";
},
{
name = top;
position = "{369, 742}";
}
);
paths = (
{
closed = 1;
nodes = (
"466 297 OFFCURVE",
"472 290 OFFCURVE",
"472 282 CURVE SMOOTH",
"472 29 LINE SMOOTH",
"472 8 OFFCURVE",
"482 0 OFFCURVE",
"505 0 CURVE SMOOTH",
"672 0 LINE SMOOTH",
"693 0 OFFCURVE",
"699 8 OFFCURVE",
"699 25 CURVE SMOOTH",
"699 719 LINE SMOOTH",
"699 734 OFFCURVE",
"691 742 OFFCURVE",
"680 742 CURVE SMOOTH",
"490 742 LINE SMOOTH",
"479 742 OFFCURVE",
"472 734 OFFCURVE",
"472 721 CURVE SMOOTH",
"472 489 LINE SMOOTH",
"472 476 OFFCURVE",
"465 469 OFFCURVE",
"454 469 CURVE SMOOTH",
"286 469 LINE SMOOTH",
"275 469 OFFCURVE",
"268 476 OFFCURVE",
"268 489 CURVE SMOOTH",
"268 721 LINE SMOOTH",
"268 734 OFFCURVE",
"261 742 OFFCURVE",
"250 742 CURVE SMOOTH",
"60 742 LINE SMOOTH",
"49 742 OFFCURVE",
"41 734 OFFCURVE",
"41 719 CURVE SMOOTH",
"41 25 LINE SMOOTH",
"41 8 OFFCURVE",
"47 0 OFFCURVE",
"68 0 CURVE SMOOTH",
"235 0 LINE SMOOTH",
"258 0 OFFCURVE",
"268 8 OFFCURVE",
"268 29 CURVE SMOOTH",
"268 282 LINE SMOOTH",
"268 290 OFFCURVE",
"274 297 OFFCURVE",
"284 297 CURVE SMOOTH",
"456 297 LINE SMOOTH"
);
}
);
};
layerId = "258ED206-D907-4350-8EBA-CBDDA1C16BF7";
paths = (
{
closed = 1;
nodes = (
"484 0 LINE",
"684 0 LINE",
"684 742 LINE",
"484 742 LINE",
"484 461 LINE",
"260 461 LINE",
"260 742 LINE",
"60 742 LINE",
"60 0 LINE",
"260 0 LINE",
"260 297 LINE",
"484 297 LINE"
);
}
);
width = 744;
},
{
anchors = (
{
name = bottom;
position = "{360, 0}";
},
{
name = top;
position = "{360, 742}";
}
);
background = {
anchors = (
{
name = bottom;
position = "{360, 0}";
},
{
name = top;
position = "{360, 742}";
}
);
paths = (
{
closed = 1;
nodes = (
"560 366 OFFCURVE",
"562 364 OFFCURVE",
"562 359 CURVE SMOOTH",
"562 9 LINE SMOOTH",
"562 2 OFFCURVE",
"565 0 OFFCURVE",
"572 0 CURVE SMOOTH",
"599 0 LINE SMOOTH",
"605 0 OFFCURVE",
"608 3 OFFCURVE",
"608 10 CURVE SMOOTH",
"608 732 LINE SMOOTH",
"608 740 OFFCURVE",
"606 742 OFFCURVE",
"599 742 CURVE SMOOTH",
"570 742 LINE SMOOTH",
"564 742 OFFCURVE",
"562 739 OFFCURVE",
"562 733 CURVE SMOOTH",
"562 414 LINE SMOOTH",
"562 408 OFFCURVE",
"560 406 OFFCURVE",
"554 406 CURVE SMOOTH",
"166 406 LINE SMOOTH",
"159 406 OFFCURVE",
"157 407 OFFCURVE",
"157 415 CURVE SMOOTH",
"157 732 LINE SMOOTH",
"157 740 OFFCURVE",
"155 742 OFFCURVE",
"148 742 CURVE SMOOTH",
"120 742 LINE SMOOTH",
"113 742 OFFCURVE",
"111 740 OFFCURVE",
"111 732 CURVE SMOOTH",
"111 10 LINE SMOOTH",
"111 3 OFFCURVE",
"113 0 OFFCURVE",
"120 0 CURVE SMOOTH",
"147 0 LINE SMOOTH",
"154 0 OFFCURVE",
"157 3 OFFCURVE",
"157 9 CURVE SMOOTH",
"157 360 LINE SMOOTH",
"157 363 OFFCURVE",
"159 366 OFFCURVE",
"163 366 CURVE SMOOTH",
"555 366 LINE SMOOTH"
);
}
);
};
layerId = "91AB5BCA-6A50-42DA-B2F7-8181BF189245";
paths = (
{
closed = 1;
nodes = (
"564 0 LINE",
"604 0 LINE",
"604 742 LINE",
"564 742 LINE",
"564 407 LINE",
"155 407 LINE",
"155 742 LINE",
"115 742 LINE",
"115 0 LINE",
"155 0 LINE",
"155 365 LINE",
"564 365 LINE"
);
}
);
width = 719;
}
);
leftMetricsKey = N;
rightMetricsKey = N;
unicode = 0048;
},
{
glyphname = Hbar;
lastChange = "2016-11-02 00:47:50 +0000";
layers = (
{
background = {
components = (
{
name = H;
transform = "{1, 0, 0, 1, 25, 0}";
}
);
paths = (
{
closed = 1;
nodes = (
"799 651 OFFCURVE",
"793 658 OFFCURVE",
"783 658 CURVE SMOOTH",
"16 658 LINE SMOOTH",
"6 658 OFFCURVE",
"0 651 OFFCURVE",
"0 638 CURVE SMOOTH",
"0 577 LINE SMOOTH",
"0 562 OFFCURVE",
"5 555 OFFCURVE",
"22 555 CURVE SMOOTH",
"770 555 LINE SMOOTH",
"790 555 OFFCURVE",
"799 562 OFFCURVE",
"799 579 CURVE SMOOTH",
"799 640 LINE SMOOTH"
);
}
);
};
components = (
{
name = H;
transform = "{1, 0, 0, 1, 25, 0}";
}
);
layerId = "258ED206-D907-4350-8EBA-CBDDA1C16BF7";
paths = (
{
closed = 1;
nodes = (
"799 651 OFFCURVE",
"793 658 OFFCURVE",
"783 658 CURVE SMOOTH",
"16 658 LINE SMOOTH",
"6 658 OFFCURVE",
"0 651 OFFCURVE",
"0 638 CURVE SMOOTH",
"0 577 LINE SMOOTH",
"0 562 OFFCURVE",
"5 555 OFFCURVE",
"22 555 CURVE SMOOTH",
"770 555 LINE SMOOTH",
"790 555 OFFCURVE",
"799 562 OFFCURVE",
"799 579 CURVE SMOOTH",
"799 640 LINE SMOOTH"
);
}
);
width = 809;
},
{
background = {
components = (
{
name = H;
transform = "{1, 0, 0, 1, -1, 0}";
}
);
paths = (
{
closed = 1;
nodes = (
"702 615 OFFCURVE",
"700 618 OFFCURVE",
"695 618 CURVE SMOOTH",
"12 618 LINE SMOOTH",
"7 618 OFFCURVE",
"5 615 OFFCURVE",
"5 609 CURVE SMOOTH",
"5 588 LINE SMOOTH",
"5 581 OFFCURVE",
"7 578 OFFCURVE",
"15 578 CURVE SMOOTH",
"689 578 LINE SMOOTH",
"698 578 OFFCURVE",
"702 581 OFFCURVE",
"702 589 CURVE SMOOTH",
"702 610 LINE SMOOTH"
);
}
);
};
components = (
{
name = H;
transform = "{1, 0, 0, 1, -5, 0}";
}
);
layerId = "91AB5BCA-6A50-42DA-B2F7-8181BF189245";
paths = (
{
closed = 1;
nodes = (
"702 615 OFFCURVE",
"700 618 OFFCURVE",
"695 618 CURVE SMOOTH",
"12 618 LINE SMOOTH",
"7 618 OFFCURVE",
"5 615 OFFCURVE",
"5 609 CURVE SMOOTH",
"5 588 LINE SMOOTH",
"5 581 OFFCURVE",
"7 578 OFFCURVE",
"15 578 CURVE SMOOTH",
"689 578 LINE SMOOTH",
"698 578 OFFCURVE",
"702 581 OFFCURVE",
"702 589 CURVE SMOOTH",
"702 610 LINE SMOOTH"
);
}
);
width = 707;
}
);
unicode = 0126;
},
{
glyphname = I;
lastChange = "2017-03-16 16:22:04 +0000";
layers = (
{
anchors = (
{
name = bottom;
position = "{170, 0}";
},
{
name = ogonek;
position = "{235, 3}";
},
{
name = top;
position = "{160, 742}";
}
);
background = {
anchors = (
{
name = bottom;
position = "{173, 0}";
},
{
name = ogonek;
position = "{255, 10}";
},
{
name = top;
position = "{174, 742}";
}
);
paths = (
{
closed = 1;
nodes = (
"68 742 OFFCURVE",
"60 734 OFFCURVE",
"60 719 CURVE SMOOTH",
"60 25 LINE SMOOTH",
"60 8 OFFCURVE",
"66 0 OFFCURVE",
"87 0 CURVE SMOOTH",
"254 0 LINE SMOOTH",
"277 0 OFFCURVE",
"287 8 OFFCURVE",
"287 29 CURVE SMOOTH",
"287 721 LINE SMOOTH",
"287 734 OFFCURVE",
"281 742 OFFCURVE",
"269 742 CURVE SMOOTH",
"79 742 LINE SMOOTH"
);
}
);
};
layerId = "258ED206-D907-4350-8EBA-CBDDA1C16BF7";
paths = (
{
closed = 1;
nodes = (
"60 0 LINE",
"260 0 LINE",
"260 742 LINE",
"60 742 LINE"
);
}
);
width = 320;
},
{
anchors = (
{
name = bottom;
position = "{136, 0}";
},
{
name = ogonek;
position = "{148, 10}";
},
{
name = top;
position = "{139, 742}";
}
);
background = {
anchors = (
{
name = bottom;
position = "{136, 0}";
},
{
name = ogonek;
position = "{148, 10}";
},
{
name = top;
position = "{139, 742}";
}
);
paths = (
{
closed = 1;
nodes = (
"115 742 OFFCURVE",
"113 740 OFFCURVE",
"113 732 CURVE SMOOTH",
"113 10 LINE SMOOTH",
"113 2 OFFCURVE",
"115 0 OFFCURVE",
"124 0 CURVE SMOOTH",
"147 0 LINE SMOOTH",
"157 0 OFFCURVE",
"159 2 OFFCURVE",
"159 12 CURVE SMOOTH",
"159 732 LINE SMOOTH",
"159 740 OFFCURVE",
"157 742 OFFCURVE",
"150 742 CURVE SMOOTH",
"122 742 LINE SMOOTH"
);
}
);
};
layerId = "91AB5BCA-6A50-42DA-B2F7-8181BF189245";
paths = (
{
closed = 1;
nodes = (
"115 0 LINE",
"155 0 LINE",
"155 742 LINE",
"115 742 LINE"
);
}
);
width = 270;
}
);
unicode = 0049;
},
{
glyphname = J;
lastChange = "2017-03-16 16:23:25 +0000";
layers = (
{
anchors = (
{
name = top;
position = "{218, 742}";
}
);
background = {
anchors = (
{
name = top;
position = "{218, 742}";
}
);
paths = (
{
closed = 1;
nodes = (
"395 721 LINE SMOOTH",
"395 734 OFFCURVE",
"389 742 OFFCURVE",
"377 742 CURVE SMOOTH",
"188 742 LINE SMOOTH",
"176 742 OFFCURVE",
"168 734 OFFCURVE",
"168 719 CURVE SMOOTH",
"168 268 LINE SMOOTH",
"168 200 OFFCURVE",
"139 175 OFFCURVE",
"90 175 CURVE SMOOTH",
"68 175 OFFCURVE",
"51 180 OFFCURVE",
"35 182 CURVE SMOOTH",
"19 184 OFFCURVE",
"12 174 OFFCURVE",
"11 159 CURVE SMOOTH",
"2 45 LINE SMOOTH",
"0 17 OFFCURVE",
"10 6 OFFCURVE",
"33 2 CURVE SMOOTH",
"78 -6 OFFCURVE",
"116 -10 OFFCURVE",
"157 -10 CURVE SMOOTH",
"313 -10 OFFCURVE",
"395 48 OFFCURVE",
"395 212 CURVE SMOOTH"
);
}
);
};
layerId = "258ED206-D907-4350-8EBA-CBDDA1C16BF7";
paths = (
{
closed = 1;
nodes = (
"368 742 LINE",
"168 742 LINE",
"168 286 LINE SMOOTH",
"168 209 OFFCURVE",
"151 174 OFFCURVE",
"80 174 CURVE SMOOTH",
"59 174 OFFCURVE",
"33 177 OFFCURVE",
"15 179 CURVE",
"15 0 LINE",
"45 -6 OFFCURVE",
"107 -10 OFFCURVE",
"149 -10 CURVE SMOOTH",
"328 -10 OFFCURVE",
"368 71 OFFCURVE",
"368 235 CURVE SMOOTH"
);
}
);
width = 418;
},
{
anchors = (
{
name = top;
position = "{240, 742}";
}
);
background = {
anchors = (
{
name = top;
position = "{240, 742}";
}
);
paths = (
{
closed = 1;
nodes = (
"263 732 LINE SMOOTH",
"263 739 OFFCURVE",
"261 742 OFFCURVE",
"255 742 CURVE SMOOTH",
"225 742 LINE SMOOTH",
"219 742 OFFCURVE",
"217 739 OFFCURVE",
"217 733 CURVE SMOOTH",
"217 154 LINE SMOOTH",
"217 61 OFFCURVE",
"195 34 OFFCURVE",
"130 34 CURVE SMOOTH",
"81 34 OFFCURVE",
"59 49 OFFCURVE",
"38 59 CURVE SMOOTH",
"34 61 OFFCURVE",
"31 60 OFFCURVE",
"30 55 CURVE SMOOTH",
"21 24 LINE SMOOTH",
"20 20 OFFCURVE",
"22 17 OFFCURVE",
"25 15 CURVE SMOOTH",
"32 10 OFFCURVE",
"77 -10 OFFCURVE",
"132 -10 CURVE SMOOTH",
"229 -10 OFFCURVE",
"263 49 OFFCURVE",
"263 144 CURVE SMOOTH"
);
}
);
};
layerId = "91AB5BCA-6A50-42DA-B2F7-8181BF189245";
paths = (
{
closed = 1;
nodes = (
"258 742 LINE",
"218 742 LINE",
"218 158 LINE SMOOTH",
"218 65 OFFCURVE",
"195 32 OFFCURVE",
"130 32 CURVE SMOOTH",
"78 32 OFFCURVE",
"52 53 OFFCURVE",
"30 64 CURVE",
"20 19 LINE",
"27 13 OFFCURVE",
"74 -10 OFFCURVE",
"132 -10 CURVE SMOOTH",
"229 -10 OFFCURVE",
"258 49 OFFCURVE",
"258 144 CURVE SMOOTH"
);
}
);
width = 358;
}
);
leftKerningGroup = J;
unicode = 004A;
},
{
glyphname = K;
lastChange = "2017-03-23 04:27:02 +0000";
layers = (
{
anchors = (
{
name = bottom;
position = "{359, 0}";
},
{
name = top;
position = "{359, 742}";
}
);
background = {
anchors = (
{
name = bottom;
position = "{359, 0}";
},
{
name = top;
position = "{359, 742}";
}
);
paths = (
{
closed = 1;
nodes = (
"515 480 LINE SMOOTH",
"509 494 OFFCURVE",
"510 501 OFFCURVE",
"518 512 CURVE SMOOTH",
"682 713 LINE SMOOTH",
"695 728 OFFCURVE",
"683 742 OFFCURVE",
"661 742 CURVE SMOOTH",
"509 742 LINE SMOOTH",
"485 742 OFFCURVE",
"477 736 OFFCURVE",
"466 721 CURVE SMOOTH",
"282 463 LINE",
"274 453 OFFCURVE",
"267 452 OFFCURVE",
"267 468 CURVE SMOOTH",
"267 721 LINE SMOOTH",
"267 734 OFFCURVE",
"261 742 OFFCURVE",
"249 742 CURVE SMOOTH",
"59 742 LINE SMOOTH",
"48 742 OFFCURVE",
"40 734 OFFCURVE",
"40 719 CURVE SMOOTH",
"40 25 LINE SMOOTH",
"40 8 OFFCURVE",
"46 0 OFFCURVE",
"67 0 CURVE SMOOTH",
"234 0 LINE SMOOTH",
"257 0 OFFCURVE",
"267 8 OFFCURVE",
"267 29 CURVE SMOOTH",
"267 180 LINE SMOOTH",
"267 190 OFFCURVE",
"268 196 OFFCURVE",
"273 202 CURVE SMOOTH",
"344 293 LINE SMOOTH",
"354 306 OFFCURVE",
"360 308 OFFCURVE",
"366 298 CURVE SMOOTH",
"488 20 LINE SMOOTH",
"495 5 OFFCURVE",
"507 0 OFFCURVE",
"524 0 CURVE SMOOTH",
"719 0 LINE SMOOTH",
"739 0 OFFCURVE",
"741 15 OFFCURVE",
"733 31 CURVE SMOOTH"
);
}
);
};
guideLines = (
{
angle = 54.4985;
position = "{706, 742}";
},
{
angle = -62.8805;
position = "{359, 313}";
}
);
hints = (
{
horizontal = 1;
origin = "{0, 6}";
target = up;
type = BottomGhost;
},
{
horizontal = 1;
origin = "{0, 5}";
target = down;
type = TopGhost;
},
{
place = "{52, 207}";
}
);
layerId = "258ED206-D907-4350-8EBA-CBDDA1C16BF7";
paths = (
{
closed = 1;
nodes = (
"502 458 LINE",
"706 742 LINE",
"481 742 LINE",
"267 442 LINE",
"267 742 LINE",
"60 742 LINE",
"60 0 LINE",
"267 0 LINE",
"267 194 LINE",
"359 313 LINE",
"524 0 LINE",
"739 0 LINE"
);
}
);
width = 749;
},
{
anchors = (
{
name = bottom;
position = "{342, 0}";
},
{
name = top;
position = "{372, 742}";
}
);
background = {
anchors = (
{
name = bottom;
position = "{344, 0}";
},
{
name = top;
position = "{374, 742}";
}
);
paths = (
{
closed = 1;
nodes = (
"344 445 LINE SMOOTH",
"342 449 OFFCURVE",
"342 449 OFFCURVE",
"344 451 CURVE SMOOTH",
"603 734 LINE SMOOTH",
"607 738 OFFCURVE",
"606 742 OFFCURVE",
"600 742 CURVE SMOOTH",
"562 742 LINE SMOOTH",
"556 742 OFFCURVE",
"554 741 OFFCURVE",
"551 738 CURVE SMOOTH",
"168 322 LINE SMOOTH",
"163 317 OFFCURVE",
"161 317 OFFCURVE",
"161 323 CURVE SMOOTH",
"161 734 LINE SMOOTH",
"161 740 OFFCURVE",
"158 742 OFFCURVE",
"153 742 CURVE SMOOTH",
"123 742 LINE SMOOTH",
"117 742 OFFCURVE",
"115 739 OFFCURVE",
"115 734 CURVE SMOOTH",
"115 9 LINE SMOOTH",
"115 2 OFFCURVE",
"118 0 OFFCURVE",
"125 0 CURVE SMOOTH",
"151 0 LINE SMOOTH",
"158 0 OFFCURVE",
"161 3 OFFCURVE",
"161 9 CURVE SMOOTH",
"161 246 LINE SMOOTH",
"161 254 OFFCURVE",
"163 257 OFFCURVE",
"169 263 CURVE SMOOTH",
"301 409 LINE SMOOTH",
"306 414 OFFCURVE",
"309 415 OFFCURVE",
"313 409 CURVE SMOOTH",
"571 5 LINE SMOOTH",
"573 2 OFFCURVE",
"577 0 OFFCURVE",
"582 0 CURVE SMOOTH",
"621 0 LINE SMOOTH",
"625 0 OFFCURVE",
"627 3 OFFCURVE",
"624 7 CURVE SMOOTH"
);
}
);
};
layerId = "91AB5BCA-6A50-42DA-B2F7-8181BF189245";
paths = (
{
closed = 1;
nodes = (
"338 449 LINE",
"606 742 LINE",
"551 742 LINE",
"157 314 LINE",
"157 742 LINE",
"115 742 LINE",
"115 0 LINE",
"157 0 LINE",
"157 254 LINE",
"304 417 LINE",
"570 0 LINE",
"624 0 LINE"
);
}
);
width = 664;
}
);
leftMetricsKey = N;
rightKerningGroup = K;
unicode = 004B;
},
{
glyphname = L;
lastChange = "2017-03-16 16:23:48 +0000";
layers = (
{
anchors = (
{
name = bottom;
position = "{305, 0}";
},
{
name = top;
position = "{149, 742}";
},
{
name = topright;
position = "{491, 742}";
}
);
background = {
anchors = (
{
name = bottom;
position = "{305, 0}";
},
{
name = top;
position = "{159, 742}";
},
{
name = topright;
position = "{501, 742}";
}
);
paths = (
{
closed = 1;
nodes = (
"43 25 LINE SMOOTH",
"43 8 OFFCURVE",
"49 0 OFFCURVE",
"70 0 CURVE SMOOTH",
"581 0 LINE SMOOTH",
"598 0 OFFCURVE",
"606 10 OFFCURVE",
"606 22 CURVE SMOOTH",
"606 145 LINE SMOOTH",
"606 159 OFFCURVE",
"597 164 OFFCURVE",
"583 164 CURVE SMOOTH",
"282 164 LINE SMOOTH",
"273 164 OFFCURVE",
"270 167 OFFCURVE",
"270 178 CURVE SMOOTH",
"270 721 LINE SMOOTH",
"270 734 OFFCURVE",
"264 742 OFFCURVE",
"252 742 CURVE SMOOTH",
"62 742 LINE SMOOTH",
"51 742 OFFCURVE",
"43 734 OFFCURVE",
"43 719 CURVE SMOOTH"
);
}
);
};
layerId = "258ED206-D907-4350-8EBA-CBDDA1C16BF7";
paths = (
{
closed = 1;
nodes = (
"60 0 LINE",
"556 0 LINE",
"556 164 LINE",
"260 164 LINE",
"260 742 LINE",
"60 742 LINE"
);
}
);
width = 571;
},
{
anchors = (
{
name = bottom;
position = "{320, 0}";
},
{
name = top;
position = "{140, 742}";
},
{
name = topright;
position = "{422, 742}";
}
);
background = {
anchors = (
{
name = bottom;
position = "{320, 0}";
},
{
name = top;
position = "{138, 742}";
},
{
name = topright;
position = "{424, 742}";
}
);
paths = (
{
closed = 1;
nodes = (
"115 10 LINE SMOOTH",
"115 3 OFFCURVE",
"117 0 OFFCURVE",
"124 0 CURVE",
"534 0 LINE",
"539 0 OFFCURVE",
"541 2 OFFCURVE",
"541 7 CURVE SMOOTH",
"541 33 LINE SMOOTH",
"541 39 OFFCURVE",
"539 40 OFFCURVE",
"533 40 CURVE SMOOTH",
"170 40 LINE SMOOTH",
"163 40 OFFCURVE",
"161 41 OFFCURVE",
"161 49 CURVE SMOOTH",
"161 732 LINE SMOOTH",
"161 740 OFFCURVE",
"159 742 OFFCURVE",
"152 742 CURVE SMOOTH",
"124 742 LINE SMOOTH",
"117 742 OFFCURVE",
"115 740 OFFCURVE",
"115 732 CURVE SMOOTH"
);
}
);
};
layerId = "91AB5BCA-6A50-42DA-B2F7-8181BF189245";
paths = (
{
closed = 1;
nodes = (
"115 0 LINE",
"537 0 LINE",
"537 44 LINE",
"159 44 LINE",
"159 742 LINE",
"115 742 LINE"
);
}
);
width = 567;
}
);
leftMetricsKey = N;
rightKerningGroup = L;
unicode = 004C;
},
{
glyphname = Lslash;
lastChange = "2017-03-13 19:24:18 +0000";
layers = (
{
background = {
components = (
{
name = L;
}
);
paths = (
{
closed = 1;
nodes = (
"439 550 OFFCURVE",
"432 557 OFFCURVE",
"415 552 CURVE SMOOTH",
"10 444 LINE SMOOTH",
"-2 441 OFFCURVE",
"-9 436 OFFCURVE",
"-9 421 CURVE SMOOTH",
"-9 301 LINE SMOOTH",
"-9 284 OFFCURVE",
"-3 277 OFFCURVE",
"17 283 CURVE SMOOTH",
"419 397 LINE SMOOTH",
"433 401 OFFCURVE",
"439 409 OFFCURVE",
"439 421 CURVE SMOOTH",
"439 534 LINE SMOOTH"
);
}
);
};
components = (
{
name = L;
}
);
layerId = "258ED206-D907-4350-8EBA-CBDDA1C16BF7";
paths = (
{
closed = 1;
nodes = (
"439 550 OFFCURVE",
"432 557 OFFCURVE",
"415 552 CURVE SMOOTH",
"10 444 LINE SMOOTH",
"-2 441 OFFCURVE",
"-9 436 OFFCURVE",
"-9 421 CURVE SMOOTH",
"-9 301 LINE SMOOTH",
"-9 284 OFFCURVE",
"-3 277 OFFCURVE",
"17 283 CURVE SMOOTH",
"419 397 LINE SMOOTH",
"433 401 OFFCURVE",
"439 409 OFFCURVE",
"439 421 CURVE SMOOTH",
"439 534 LINE SMOOTH"
);
}
);
width = 584;
},
{
background = {
components = (
{
name = L;
}
);
paths = (
{
closed = 1;
nodes = (
"327 436 OFFCURVE",
"325 438 OFFCURVE",
"320 437 CURVE SMOOTH",
"38 365 LINE SMOOTH",
"35 364 OFFCURVE",
"33 361 OFFCURVE",
"33 356 CURVE SMOOTH",
"33 332 LINE SMOOTH",
"33 327 OFFCURVE",
"35 326 OFFCURVE",
"40 327 CURVE SMOOTH",
"321 400 LINE SMOOTH",
"325 401 OFFCURVE",
"327 404 OFFCURVE",
"327 408 CURVE SMOOTH",
"327 432 LINE SMOOTH"
);
}
);
};
components = (
{
name = L;
transform = "{1, 0, 0, 1, -4, 0}";
}
);
layerId = "91AB5BCA-6A50-42DA-B2F7-8181BF189245";
paths = (
{
closed = 1;
nodes = (
"327 436 OFFCURVE",
"325 438 OFFCURVE",
"320 437 CURVE SMOOTH",
"38 365 LINE SMOOTH",
"35 364 OFFCURVE",
"33 361 OFFCURVE",
"33 356 CURVE SMOOTH",
"33 332 LINE SMOOTH",
"33 327 OFFCURVE",
"35 326 OFFCURVE",
"40 327 CURVE SMOOTH",
"321 400 LINE SMOOTH",
"325 401 OFFCURVE",
"327 404 OFFCURVE",
"327 408 CURVE SMOOTH",
"327 432 LINE SMOOTH"
);
}
);
width = 618;
}
);
rightMetricsKey = L;
unicode = 0141;
},
{
glyphname = M;
lastChange = "2017-03-16 16:20:57 +0000";
layers = (
{
background = {
paths = (
{
closed = 1;
nodes = (
"214 0 LINE SMOOTH",
"232 0 OFFCURVE",
"236 4 OFFCURVE",
"236 22 CURVE SMOOTH",
"236 464 LINE SMOOTH",
"236 477 OFFCURVE",
"243 481 OFFCURVE",
"248 465 CURVE SMOOTH",
"392 18 LINE SMOOTH",
"396 6 OFFCURVE",
"404 0 OFFCURVE",
"416 0 CURVE SMOOTH",
"521 0 LINE SMOOTH",
"532 0 OFFCURVE",
"541 7 OFFCURVE",
"545 18 CURVE SMOOTH",
"689 473 LINE SMOOTH",
"693 485 OFFCURVE",
"701 485 OFFCURVE",
"701 474 CURVE SMOOTH",
"701 25 LINE SMOOTH",
"701 8 OFFCURVE",
"707 0 OFFCURVE",
"727 0 CURVE SMOOTH",
"896 0 LINE SMOOTH",
"919 0 OFFCURVE",
"928 8 OFFCURVE",
"928 29 CURVE SMOOTH",
"928 721 LINE SMOOTH",
"928 734 OFFCURVE",
"922 742 OFFCURVE",
"910 742 CURVE SMOOTH",
"621 742 LINE SMOOTH",
"607 742 OFFCURVE",
"599 731 OFFCURVE",
"594 713 CURVE SMOOTH",
"501 406 LINE SMOOTH",
"498 397 OFFCURVE",
"492 395 OFFCURVE",
"488 406 CURVE SMOOTH",
"384 724 LINE SMOOTH",
"379 738 OFFCURVE",
"373 742 OFFCURVE",
"356 742 CURVE SMOOTH",
"76 742 LINE SMOOTH",
"61 742 OFFCURVE",
"55 735 OFFCURVE",
"55 719 CURVE SMOOTH",
"55 28 LINE SMOOTH",
"55 11 OFFCURVE",
"65 0 OFFCURVE",
"81 0 CURVE SMOOTH"
);
}
);
};
guideLines = (
{
angle = -105;
position = "{476, 289}";
},
{
angle = 105;
position = "{476, 289}";
}
);
layerId = "258ED206-D907-4350-8EBA-CBDDA1C16BF7";
paths = (
{
closed = 1;
nodes = (
"260 0 LINE",
"260 537 LINE",
"404 0 LINE",
"548 0 LINE",
"692 537 LINE",
"692 0 LINE",
"892 0 LINE",
"892 742 LINE",
"597 742 LINE",
"476 289 LINE",
"356 742 LINE",
"60 742 LINE",
"60 0 LINE"
);
}
);
width = 952;
},
{
background = {
guideLines = (
{
position = "{40, 566}";
showMeasurement = 1;
}
);
paths = (
{
closed = 1;
nodes = (
"145 0 LINE SMOOTH",
"152 0 OFFCURVE",
"155 3 OFFCURVE",
"155 9 CURVE SMOOTH",
"155 622 LINE SMOOTH",
"155 626 OFFCURVE",
"157 625 OFFCURVE",
"158 622 CURVE SMOOTH",
"402 10 LINE SMOOTH",
"405 3 OFFCURVE",
"410 0 OFFCURVE",
"421 0 CURVE SMOOTH",
"448 0 LINE SMOOTH",
"457 0 OFFCURVE",
"461 3 OFFCURVE",
"464 11 CURVE SMOOTH",
"713 627 LINE SMOOTH",
"714 630 OFFCURVE",
"716 632 OFFCURVE",
"716 627 CURVE SMOOTH",
"716 9 LINE SMOOTH",
"716 2 OFFCURVE",
"719 0 OFFCURVE",
"726 0 CURVE SMOOTH",
"753 0 LINE SMOOTH",
"759 0 OFFCURVE",
"762 3 OFFCURVE",
"762 10 CURVE SMOOTH",
"762 732 LINE SMOOTH",
"762 740 OFFCURVE",
"760 742 OFFCURVE",
"753 742 CURVE SMOOTH",
"724 742 LINE SMOOTH",
"718 742 OFFCURVE",
"715 740 OFFCURVE",
"713 735 CURVE SMOOTH",
"442 65 LINE SMOOTH",
"436 51 OFFCURVE",
"431 51 OFFCURVE",
"426 64 CURVE SMOOTH",
"159 734 LINE",
"157 740 OFFCURVE",
"154 742 OFFCURVE",
"146 742 CURVE SMOOTH",
"120 742 LINE SMOOTH",
"113 742 OFFCURVE",
"111 740 OFFCURVE",
"111 732 CURVE SMOOTH",
"111 10 LINE SMOOTH",
"111 3 OFFCURVE",
"113 0 OFFCURVE",
"120 0 CURVE SMOOTH"
);
}
);
};
guideLines = (
{
position = "{148, 566}";
showMeasurement = 1;
},
{
angle = 68.255;
position = "{468, 0}";
}
);
layerId = "91AB5BCA-6A50-42DA-B2F7-8181BF189245";
paths = (
{
closed = 1;
nodes = (
"159 0 LINE",
"159 624 LINE",
"408 0 LINE",
"468 0 LINE",
"720 632 LINE",
"720 0 LINE",
"764 0 LINE",
"764 742 LINE",
"720 742 LINE",
"438 45 LINE",
"160 742 LINE",
"115 742 LINE",
"115 0 LINE"
);
}
);
width = 879;
}
);
leftMetricsKey = N;
rightMetricsKey = N;
unicode = 004D;
},
{
glyphname = N;
lastChange = "2017-03-16 16:20:26 +0000";
layers = (
{
anchors = (
{
name = bottom;
position = "{404, 0}";
},
{
name = top;
position = "{404, 742}";
}
);
background = {
anchors = (
{
name = bottom;
position = "{404, 0}";
},
{
name = top;
position = "{404, 742}";
}
);
paths = (
{
closed = 1;
nodes = (
"557 742 OFFCURVE",
"550 734 OFFCURVE",
"550 721 CURVE SMOOTH",
"550 394 LINE SMOOTH",
"550 378 OFFCURVE",
"543 378 OFFCURVE",
"534 390 CURVE SMOOTH",
"294 724 LINE SMOOTH",
"283 739 OFFCURVE",
"277 742 OFFCURVE",
"260 742 CURVE SMOOTH",
"97 742 LINE SMOOTH",
"82 742 OFFCURVE",
"75 735 OFFCURVE",
"75 719 CURVE SMOOTH",
"75 20 LINE SMOOTH",
"75 5 OFFCURVE",
"85 0 OFFCURVE",
"100 0 CURVE SMOOTH",
"236 0 LINE SMOOTH",
"254 0 OFFCURVE",
"261 6 OFFCURVE",
"260 22 CURVE SMOOTH",
"260 386 LINE SMOOTH",
"260 393 OFFCURVE",
"265 395 OFFCURVE",
"270 388 CURVE SMOOTH",
"545 15 LINE SMOOTH",
"555 2 OFFCURVE",
"561 0 OFFCURVE",
"572 0 CURVE SMOOTH",
"709 0 LINE SMOOTH",
"722 0 OFFCURVE",
"732 7 OFFCURVE",
"732 18 CURVE SMOOTH",
"732 725 LINE SMOOTH",
"732 736 OFFCURVE",
"727 742 OFFCURVE",
"717 742 CURVE SMOOTH",
"572 742 LINE SMOOTH"
);
}
);
};
guideLines = (
{
angle = 125.0467;
position = "{550, 328}";
}
);
layerId = "258ED206-D907-4350-8EBA-CBDDA1C16BF7";
paths = (
{
closed = 1;
nodes = (
"550 328 LINE",
"261 742 LINE",
"60 742 LINE",
"60 0 LINE",
"260 0 LINE",
"260 442 LINE",
"569 0 LINE",
"750 0 LINE",
"750 742 LINE",
"550 742 LINE"
);
}
);
width = 810;
},
{
anchors = (
{
name = bottom;
position = "{350, 0}";
},
{
name = top;
position = "{389, 742}";
}
);
background = {
anchors = (
{
name = bottom;
position = "{356, 0}";
},
{
name = top;
position = "{391, 742}";
}
);
guideLines = (
{
position = "{45, 576}";
showMeasurement = 1;
}
);
paths = (
{
closed = 1;
nodes = (
"596 742 OFFCURVE",
"594 739 OFFCURVE",
"594 733 CURVE SMOOTH",
"594 107 LINE SMOOTH",
"594 101 OFFCURVE",
"587 95 OFFCURVE",
"580 105 CURVE SMOOTH",
"153 735 LINE SMOOTH",
"149 741 OFFCURVE",
"146 742 OFFCURVE",
"138 742 CURVE SMOOTH",
"120 742 LINE",
"113 742 OFFCURVE",
"111 740 OFFCURVE",
"111 732 CURVE SMOOTH",
"111 10 LINE SMOOTH",
"111 3 OFFCURVE",
"113 0 OFFCURVE",
"120 0 CURVE SMOOTH",
"145 0 LINE SMOOTH",
"152 0 OFFCURVE",
"155 3 OFFCURVE",
"155 9 CURVE SMOOTH",
"155 637 LINE SMOOTH",
"155 645 OFFCURVE",
"160 647 OFFCURVE",
"167 637 CURVE SMOOTH",
"595 6 LINE SMOOTH",
"600 -1 OFFCURVE",
"606 0 OFFCURVE",
"614 0 CURVE SMOOTH",
"629 0 LINE SMOOTH",
"635 0 OFFCURVE",
"638 3 OFFCURVE",
"638 10 CURVE SMOOTH",
"638 732 LINE SMOOTH",
"638 740 OFFCURVE",
"636 742 OFFCURVE",
"629 742 CURVE SMOOTH",
"602 742 LINE SMOOTH"
);
}
);
};
guideLines = (
{
position = "{153, 576}";
showMeasurement = 1;
},
{
angle = 123.9688;
position = "{155, 659}";
}
);
layerId = "91AB5BCA-6A50-42DA-B2F7-8181BF189245";
paths = (
{
closed = 1;
nodes = (
"594 80 LINE",
"148 742 LINE",
"115 742 LINE",
"115 0 LINE",
"155 0 LINE",
"155 659 LINE",
"599 0 LINE",
"634 0 LINE",
"634 742 LINE",
"594 742 LINE"
);
}
);
width = 749;
}
);
unicode = 004E;
},
{
glyphname = Eng;
lastChange = "2017-03-13 19:24:10 +0000";
layers = (
{
background = {
paths = (
{
closed = 1;
nodes = (
"547 742 LINE SMOOTH",
"532 742 OFFCURVE",
"525 734 OFFCURVE",
"525 721 CURVE SMOOTH",
"525 434 LINE SMOOTH",
"525 418 OFFCURVE",
"518 418 OFFCURVE",
"509 430 CURVE",
"269 724 LINE SMOOTH",
"257 739 OFFCURVE",
"252 742 OFFCURVE",
"235 742 CURVE SMOOTH",
"72 742 LINE SMOOTH",
"57 742 OFFCURVE",
"50 735 OFFCURVE",
"50 719 CURVE SMOOTH",
"50 20 LINE SMOOTH",
"50 5 OFFCURVE",
"60 0 OFFCURVE",
"75 0 CURVE SMOOTH",
"211 0 LINE SMOOTH",
"229 0 OFFCURVE",
"236 6 OFFCURVE",
"235 22 CURVE",
"235 386 LINE",
"235 393 OFFCURVE",
"239 395 OFFCURVE",
"245 388 CURVE SMOOTH",
"485 97 LINE",
"485 88 LINE SMOOTH",
"482 31 OFFCURVE",
"452 10 OFFCURVE",
"407 10 CURVE SMOOTH",
"385 10 OFFCURVE",
"362 15 OFFCURVE",
"346 17 CURVE SMOOTH",
"330 19 OFFCURVE",
"323 9 OFFCURVE",
"322 -6 CURVE SMOOTH",
"313 -120 LINE SMOOTH",
"311 -148 OFFCURVE",
"321 -159 OFFCURVE",
"344 -163 CURVE SMOOTH",
"389 -171 OFFCURVE",
"433 -175 OFFCURVE",
"474 -175 CURVE SMOOTH",
"626 -175 OFFCURVE",
"707 -114 OFFCURVE",
"707 47 CURVE SMOOTH",
"707 725 LINE SMOOTH",
"707 736 OFFCURVE",
"702 742 OFFCURVE",
"692 742 CURVE SMOOTH"
);
}
);
};
layerId = "258ED206-D907-4350-8EBA-CBDDA1C16BF7";
paths = (
{
closed = 1;
nodes = (
"547 742 LINE SMOOTH",
"532 742 OFFCURVE",
"525 734 OFFCURVE",
"525 721 CURVE SMOOTH",
"525 434 LINE SMOOTH",
"525 418 OFFCURVE",
"518 418 OFFCURVE",
"509 430 CURVE",
"269 724 LINE SMOOTH",
"257 739 OFFCURVE",
"252 742 OFFCURVE",
"235 742 CURVE SMOOTH",
"72 742 LINE SMOOTH",
"57 742 OFFCURVE",
"50 735 OFFCURVE",
"50 719 CURVE SMOOTH",
"50 20 LINE SMOOTH",
"50 5 OFFCURVE",
"60 0 OFFCURVE",
"75 0 CURVE SMOOTH",
"211 0 LINE SMOOTH",
"229 0 OFFCURVE",
"236 6 OFFCURVE",
"235 22 CURVE",
"235 386 LINE",
"235 393 OFFCURVE",
"239 395 OFFCURVE",
"245 388 CURVE SMOOTH",
"485 97 LINE",
"485 88 LINE SMOOTH",
"482 31 OFFCURVE",
"452 10 OFFCURVE",
"407 10 CURVE SMOOTH",
"385 10 OFFCURVE",
"362 15 OFFCURVE",
"346 17 CURVE SMOOTH",
"330 19 OFFCURVE",
"323 9 OFFCURVE",
"322 -6 CURVE SMOOTH",
"313 -120 LINE SMOOTH",
"311 -148 OFFCURVE",
"321 -159 OFFCURVE",
"344 -163 CURVE SMOOTH",
"389 -171 OFFCURVE",
"433 -175 OFFCURVE",
"474 -175 CURVE SMOOTH",
"626 -175 OFFCURVE",
"707 -114 OFFCURVE",
"707 47 CURVE SMOOTH",
"707 725 LINE SMOOTH",
"707 736 OFFCURVE",
"702 742 OFFCURVE",
"692 742 CURVE SMOOTH"
);
}
);
width = 759;
},
{
background = {
paths = (
{
closed = 1;
nodes = (
"627 742 LINE SMOOTH",
"621 742 OFFCURVE",
"619 739 OFFCURVE",
"619 733 CURVE SMOOTH",
"619 107 LINE SMOOTH",
"619 101 OFFCURVE",
"612 94 OFFCURVE",
"605 104 CURVE SMOOTH",
"179 735 LINE SMOOTH",
"175 741 OFFCURVE",
"172 742 OFFCURVE",
"165 742 CURVE SMOOTH",
"144 742 LINE SMOOTH",
"137 742 OFFCURVE",
"135 740 OFFCURVE",
"135 732 CURVE SMOOTH",
"135 10 LINE SMOOTH",
"135 3 OFFCURVE",
"137 0 OFFCURVE",
"144 0 CURVE SMOOTH",
"169 0 LINE SMOOTH",
"176 0 OFFCURVE",
"179 3 OFFCURVE",
"179 9 CURVE SMOOTH",
"179 640 LINE SMOOTH",
"179 648 OFFCURVE",
"181 650 OFFCURVE",
"188 640 CURVE SMOOTH",
"616 12 LINE",
"616 -41 LINE SMOOTH",
"616 -112 OFFCURVE",
"585 -135 OFFCURVE",
"531 -135 CURVE SMOOTH",
"501 -135 OFFCURVE",
"477 -128 OFFCURVE",
"461 -122 CURVE SMOOTH",
"456 -120 OFFCURVE",
"454 -121 OFFCURVE",
"453 -126 CURVE",
"450 -151 LINE",
"450 -155 OFFCURVE",
"451 -158 OFFCURVE",
"454 -160 CURVE SMOOTH",
"461 -165 OFFCURVE",
"494 -175 OFFCURVE",
"535 -175 CURVE SMOOTH",
"629 -175 OFFCURVE",
"662 -124 OFFCURVE",
"662 -46 CURVE SMOOTH",
"662 732 LINE SMOOTH",
"662 740 OFFCURVE",
"660 742 OFFCURVE",
"653 742 CURVE SMOOTH"
);
}
);
};
layerId = "91AB5BCA-6A50-42DA-B2F7-8181BF189245";
paths = (
{
closed = 1;
nodes = (
"627 742 LINE SMOOTH",
"621 742 OFFCURVE",
"619 739 OFFCURVE",
"619 733 CURVE SMOOTH",
"619 107 LINE SMOOTH",
"619 101 OFFCURVE",
"612 94 OFFCURVE",
"605 104 CURVE SMOOTH",
"179 735 LINE SMOOTH",
"175 741 OFFCURVE",
"172 742 OFFCURVE",
"165 742 CURVE SMOOTH",
"144 742 LINE SMOOTH",
"137 742 OFFCURVE",
"135 740 OFFCURVE",
"135 732 CURVE SMOOTH",
"135 10 LINE SMOOTH",
"135 3 OFFCURVE",
"137 0 OFFCURVE",
"144 0 CURVE SMOOTH",
"169 0 LINE SMOOTH",
"176 0 OFFCURVE",
"179 3 OFFCURVE",
"179 9 CURVE SMOOTH",
"179 640 LINE SMOOTH",
"179 648 OFFCURVE",
"181 650 OFFCURVE",
"188 640 CURVE SMOOTH",
"616 12 LINE",
"616 -41 LINE SMOOTH",
"616 -112 OFFCURVE",
"585 -135 OFFCURVE",
"531 -135 CURVE SMOOTH",
"501 -135 OFFCURVE",
"477 -128 OFFCURVE",
"461 -122 CURVE SMOOTH",
"456 -120 OFFCURVE",
"454 -121 OFFCURVE",
"453 -126 CURVE",
"450 -151 LINE",
"450 -155 OFFCURVE",
"451 -158 OFFCURVE",
"454 -160 CURVE SMOOTH",
"461 -165 OFFCURVE",
"494 -175 OFFCURVE",
"535 -175 CURVE SMOOTH",
"629 -175 OFFCURVE",
"662 -124 OFFCURVE",
"662 -46 CURVE SMOOTH",
"662 732 LINE SMOOTH",
"662 740 OFFCURVE",
"660 742 OFFCURVE",
"653 742 CURVE SMOOTH"
);
}
);
width = 787;
}
);
leftMetricsKey = N;
rightMetricsKey = N;
unicode = 014A;
},
{
glyphname = O;
lastChange = "2017-03-16 16:22:12 +0000";
layers = (
{
anchors = (
{
name = bottom;
position = "{381, 0}";
},
{
name = ogonek;
position = "{472, 10}";
},
{
name = top;
position = "{379, 742}";
}
);
background = {
anchors = (
{
name = bottom;
position = "{381, 0}";
},
{
name = ogonek;
position = "{472, 10}";
},
{
name = top;
position = "{379, 742}";
}
);
paths = (
{
closed = 1;
nodes = (
"598 -10 OFFCURVE",
"738 139 OFFCURVE",
"738 369 CURVE SMOOTH",
"738 601 OFFCURVE",
"595 752 OFFCURVE",
"380 752 CURVE SMOOTH",
"163 752 OFFCURVE",
"20 601 OFFCURVE",
"20 369 CURVE SMOOTH",
"20 138 OFFCURVE",
"159 -10 OFFCURVE",
"380 -10 CURVE SMOOTH"
);
},
{
closed = 1;
nodes = (
"291 146 OFFCURVE",
"258 206 OFFCURVE",
"258 366 CURVE SMOOTH",
"258 531 OFFCURVE",
"293 598 OFFCURVE",
"380 598 CURVE SMOOTH",
"465 598 OFFCURVE",
"500 531 OFFCURVE",
"500 366 CURVE SMOOTH",
"500 206 OFFCURVE",
"467 146 OFFCURVE",
"380 146 CURVE SMOOTH"
);
}
);
};
guideLines = (
{
angle = 90;
position = "{-617, 431}";
}
);
layerId = "258ED206-D907-4350-8EBA-CBDDA1C16BF7";
paths = (
{
closed = 1;
nodes = (
"598 -10 OFFCURVE",
"738 139 OFFCURVE",
"738 369 CURVE SMOOTH",
"738 601 OFFCURVE",
"595 752 OFFCURVE",
"380 752 CURVE SMOOTH",
"163 752 OFFCURVE",
"20 601 OFFCURVE",
"20 369 CURVE SMOOTH",
"20 138 OFFCURVE",
"159 -10 OFFCURVE",
"380 -10 CURVE SMOOTH"
);
},
{
closed = 1;
nodes = (
"298 150 OFFCURVE",
"237 206 OFFCURVE",
"237 366 CURVE SMOOTH",
"237 531 OFFCURVE",
"298 592 OFFCURVE",
"380 592 CURVE SMOOTH",
"462 592 OFFCURVE",
"521 531 OFFCURVE",
"521 366 CURVE SMOOTH",
"521 206 OFFCURVE",
"462 150 OFFCURVE",
"380 150 CURVE SMOOTH"
);
}
);
width = 758;
},
{
anchors = (
{
name = bottom;
position = "{363, 0}";
},
{
name = ogonek;
position = "{433, 9}";
},
{
name = top;
position = "{363, 742}";
}
);
background = {
anchors = (
{
name = bottom;
position = "{363, 0}";
},
{
name = ogonek;
position = "{433, 9}";
},
{
name = top;
position = "{363, 742}";
}
);
paths = (
{
closed = 1;
nodes = (
"549 -10 OFFCURVE",
"662 122 OFFCURVE",
"662 369 CURVE SMOOTH",
"662 618 OFFCURVE",
"549 752 OFFCURVE",
"362 752 CURVE SMOOTH",
"174 752 OFFCURVE",
"60 617 OFFCURVE",
"60 367 CURVE SMOOTH",
"60 121 OFFCURVE",
"172 -10 OFFCURVE",
"361 -10 CURVE SMOOTH"
);
},
{
closed = 1;
nodes = (
"197 32 OFFCURVE",
"108 143 OFFCURVE",
"108 369 CURVE SMOOTH",
"108 597 OFFCURVE",
"197 710 OFFCURVE",
"362 710 CURVE SMOOTH",
"526 710 OFFCURVE",
"614 598 OFFCURVE",
"614 369 CURVE SMOOTH",
"614 142 OFFCURVE",
"528 32 OFFCURVE",
"363 32 CURVE SMOOTH"
);
}
);
};
guideLines = (
{
angle = 90;
position = "{-486, 431}";
},
{
angle = 90;
position = "{471, 640}";
}
);
layerId = "91AB5BCA-6A50-42DA-B2F7-8181BF189245";
paths = (
{
closed = 1;
nodes = (
"549 -10 OFFCURVE",
"662 122 OFFCURVE",
"662 369 CURVE SMOOTH",
"662 618 OFFCURVE",
"549 752 OFFCURVE",
"362 752 CURVE SMOOTH",
"174 752 OFFCURVE",
"60 617 OFFCURVE",
"60 367 CURVE SMOOTH",
"60 121 OFFCURVE",
"172 -10 OFFCURVE",
"361 -10 CURVE SMOOTH"
);
},
{
closed = 1;
nodes = (
"197 32 OFFCURVE",
"105 143 OFFCURVE",
"105 369 CURVE SMOOTH",
"105 597 OFFCURVE",
"197 710 OFFCURVE",
"362 710 CURVE SMOOTH",
"526 710 OFFCURVE",
"617 598 OFFCURVE",
"617 369 CURVE SMOOTH",
"617 142 OFFCURVE",
"528 32 OFFCURVE",
"363 32 CURVE SMOOTH"
);
}
);
width = 722;
}
);
leftKerningGroup = O;
rightKerningGroup = O;
unicode = 004F;
},
{
glyphname = Oslash;
lastChange = "2016-11-02 00:47:50 +0000";
layers = (
{
anchors = (
{
name = top;
position = "{393, 742}";
}
);
background = {
anchors = (
{
name = top;
position = "{393, 742}";
}
);
paths = (
{
closed = 1;
nodes = (
"722 742 LINE SMOOTH",
"714 750 OFFCURVE",
"702 748 OFFCURVE",
"691 737 CURVE SMOOTH",
"625.978 673.628 LINE",
"565.773 724.014 OFFCURVE",
"486.559 752 OFFCURVE",
"394 752 CURVE SMOOTH",
"177 752 OFFCURVE",
"34 601 OFFCURVE",
"34 369 CURVE SMOOTH",
"34 283.385 OFFCURVE",
"53.094 209.172 OFFCURVE",
"88.379 149.669 CURVE",
"21 84 LINE SMOOTH",
"9 72 OFFCURVE",
"10 62 OFFCURVE",
"25 47 CURVE SMOOTH",
"64 7 LINE SMOOTH",
"80 -9 OFFCURVE",
"92 -8 OFFCURVE",
"107 7 CURVE SMOOTH",
"164.116 62.748 LINE",
"223.663 15.829 OFFCURVE",
"301.676 -10 OFFCURVE",
"394 -10 CURVE SMOOTH",
"612 -10 OFFCURVE",
"752 139 OFFCURVE",
"752 369 CURVE SMOOTH",
"752 452.736 OFFCURVE",
"733.371 525.92 OFFCURVE",
"699.451 585.261 CURVE",
"775 659 LINE",
"785 668 OFFCURVE",
"784 678 OFFCURVE",
"776 686 CURVE SMOOTH"
);
},
{
closed = 1;
nodes = (
"272 531 OFFCURVE",
"307 598 OFFCURVE",
"394 598 CURVE SMOOTH",
"438.199 598 OFFCURVE",
"468.878 579.884 OFFCURVE",
"488.147 539.294 CURVE",
"272.654 329.269 LINE",
"272 342 OFFCURVE",
"272 354 OFFCURVE",
"272 366 CURVE"
);
},
{
closed = 1;
nodes = (
"514 206 OFFCURVE",
"481 146 OFFCURVE",
"394 146 CURVE SMOOTH",
"349.772 146 OFFCURVE",
"319.374 160.817 OFFCURVE",
"299.982 195.36 CURVE",
"513.326 403.593 LINE",
"514 391 OFFCURVE",
"514 379 OFFCURVE",
"514 366 CURVE SMOOTH"
);
}
);
};
layerId = "258ED206-D907-4350-8EBA-CBDDA1C16BF7";
paths = (
{
closed = 1;
nodes = (
"722 742 LINE SMOOTH",
"714 750 OFFCURVE",
"702 748 OFFCURVE",
"691 737 CURVE SMOOTH",
"625.978 673.628 LINE",
"565.773 724.014 OFFCURVE",
"486.559 752 OFFCURVE",
"394 752 CURVE SMOOTH",
"177 752 OFFCURVE",
"34 601 OFFCURVE",
"34 369 CURVE SMOOTH",
"34 283.385 OFFCURVE",
"53.094 209.172 OFFCURVE",
"88.379 149.669 CURVE",
"21 84 LINE SMOOTH",
"9 72 OFFCURVE",
"10 62 OFFCURVE",
"25 47 CURVE SMOOTH",
"64 7 LINE SMOOTH",
"80 -9 OFFCURVE",
"92 -8 OFFCURVE",
"107 7 CURVE SMOOTH",
"164.116 62.748 LINE",
"223.663 15.829 OFFCURVE",
"301.676 -10 OFFCURVE",
"394 -10 CURVE SMOOTH",
"612 -10 OFFCURVE",
"752 139 OFFCURVE",
"752 369 CURVE SMOOTH",
"752 452.736 OFFCURVE",
"733.371 525.92 OFFCURVE",
"699.451 585.261 CURVE",
"775 659 LINE",
"785 668 OFFCURVE",
"784 678 OFFCURVE",
"776 686 CURVE SMOOTH"
);
},
{
closed = 1;
nodes = (
"272 531 OFFCURVE",
"307 598 OFFCURVE",
"394 598 CURVE SMOOTH",
"438.199 598 OFFCURVE",
"468.878 579.884 OFFCURVE",
"488.147 539.294 CURVE",
"272.654 329.269 LINE",
"272 342 OFFCURVE",
"272 354 OFFCURVE",
"272 366 CURVE"
);
},
{
closed = 1;
nodes = (
"514 206 OFFCURVE",
"481 146 OFFCURVE",
"394 146 CURVE SMOOTH",
"349.772 146 OFFCURVE",
"319.374 160.817 OFFCURVE",
"299.982 195.36 CURVE",
"513.326 403.593 LINE",
"514 391 OFFCURVE",
"514 379 OFFCURVE",
"514 366 CURVE SMOOTH"
);
}
);
width = 796;
},
{
anchors = (
{
name = top;
position = "{355, 742}";
}
);
background = {
anchors = (
{
name = top;
position = "{355, 742}";
}
);
paths = (
{
closed = 1;
nodes = (
"659 749 LINE",
"654 753 OFFCURVE",
"650 751 OFFCURVE",
"646 746 CURVE",
"571 659 LINE",
"519 720 OFFCURVE",
"446 752 OFFCURVE",
"355 752 CURVE SMOOTH",
"167 752 OFFCURVE",
"53 617 OFFCURVE",
"53 367 CURVE SMOOTH",
"53 266 OFFCURVE",
"72 184 OFFCURVE",
"108 123 CURVE",
"24 26 LINE",
"20 21 OFFCURVE",
"21 18 OFFCURVE",
"28 11 CURVE SMOOTH",
"45 -5 LINE",
"53 -11 OFFCURVE",
"58 -11 OFFCURVE",
"64 -3 CURVE",
"137 81 LINE",
"188 21 OFFCURVE",
"262 -10 OFFCURVE",
"354 -10 CURVE SMOOTH",
"542 -10 OFFCURVE",
"655 122 OFFCURVE",
"655 369 CURVE SMOOTH",
"655 472 OFFCURVE",
"636 555 OFFCURVE",
"600 617 CURVE",
"685 716 LINE",
"688 720 OFFCURVE",
"687 724 OFFCURVE",
"684 727 CURVE"
);
},
{
closed = 1;
nodes = (
"104 597 OFFCURVE",
"190 709 OFFCURVE",
"355 709 CURVE SMOOTH",
"437 709 OFFCURVE",
"499 681 OFFCURVE",
"541 625 CURVE",
"141 161 LINE",
"116 214 OFFCURVE",
"104 283 OFFCURVE",
"104 369 CURVE SMOOTH"
);
},
{
closed = 1;
nodes = (
"604 142 OFFCURVE",
"521 33 OFFCURVE",
"356 33 CURVE SMOOTH",
"273 33 OFFCURVE",
"210 61 OFFCURVE",
"167 117 CURVE",
"567 580 LINE",
"592 526 OFFCURVE",
"604 456 OFFCURVE",
"604 369 CURVE SMOOTH"
);
}
);
};
layerId = "91AB5BCA-6A50-42DA-B2F7-8181BF189245";
paths = (
{
closed = 1;
nodes = (
"659 749 LINE",
"654 753 OFFCURVE",
"650 751 OFFCURVE",
"646 746 CURVE",
"571 659 LINE",
"519 720 OFFCURVE",
"446 752 OFFCURVE",
"355 752 CURVE SMOOTH",
"167 752 OFFCURVE",
"53 617 OFFCURVE",
"53 367 CURVE SMOOTH",
"53 266 OFFCURVE",
"72 184 OFFCURVE",
"108 123 CURVE",
"24 26 LINE",
"20 21 OFFCURVE",
"21 18 OFFCURVE",
"28 11 CURVE SMOOTH",
"45 -5 LINE",
"53 -11 OFFCURVE",
"58 -11 OFFCURVE",
"64 -3 CURVE",
"137 81 LINE",
"188 21 OFFCURVE",
"262 -10 OFFCURVE",
"354 -10 CURVE SMOOTH",
"542 -10 OFFCURVE",
"655 122 OFFCURVE",
"655 369 CURVE SMOOTH",
"655 472 OFFCURVE",
"636 555 OFFCURVE",
"600 617 CURVE",
"685 716 LINE",
"688 720 OFFCURVE",
"687 724 OFFCURVE",
"684 727 CURVE"
);
},
{
closed = 1;
nodes = (
"104 597 OFFCURVE",
"190 709 OFFCURVE",
"355 709 CURVE SMOOTH",
"437 709 OFFCURVE",
"499 681 OFFCURVE",
"541 625 CURVE",
"141 161 LINE",
"116 214 OFFCURVE",
"104 283 OFFCURVE",
"104 369 CURVE SMOOTH"
);
},
{
closed = 1;
nodes = (
"604 142 OFFCURVE",
"521 33 OFFCURVE",
"356 33 CURVE SMOOTH",
"273 33 OFFCURVE",
"210 61 OFFCURVE",
"167 117 CURVE",
"567 580 LINE",
"592 526 OFFCURVE",
"604 456 OFFCURVE",
"604 369 CURVE SMOOTH"
);
}
);
width = 708;
}
);
unicode = 00D8;
},
{
glyphname = OE;
lastChange = "2017-03-13 19:24:04 +0000";
layers = (
{
background = {
paths = (
{
closed = 1;
nodes = (
"727 164 LINE",
"727 292 LINE",
"946 292 LINE",
"946 453 LINE",
"727 453 LINE",
"727 578 LINE",
"1076 578 LINE",
"1077 742 LINE",
"595 742 LINE",
"533 742 LINE",
"498 749 OFFCURVE",
"455 752 OFFCURVE",
"404 752 CURVE SMOOTH",
"163 752 OFFCURVE",
"20 601 OFFCURVE",
"20 369 CURVE SMOOTH",
"20 138 OFFCURVE",
"159 -10 OFFCURVE",
"392 -10 CURVE SMOOTH",
"448 -10 OFFCURVE",
"495 -7 OFFCURVE",
"533 0 CURVE",
"583 0 LINE",
"590 0 OFFCURVE",
"597 0 OFFCURVE",
"604 0 CURVE",
"1062 0 LINE SMOOTH",
"1079 0 OFFCURVE",
"1086 10 OFFCURVE",
"1086 22 CURVE SMOOTH",
"1086 145 LINE SMOOTH",
"1086 159 OFFCURVE",
"1078 164 OFFCURVE",
"1064 164 CURVE SMOOTH"
);
},
{
closed = 1;
nodes = (
"291 146 OFFCURVE",
"258 206 OFFCURVE",
"258 366 CURVE SMOOTH",
"258 531 OFFCURVE",
"293 598 OFFCURVE",
"380 598 CURVE SMOOTH",
"465 598 OFFCURVE",
"500 531 OFFCURVE",
"500 366 CURVE SMOOTH",
"500 206 OFFCURVE",
"467 146 OFFCURVE",
"380 146 CURVE SMOOTH"
);
}
);
};
layerId = "258ED206-D907-4350-8EBA-CBDDA1C16BF7";
paths = (
{
closed = 1;
nodes = (
"727 164 LINE",
"727 292 LINE",
"946 292 LINE",
"946 453 LINE",
"727 453 LINE",
"727 578 LINE",
"1076 578 LINE",
"1077 742 LINE",
"595 742 LINE",
"533 742 LINE",
"498 749 OFFCURVE",
"455 752 OFFCURVE",
"404 752 CURVE SMOOTH",
"163 752 OFFCURVE",
"20 601 OFFCURVE",
"20 369 CURVE SMOOTH",
"20 138 OFFCURVE",
"159 -10 OFFCURVE",
"392 -10 CURVE SMOOTH",
"448 -10 OFFCURVE",
"495 -7 OFFCURVE",
"533 0 CURVE",
"583 0 LINE",
"1086 0 LINE",
"1086 164 LINE"
);
},
{
closed = 1;
nodes = (
"291 146 OFFCURVE",
"258 206 OFFCURVE",
"258 366 CURVE SMOOTH",
"258 531 OFFCURVE",
"293 598 OFFCURVE",
"380 598 CURVE SMOOTH",
"465 598 OFFCURVE",
"500 531 OFFCURVE",
"500 366 CURVE SMOOTH",
"500 206 OFFCURVE",
"467 146 OFFCURVE",
"380 146 CURVE SMOOTH"
);
}
);
width = 1116;
},
{
background = {
paths = (
{
closed = 1;
nodes = (
"701 40 LINE SMOOTH",
"694 40 OFFCURVE",
"692 41 OFFCURVE",
"692 49 CURVE SMOOTH",
"692 346 LINE SMOOTH",
"692 354 OFFCURVE",
"694 355 OFFCURVE",
"701 355 CURVE SMOOTH",
"978 355 LINE SMOOTH",
"984 355 OFFCURVE",
"986 356 OFFCURVE",
"986 362 CURVE SMOOTH",
"986 388 LINE SMOOTH",
"986 393 OFFCURVE",
"984 395 OFFCURVE",
"979 395 CURVE SMOOTH",
"701 395 LINE SMOOTH",
"694 395 OFFCURVE",
"692 396 OFFCURVE",
"692 402 CURVE SMOOTH",
"692 693 LINE SMOOTH",
"692 701 OFFCURVE",
"694 702 OFFCURVE",
"701 702 CURVE SMOOTH",
"1059 702 LINE SMOOTH",
"1065 702 OFFCURVE",
"1067 703 OFFCURVE",
"1067 709 CURVE SMOOTH",
"1067 735 LINE SMOOTH",
"1067 740 OFFCURVE",
"1065 742 OFFCURVE",
"1060 742 CURVE SMOOTH",
"655 742 LINE SMOOTH",
"648 742 OFFCURVE",
"646 740 OFFCURVE",
"646 732 CURVE SMOOTH",
"646 600 LINE",
"596 700 OFFCURVE",
"509 752 OFFCURVE",
"392 752 CURVE SMOOTH",
"204 752 OFFCURVE",
"90 617 OFFCURVE",
"90 367 CURVE SMOOTH",
"90 121 OFFCURVE",
"202 -10 OFFCURVE",
"391 -10 CURVE SMOOTH",
"508 -10 OFFCURVE",
"596 41 OFFCURVE",
"646 140 CURVE",
"646 10 LINE SMOOTH",
"646 2 OFFCURVE",
"648 0 OFFCURVE",
"655 0 CURVE SMOOTH",
"1075 0 LINE SMOOTH",
"1080 0 OFFCURVE",
"1082 2 OFFCURVE",
"1082 7 CURVE SMOOTH",
"1082 33 LINE SMOOTH",
"1082 39 OFFCURVE",
"1080 40 OFFCURVE",
"1074 40 CURVE SMOOTH"
);
},
{
closed = 1;
nodes = (
"227 32 OFFCURVE",
"138 143 OFFCURVE",
"138 369 CURVE SMOOTH",
"138 597 OFFCURVE",
"227 710 OFFCURVE",
"392 710 CURVE SMOOTH",
"556 710 OFFCURVE",
"641 598 OFFCURVE",
"641 369 CURVE SMOOTH",
"641 142 OFFCURVE",
"558 32 OFFCURVE",
"393 32 CURVE SMOOTH"
);
}
);
};
layerId = "91AB5BCA-6A50-42DA-B2F7-8181BF189245";
paths = (
{
closed = 1;
nodes = (
"692 40 LINE",
"692 355 LINE",
"986 355 LINE",
"986 395 LINE",
"692 395 LINE",
"692 702 LINE",
"1067 702 LINE",
"1067 742 LINE",
"646 742 LINE",
"646 600 LINE",
"596 700 OFFCURVE",
"509 752 OFFCURVE",
"392 752 CURVE SMOOTH",
"204 752 OFFCURVE",
"90 617 OFFCURVE",
"90 367 CURVE SMOOTH",
"90 121 OFFCURVE",
"202 -10 OFFCURVE",
"391 -10 CURVE SMOOTH",
"508 -10 OFFCURVE",
"596 41 OFFCURVE",
"646 140 CURVE",
"646 0 LINE",
"1082 0 LINE",
"1082 40 LINE"
);
},
{
closed = 1;
nodes = (
"227 32 OFFCURVE",
"138 143 OFFCURVE",
"138 369 CURVE SMOOTH",
"138 597 OFFCURVE",
"227 710 OFFCURVE",
"392 710 CURVE SMOOTH",
"556 710 OFFCURVE",
"641 598 OFFCURVE",
"641 369 CURVE SMOOTH",
"641 142 OFFCURVE",
"558 32 OFFCURVE",
"393 32 CURVE SMOOTH"
);
}
);
width = 1147;
}
);
leftKerningGroup = O;
leftMetricsKey = O;
rightMetricsKey = E;
unicode = 0152;
},
{
glyphname = P;
lastChange = "2017-03-22 20:09:05 +0000";
layers = (
{
background = {
paths = (
{
closed = 1;
nodes = (
"694 662 OFFCURVE",
"557 742 OFFCURVE",
"393 742 CURVE SMOOTH",
"62 742 LINE SMOOTH",
"50 742 OFFCURVE",
"43 734 OFFCURVE",
"43 719 CURVE SMOOTH",
"43 25 LINE SMOOTH",
"43 8 OFFCURVE",
"49 0 OFFCURVE",
"69 0 CURVE SMOOTH",
"237 0 LINE SMOOTH",
"260 0 OFFCURVE",
"270 8 OFFCURVE",
"270 29 CURVE SMOOTH",
"270 255 LINE SMOOTH",
"270 262 OFFCURVE",
"273 266 OFFCURVE",
"282 266 CURVE SMOOTH",
"419 266 LINE SMOOTH",
"582 266 OFFCURVE",
"694 355 OFFCURVE",
"694 501 CURVE SMOOTH"
);
},
{
closed = 1;
nodes = (
"462 461 OFFCURVE",
"433 426 OFFCURVE",
"385 426 CURVE SMOOTH",
"287 426 LINE SMOOTH",
"274 426 OFFCURVE",
"270 433 OFFCURVE",
"270 448 CURVE SMOOTH",
"270 561 LINE SMOOTH",
"270 576 OFFCURVE",
"276 582 OFFCURVE",
"293 582 CURVE SMOOTH",
"379 582 LINE SMOOTH",
"425 582 OFFCURVE",
"462 552 OFFCURVE",
"462 504 CURVE SMOOTH"
);
}
);
};
layerId = "258ED206-D907-4350-8EBA-CBDDA1C16BF7";
paths = (
{
closed = 1;
nodes = (
"260 0 LINE",
"260 255 LINE",
"379 255 LINE SMOOTH",
"542 255 OFFCURVE",
"644 344 OFFCURVE",
"644 490 CURVE SMOOTH",
"644 651 OFFCURVE",
"517 742 OFFCURVE",
"353 742 CURVE SMOOTH",
"60 742 LINE",
"60 0 LINE"
);
},
{
closed = 1;
nodes = (
"258 594 LINE",
"372 594 LINE SMOOTH",
"417 594 OFFCURVE",
"461 552 OFFCURVE",
"461 500 CURVE SMOOTH",
"461 452 OFFCURVE",
"423 404 OFFCURVE",
"372 404 CURVE SMOOTH",
"258 404 LINE"
);
}
);
width = 654;
},
{
background = {
paths = (
{
closed = 1;
nodes = (
"612 684 OFFCURVE",
"501 742 OFFCURVE",
"346 742 CURVE SMOOTH",
"124 742 LINE SMOOTH",
"117 742 OFFCURVE",
"115 740 OFFCURVE",
"115 732 CURVE SMOOTH",
"115 8 LINE SMOOTH",
"115 3 OFFCURVE",
"118 0 OFFCURVE",
"123 0 CURVE SMOOTH",
"153 0 LINE SMOOTH",
"158 0 OFFCURVE",
"161 3 OFFCURVE",
"161 9 CURVE SMOOTH",
"161 318 LINE SMOOTH",
"161 324 OFFCURVE",
"163 327 OFFCURVE",
"169 327 CURVE SMOOTH",
"352 327 LINE SMOOTH",
"503 327 OFFCURVE",
"612 387 OFFCURVE",
"612 535 CURVE SMOOTH"
);
},
{
closed = 1;
nodes = (
"564 415 OFFCURVE",
"480 367 OFFCURVE",
"352 367 CURVE SMOOTH",
"168 367 LINE SMOOTH",
"163 367 OFFCURVE",
"161 370 OFFCURVE",
"161 377 CURVE SMOOTH",
"161 694 LINE SMOOTH",
"161 700 OFFCURVE",
"164 702 OFFCURVE",
"170 702 CURVE SMOOTH",
"345 702 LINE SMOOTH",
"480 702 OFFCURVE",
"564 662 OFFCURVE",
"564 538 CURVE SMOOTH"
);
}
);
};
layerId = "91AB5BCA-6A50-42DA-B2F7-8181BF189245";
paths = (
{
closed = 1;
nodes = (
"159 0 LINE",
"159 325 LINE",
"350 325 LINE SMOOTH",
"501 325 OFFCURVE",
"610 388 OFFCURVE",
"610 536 CURVE SMOOTH",
"610 685 OFFCURVE",
"499 742 OFFCURVE",
"344 742 CURVE SMOOTH",
"115 742 LINE",
"115 0 LINE"
);
},
{
closed = 1;
nodes = (
"159 698 LINE",
"343 698 LINE SMOOTH",
"478 698 OFFCURVE",
"565 663 OFFCURVE",
"565 539 CURVE SMOOTH",
"565 416 OFFCURVE",
"478 369 OFFCURVE",
"350 369 CURVE SMOOTH",
"159 369 LINE"
);
}
);
width = 640;
}
);
rightKerningGroup = P;
unicode = 0050;
},
{
glyphname = Thorn;
lastChange = "2017-03-13 19:23:56 +0000";
layers = (
{
background = {
paths = (
{
closed = 1;
nodes = (
"716 530 OFFCURVE",
"579 608 OFFCURVE",
"415 608 CURVE SMOOTH",
"289 608 LINE SMOOTH",
"282 608 OFFCURVE",
"279 612 OFFCURVE",
"279 620 CURVE SMOOTH",
"279 721 LINE SMOOTH",
"279 734 OFFCURVE",
"273 742 OFFCURVE",
"261 742 CURVE SMOOTH",
"71 742 LINE SMOOTH",
"60 742 OFFCURVE",
"52 734 OFFCURVE",
"52 719 CURVE SMOOTH",
"52 25 LINE SMOOTH",
"52 8 OFFCURVE",
"58 0 OFFCURVE",
"78 0 CURVE SMOOTH",
"246 0 LINE SMOOTH",
"269 0 OFFCURVE",
"279 8 OFFCURVE",
"279 29 CURVE SMOOTH",
"279 131 LINE SMOOTH",
"279 138 OFFCURVE",
"282 142 OFFCURVE",
"291 142 CURVE SMOOTH",
"441 142 LINE SMOOTH",
"604 142 OFFCURVE",
"716 229 OFFCURVE",
"716 372 CURVE SMOOTH"
);
},
{
closed = 1;
nodes = (
"484 335 OFFCURVE",
"455 302 OFFCURVE",
"407 302 CURVE SMOOTH",
"296 302 LINE SMOOTH",
"283 302 OFFCURVE",
"279 309 OFFCURVE",
"279 324 CURVE SMOOTH",
"279 427 LINE SMOOTH",
"279 442 OFFCURVE",
"285 448 OFFCURVE",
"302 448 CURVE SMOOTH",
"401 448 LINE SMOOTH",
"447 448 OFFCURVE",
"484 420 OFFCURVE",
"484 375 CURVE SMOOTH"
);
}
);
};
layerId = "258ED206-D907-4350-8EBA-CBDDA1C16BF7";
paths = (
{
closed = 1;
nodes = (
"716 530 OFFCURVE",
"579 608 OFFCURVE",
"415 608 CURVE SMOOTH",
"279 608 LINE",
"279 742 LINE",
"52 742 LINE",
"52 0 LINE",
"279 0 LINE",
"279 142 LINE",
"441 142 LINE SMOOTH",
"604 142 OFFCURVE",
"716 229 OFFCURVE",
"716 372 CURVE SMOOTH"
);
},
{
closed = 1;
nodes = (
"484 335 OFFCURVE",
"455 302 OFFCURVE",
"407 302 CURVE SMOOTH",
"279 302 LINE",
"279 448 LINE",
"401 448 LINE SMOOTH",
"447 448 OFFCURVE",
"484 420 OFFCURVE",
"484 375 CURVE SMOOTH"
);
}
);
width = 726;
},
{
background = {
paths = (
{
closed = 1;
nodes = (
"627 522 OFFCURVE",
"517 579 OFFCURVE",
"361 579 CURVE SMOOTH",
"182 579 LINE SMOOTH",
"178 579 OFFCURVE",
"176 581 OFFCURVE",
"176 584 CURVE SMOOTH",
"176 732 LINE SMOOTH",
"176 740 OFFCURVE",
"174 742 OFFCURVE",
"167 742 CURVE SMOOTH",
"139 742 LINE SMOOTH",
"132 742 OFFCURVE",
"130 740 OFFCURVE",
"130 732 CURVE SMOOTH",
"130 8 LINE SMOOTH",
"130 3 OFFCURVE",
"133 0 OFFCURVE",
"138 0 CURVE SMOOTH",
"168 0 LINE SMOOTH",
"173 0 OFFCURVE",
"176 3 OFFCURVE",
"176 9 CURVE SMOOTH",
"176 173 LINE SMOOTH",
"176 179 OFFCURVE",
"178 182 OFFCURVE",
"184 182 CURVE SMOOTH",
"367 182 LINE SMOOTH",
"517 182 OFFCURVE",
"627 239 OFFCURVE",
"627 390 CURVE SMOOTH"
);
},
{
closed = 1;
nodes = (
"579 268 OFFCURVE",
"495 222 OFFCURVE",
"367 222 CURVE SMOOTH",
"183 222 LINE SMOOTH",
"178 222 OFFCURVE",
"176 225 OFFCURVE",
"176 232 CURVE SMOOTH",
"176 531 LINE SMOOTH",
"176 537 OFFCURVE",
"179 539 OFFCURVE",
"185 539 CURVE SMOOTH",
"360 539 LINE SMOOTH",
"495 539 OFFCURVE",
"579 501 OFFCURVE",
"579 390 CURVE SMOOTH"
);
}
);
};
layerId = "91AB5BCA-6A50-42DA-B2F7-8181BF189245";
paths = (
{
closed = 1;
nodes = (
"627 522 OFFCURVE",
"517 579 OFFCURVE",
"361 579 CURVE SMOOTH",
"176 579 LINE",
"176 742 LINE",
"130 742 LINE",
"130 0 LINE",
"176 0 LINE",
"176 182 LINE",
"367 182 LINE SMOOTH",
"517 182 OFFCURVE",
"627 239 OFFCURVE",
"627 390 CURVE SMOOTH"
);
},
{
closed = 1;
nodes = (
"579 268 OFFCURVE",
"495 222 OFFCURVE",
"367 222 CURVE SMOOTH",
"176 222 LINE",
"176 539 LINE",
"360 539 LINE SMOOTH",
"495 539 OFFCURVE",
"579 501 OFFCURVE",
"579 390 CURVE SMOOTH"
);
}
);
width = 667;
}
);
leftMetricsKey = P;
rightMetricsKey = P;
unicode = 00DE;
},
{
glyphname = Q;
lastChange = "2017-03-16 16:19:40 +0000";
layers = (
{
background = {
paths = (
{
closed = 1;
nodes = (
"20 138 OFFCURVE",
"159 -10 OFFCURVE",
"380 -10 CURVE SMOOTH",
"406 -10 OFFCURVE",
"427 -9 OFFCURVE",
"451 -6 CURVE SMOOTH",
"458 -5 OFFCURVE",
"463 -6 OFFCURVE",
"466 -10 CURVE SMOOTH",
"523 -84 OFFCURVE",
"595 -128 OFFCURVE",
"695 -128 CURVE SMOOTH",
"727 -128 OFFCURVE",
"739 -122 OFFCURVE",
"739 -97 CURVE SMOOTH",
"739 13 LINE SMOOTH",
"739 20 OFFCURVE",
"736 28 OFFCURVE",
"722 30 CURVE SMOOTH",
"679 36 OFFCURVE",
"632 61 OFFCURVE",
"632 78 CURVE SMOOTH",
"632 82 OFFCURVE",
"632 84 OFFCURVE",
"634 86 CURVE",
"701 152 OFFCURVE",
"739 249 OFFCURVE",
"739 369 CURVE SMOOTH",
"739 601 OFFCURVE",
"596 752 OFFCURVE",
"380 752 CURVE SMOOTH",
"163 752 OFFCURVE",
"20 601 OFFCURVE",
"20 369 CURVE SMOOTH"
);
},
{
closed = 1;
nodes = (
"258 532 OFFCURVE",
"293 598 OFFCURVE",
"380 598 CURVE SMOOTH",
"466 598 OFFCURVE",
"501 532 OFFCURVE",
"501 367 CURVE SMOOTH",
"501 206 OFFCURVE",
"468 146 OFFCURVE",
"380 146 CURVE SMOOTH",
"291 146 OFFCURVE",
"258 206 OFFCURVE",
"258 367 CURVE SMOOTH"
);
}
);
};
layerId = "258ED206-D907-4350-8EBA-CBDDA1C16BF7";
paths = (
{
closed = 1;
nodes = (
"20 138 OFFCURVE",
"159 -10 OFFCURVE",
"380 -10 CURVE SMOOTH",
"405 -10 OFFCURVE",
"426 -9 OFFCURVE",
"462 -5 CURVE",
"550 -116 OFFCURVE",
"620 -128 OFFCURVE",
"739 -128 CURVE",
"739 28 LINE",
"688 28 OFFCURVE",
"642 53 OFFCURVE",
"634 82 CURVE",
"701 154 OFFCURVE",
"739 249 OFFCURVE",
"739 369 CURVE SMOOTH",
"739 601 OFFCURVE",
"596 752 OFFCURVE",
"380 752 CURVE SMOOTH",
"163 752 OFFCURVE",
"20 601 OFFCURVE",
"20 369 CURVE SMOOTH"
);
},
{
closed = 1;
nodes = (
"238 532 OFFCURVE",
"293 592 OFFCURVE",
"380 592 CURVE SMOOTH",
"466 592 OFFCURVE",
"521 532 OFFCURVE",
"521 367 CURVE SMOOTH",
"521 206 OFFCURVE",
"468 150 OFFCURVE",
"380 150 CURVE SMOOTH",
"291 150 OFFCURVE",
"238 206 OFFCURVE",
"238 367 CURVE SMOOTH"
);
}
);
width = 759;
},
{
background = {
paths = (
{
closed = 1;
nodes = (
"60 116 OFFCURVE",
"177 -10 OFFCURVE",
"361 -10 CURVE SMOOTH",
"387 -10 OFFCURVE",
"417 -7 OFFCURVE",
"442 -1 CURVE SMOOTH",
"449 1 OFFCURVE",
"454 -1 OFFCURVE",
"457 -5 CURVE SMOOTH",
"522 -96 OFFCURVE",
"588 -122 OFFCURVE",
"632 -122 CURVE SMOOTH",
"646 -122 OFFCURVE",
"652 -120 OFFCURVE",
"652 -109 CURVE SMOOTH",
"652 -87 LINE SMOOTH",
"652 -84 OFFCURVE",
"651 -81 OFFCURVE",
"645 -80 CURVE SMOOTH",
"570 -70 OFFCURVE",
"503 -11 OFFCURVE",
"503 16 CURVE SMOOTH",
"503 20 OFFCURVE",
"504 22 OFFCURVE",
"509 25 CURVE SMOOTH",
"606 83 OFFCURVE",
"662 189 OFFCURVE",
"662 369 CURVE SMOOTH",
"662 620 OFFCURVE",
"549 752 OFFCURVE",
"361 752 CURVE SMOOTH",
"173 752 OFFCURVE",
"60 620 OFFCURVE",
"60 369 CURVE SMOOTH"
);
},
{
closed = 1;
nodes = (
"108 592 OFFCURVE",
"194 710 OFFCURVE",
"361 710 CURVE SMOOTH",
"528 710 OFFCURVE",
"614 592 OFFCURVE",
"614 369 CURVE SMOOTH",
"614 141 OFFCURVE",
"525 32 OFFCURVE",
"361 32 CURVE SMOOTH",
"197 32 OFFCURVE",
"108 141 OFFCURVE",
"108 367 CURVE SMOOTH"
);
}
);
};
layerId = "91AB5BCA-6A50-42DA-B2F7-8181BF189245";
paths = (
{
closed = 1;
nodes = (
"60 116 OFFCURVE",
"177 -10 OFFCURVE",
"361 -10 CURVE SMOOTH",
"390 -10 OFFCURVE",
"419 -6 OFFCURVE",
"451 1 CURVE",
"504 -101 OFFCURVE",
"603 -122 OFFCURVE",
"652 -122 CURVE",
"652 -81 LINE",
"587 -78 OFFCURVE",
"529 -51 OFFCURVE",
"495 18 CURVE",
"615 81 OFFCURVE",
"662 199 OFFCURVE",
"662 369 CURVE SMOOTH",
"662 620 OFFCURVE",
"549 752 OFFCURVE",
"361 752 CURVE SMOOTH",
"173 752 OFFCURVE",
"60 620 OFFCURVE",
"60 369 CURVE SMOOTH"
);
},
{
closed = 1;
nodes = (
"105 592 OFFCURVE",
"194 710 OFFCURVE",
"361 710 CURVE SMOOTH",
"528 710 OFFCURVE",
"617 592 OFFCURVE",
"617 369 CURVE SMOOTH",
"617 141 OFFCURVE",
"525 32 OFFCURVE",
"361 32 CURVE SMOOTH",
"197 32 OFFCURVE",
"105 141 OFFCURVE",
"105 367 CURVE SMOOTH"
);
}
);
width = 722;
}
);
leftKerningGroup = O;
rightKerningGroup = O;
unicode = 0051;
},
{
glyphname = R;
lastChange = "2017-03-16 16:21:36 +0000";
layers = (
{
anchors = (
{
name = bottom;
position = "{359, 0}";
},
{
name = top;
position = "{349, 742}";
}
);
background = {
anchors = (
{
name = bottom;
position = "{359, 0}";
},
{
name = top;
position = "{349, 742}";
}
);
paths = (
{
closed = 1;
nodes = (
"566 312 LINE SMOOTH",
"563 320 OFFCURVE",
"563 328 OFFCURVE",
"570 331 CURVE SMOOTH",
"646 360 OFFCURVE",
"701 436 OFFCURVE",
"701 530 CURVE SMOOTH",
"701 664 OFFCURVE",
"589 742 OFFCURVE",
"396 742 CURVE SMOOTH",
"62 742 LINE SMOOTH",
"50 742 OFFCURVE",
"43 734 OFFCURVE",
"43 719 CURVE SMOOTH",
"43 25 LINE SMOOTH",
"43 8 OFFCURVE",
"49 0 OFFCURVE",
"69 0 CURVE SMOOTH",
"237 0 LINE SMOOTH",
"260 0 OFFCURVE",
"270 8 OFFCURVE",
"270 29 CURVE SMOOTH",
"270 284 LINE SMOOTH",
"270 287 OFFCURVE",
"273 295 OFFCURVE",
"282 295 CURVE SMOOTH",
"328 295 LINE SMOOTH",
"347 295 OFFCURVE",
"355 290 OFFCURVE",
"359 279 CURVE SMOOTH",
"453 21 LINE SMOOTH",
"457 7 OFFCURVE",
"466 0 OFFCURVE",
"480 0 CURVE SMOOTH",
"674 0 LINE SMOOTH",
"690 0 OFFCURVE",
"699 15 OFFCURVE",
"692 32 CURVE SMOOTH"
);
},
{
closed = 1;
nodes = (
"287 444 LINE SMOOTH",
"274 444 OFFCURVE",
"270 450 OFFCURVE",
"270 465 CURVE SMOOTH",
"270 574 LINE SMOOTH",
"270 589 OFFCURVE",
"276 594 OFFCURVE",
"293 594 CURVE SMOOTH",
"381 594 LINE SMOOTH",
"426 594 OFFCURVE",
"466 567 OFFCURVE",
"466 516 CURVE SMOOTH",
"466 473 OFFCURVE",
"438 444 OFFCURVE",
"387 444 CURVE SMOOTH"
);
}
);
};
layerId = "258ED206-D907-4350-8EBA-CBDDA1C16BF7";
paths = (
{
closed = 1;
nodes = (
"546 287 LINE",
"615 329 OFFCURVE",
"664 389 OFFCURVE",
"664 503 CURVE SMOOTH",
"664 637 OFFCURVE",
"589 742 OFFCURVE",
"396 742 CURVE SMOOTH",
"60 742 LINE",
"60 0 LINE",
"260 0 LINE",
"260 255 LINE",
"364 255 LINE",
"472 0 LINE",
"676 0 LINE"
);
},
{
closed = 1;
nodes = (
"260 404 LINE",
"260 594 LINE",
"374 594 LINE SMOOTH",
"419 594 OFFCURVE",
"463 552 OFFCURVE",
"463 500 CURVE SMOOTH",
"463 452 OFFCURVE",
"425 404 OFFCURVE",
"374 404 CURVE SMOOTH"
);
}
);
width = 696;
},
{
anchors = (
{
name = bottom;
position = "{336, 0}";
},
{
name = top;
position = "{329, 742}";
}
);
background = {
anchors = (
{
name = bottom;
position = "{336, 0}";
},
{
name = top;
position = "{329, 742}";
}
);
paths = (
{
closed = 1;
nodes = (
"448 359 LINE",
"447 362 OFFCURVE",
"448 365 OFFCURVE",
"452 366 CURVE SMOOTH",
"521 384 OFFCURVE",
"604 435 OFFCURVE",
"604 558 CURVE SMOOTH",
"604 680 OFFCURVE",
"520 742 OFFCURVE",
"376 742 CURVE SMOOTH",
"118 742 LINE SMOOTH",
"111 742 OFFCURVE",
"109 740 OFFCURVE",
"109 732 CURVE SMOOTH",
"109 9 LINE SMOOTH",
"109 3 OFFCURVE",
"111 0 OFFCURVE",
"119 0 CURVE SMOOTH",
"145 0 LINE SMOOTH",
"153 0 OFFCURVE",
"155 3 OFFCURVE",
"155 11 CURVE SMOOTH",
"155 344 LINE SMOOTH",
"155 351 OFFCURVE",
"158 355 OFFCURVE",
"167 355 CURVE SMOOTH",
"383 355 LINE SMOOTH",
"396 355 OFFCURVE",
"401 352 OFFCURVE",
"404 345 CURVE SMOOTH",
"546 9 LINE SMOOTH",
"549 3 OFFCURVE",
"551 0 OFFCURVE",
"558 0 CURVE SMOOTH",
"586 0 LINE SMOOTH",
"593 0 OFFCURVE",
"597 7 OFFCURVE",
"594 14 CURVE SMOOTH"
);
},
{
closed = 1;
nodes = (
"162 395 LINE SMOOTH",
"157 395 OFFCURVE",
"155 398 OFFCURVE",
"155 404 CURVE SMOOTH",
"155 694 LINE SMOOTH",
"155 700 OFFCURVE",
"158 702 OFFCURVE",
"166 702 CURVE SMOOTH",
"375 702 LINE SMOOTH",
"496 702 OFFCURVE",
"556 653 OFFCURVE",
"556 551 CURVE SMOOTH",
"556 439 OFFCURVE",
"484 395 OFFCURVE",
"341 395 CURVE SMOOTH"
);
}
);
};
layerId = "91AB5BCA-6A50-42DA-B2F7-8181BF189245";
paths = (
{
closed = 1;
nodes = (
"446 362 LINE",
"518 381 OFFCURVE",
"604 434 OFFCURVE",
"604 558 CURVE SMOOTH",
"604 680 OFFCURVE",
"520 742 OFFCURVE",
"376 742 CURVE SMOOTH",
"115 742 LINE",
"115 0 LINE",
"155 0 LINE",
"155 353 LINE",
"404 353 LINE",
"554 0 LINE",
"600 0 LINE"
);
},
{
closed = 1;
nodes = (
"155 395 LINE",
"155 700 LINE",
"375 700 LINE SMOOTH",
"496 700 OFFCURVE",
"561 656 OFFCURVE",
"561 551 CURVE SMOOTH",
"561 439 OFFCURVE",
"484 395 OFFCURVE",
"341 395 CURVE SMOOTH"
);
}
);
width = 669;
}
);
leftMetricsKey = N;
rightKerningGroup = R;
unicode = 0052;
},
{
glyphname = S;
lastChange = "2017-03-16 16:22:40 +0000";
layers = (
{
anchors = (
{
name = bottom;
position = "{319, 0}";
},
{
name = top;
position = "{319, 742}";
}
);
background = {
anchors = (
{
name = bottom;
position = "{319, 0}";
},
{
name = top;
position = "{319, 742}";
}
);
paths = (
{
closed = 1;
nodes = (
"472 529 OFFCURVE",
"478 528 OFFCURVE",
"488 535 CURVE SMOOTH",
"597 614 LINE SMOOTH",
"610 624 OFFCURVE",
"603 635 OFFCURVE",
"597 644 CURVE SMOOTH",
"551 709 OFFCURVE",
"438 752 OFFCURVE",
"319 752 CURVE SMOOTH",
"130 752 OFFCURVE",
"11 645 OFFCURVE",
"11 515 CURVE SMOOTH",
"11 410 OFFCURVE",
"87 323 OFFCURVE",
"207 293 CURVE SMOOTH",
"359 256 LINE SMOOTH",
"402 246 OFFCURVE",
"422 226 OFFCURVE",
"422 202 CURVE SMOOTH",
"422 165 OFFCURVE",
"374 144 OFFCURVE",
"301 144 CURVE SMOOTH",
"222 144 OFFCURVE",
"183 167 OFFCURVE",
"139 224 CURVE SMOOTH",
"131 234 OFFCURVE",
"119 238 OFFCURVE",
"101 226 CURVE SMOOTH",
"-2 155 LINE SMOOTH",
"-16 144 OFFCURVE",
"-16 136 OFFCURVE",
"-8 122 CURVE SMOOTH",
"39 43 OFFCURVE",
"172 -10 OFFCURVE",
"318 -10 CURVE SMOOTH",
"515 -10 OFFCURVE",
"638 86 OFFCURVE",
"638 234 CURVE SMOOTH",
"638 337 OFFCURVE",
"580 421 OFFCURVE",
"455 452 CURVE SMOOTH",
"289 495 LINE SMOOTH",
"239 507 OFFCURVE",
"225 528 OFFCURVE",
"225 546 CURVE SMOOTH",
"225 571 OFFCURVE",
"252 597 OFFCURVE",
"327 597 CURVE SMOOTH",
"405 597 OFFCURVE",
"434 569 OFFCURVE",
"458 543 CURVE SMOOTH"
);
}
);
};
guideLines = (
{
angle = 214.3236;
position = "{599, 426}";
}
);
layerId = "258ED206-D907-4350-8EBA-CBDDA1C16BF7";
paths = (
{
closed = 1;
nodes = (
"515 -10 OFFCURVE",
"638 86 OFFCURVE",
"638 234 CURVE SMOOTH",
"638 337 OFFCURVE",
"580 410 OFFCURVE",
"455 442 CURVE SMOOTH",
"289 485 LINE SMOOTH",
"225 502 OFFCURVE",
"225 528 OFFCURVE",
"225 546 CURVE SMOOTH",
"225 571 OFFCURVE",
"252 597 OFFCURVE",
"327 597 CURVE SMOOTH",
"415 597 OFFCURVE",
"442 562 OFFCURVE",
"474 525 CURVE",
"611 619 LINE",
"563 707 OFFCURVE",
"444 752 OFFCURVE",
"319 752 CURVE SMOOTH",
"130 752 OFFCURVE",
"11 645 OFFCURVE",
"11 515 CURVE SMOOTH",
"11 410 OFFCURVE",
"91 333 OFFCURVE",
"207 303 CURVE SMOOTH",
"372 261 LINE SMOOTH",
"418 249 OFFCURVE",
"423 227 OFFCURVE",
"423 206 CURVE SMOOTH",
"423 165 OFFCURVE",
"364 154 OFFCURVE",
"301 154 CURVE SMOOTH",
"203 154 OFFCURVE",
"163 182 OFFCURVE",
"117 237 CURVE",
"-20 143 LINE",
"29 51 OFFCURVE",
"167 -10 OFFCURVE",
"318 -10 CURVE SMOOTH"
);
}
);
width = 648;
},
{
anchors = (
{
name = bottom;
position = "{309, 0}";
},
{
name = top;
position = "{315, 742}";
}
);
background = {
anchors = (
{
name = bottom;
position = "{319, 0}";
},
{
name = top;
position = "{315, 742}";
}
);
paths = (
{
closed = 1;
nodes = (
"502 620 OFFCURVE",
"504 618 OFFCURVE",
"509 622 CURVE SMOOTH",
"531 642 LINE SMOOTH",
"537 647 OFFCURVE",
"535 652 OFFCURVE",
"531 656 CURVE SMOOTH",
"474 716 OFFCURVE",
"407 752 OFFCURVE",
"314 752 CURVE SMOOTH",
"177 752 OFFCURVE",
"82 681 OFFCURVE",
"82 556 CURVE SMOOTH",
"82 492 OFFCURVE",
"112 421 OFFCURVE",
"220 380 CURVE SMOOTH",
"371 322 LINE SMOOTH",
"480 280 OFFCURVE",
"503 239 OFFCURVE",
"503 180 CURVE SMOOTH",
"503 73 OFFCURVE",
"424 32 OFFCURVE",
"305 32 CURVE SMOOTH",
"198 32 OFFCURVE",
"150 69 OFFCURVE",
"94 141 CURVE SMOOTH",
"89 147 OFFCURVE",
"84 148 OFFCURVE",
"74 141 CURVE SMOOTH",
"63 133 LINE SMOOTH",
"53 126 OFFCURVE",
"52 120 OFFCURVE",
"57 113 CURVE SMOOTH",
"116 29 OFFCURVE",
"194 -10 OFFCURVE",
"305 -10 CURVE SMOOTH",
"456 -10 OFFCURVE",
"549 60 OFFCURVE",
"549 182 CURVE SMOOTH",
"549 266 OFFCURVE",
"506 326 OFFCURVE",
"388 369 CURVE SMOOTH",
"250 419 LINE SMOOTH",
"143 458 OFFCURVE",
"128 518 OFFCURVE",
"128 557 CURVE SMOOTH",
"128 656 OFFCURVE",
"202 710 OFFCURVE",
"311 710 CURVE SMOOTH",
"395 710 OFFCURVE",
"456 674 OFFCURVE",
"496 627 CURVE SMOOTH"
);
}
);
};
layerId = "91AB5BCA-6A50-42DA-B2F7-8181BF189245";
paths = (
{
closed = 1;
nodes = (
"456 -10 OFFCURVE",
"549 60 OFFCURVE",
"549 182 CURVE SMOOTH",
"549 266 OFFCURVE",
"506 326 OFFCURVE",
"388 369 CURVE SMOOTH",
"250 419 LINE SMOOTH",
"143 458 OFFCURVE",
"124 518 OFFCURVE",
"124 557 CURVE SMOOTH",
"124 656 OFFCURVE",
"202 708 OFFCURVE",
"311 708 CURVE SMOOTH",
"399 708 OFFCURVE",
"462 670 OFFCURVE",
"504 618 CURVE",
"538 648 LINE",
"479 713 OFFCURVE",
"410 752 OFFCURVE",
"314 752 CURVE SMOOTH",
"177 752 OFFCURVE",
"82 681 OFFCURVE",
"82 556 CURVE SMOOTH",
"82 492 OFFCURVE",
"112 428 OFFCURVE",
"220 387 CURVE SMOOTH",
"371 329 LINE SMOOTH",
"480 287 OFFCURVE",
"506 239 OFFCURVE",
"506 180 CURVE SMOOTH",
"506 73 OFFCURVE",
"424 34 OFFCURVE",
"305 34 CURVE SMOOTH",
"194 34 OFFCURVE",
"145 72 OFFCURVE",
"87 150 CURVE",
"50 124 LINE",
"110 32 OFFCURVE",
"191 -10 OFFCURVE",
"305 -10 CURVE SMOOTH"
);
}
);
width = 609;
}
);
leftKerningGroup = S;
rightKerningGroup = S;
unicode = 0053;
},
{
glyphname = Schwa;
lastChange = "2017-03-13 19:23:52 +0000";
layers = (
{
background = {
paths = (
{
closed = 1;
nodes = (
"496 431 OFFCURVE",
"489 425 OFFCURVE",
"476 425 CURVE SMOOTH",
"43 425 LINE SMOOTH",
"21 425 OFFCURVE",
"20 414 OFFCURVE",
"20 392 CURVE SMOOTH",
"20 136 OFFCURVE",
"141 -10 OFFCURVE",
"374 -10 CURVE SMOOTH",
"567 -10 OFFCURVE",
"736 158 OFFCURVE",
"736 380 CURVE SMOOTH",
"736 599 OFFCURVE",
"599 752 OFFCURVE",
"377 752 CURVE SMOOTH",
"231 752 OFFCURVE",
"125 689 OFFCURVE",
"63 567 CURVE SMOOTH",
"55 551 OFFCURVE",
"56 542 OFFCURVE",
"68 536 CURVE SMOOTH",
"206 468 LINE SMOOTH",
"223 459 OFFCURVE",
"229 462 OFFCURVE",
"233 469 CURVE SMOOTH",
"279 544 OFFCURVE",
"317 578 OFFCURVE",
"379 578 CURVE SMOOTH",
"477 578 OFFCURVE",
"496 506 OFFCURVE",
"496 447 CURVE SMOOTH"
);
},
{
closed = 1;
nodes = (
"482 192 OFFCURVE",
"453 146 OFFCURVE",
"372 146 CURVE SMOOTH",
"304 146 OFFCURVE",
"263 201 OFFCURVE",
"263 267 CURVE SMOOTH",
"263 282 OFFCURVE",
"268 285 OFFCURVE",
"285 285 CURVE SMOOTH",
"494 284 LINE"
);
}
);
};
layerId = "258ED206-D907-4350-8EBA-CBDDA1C16BF7";
paths = (
{
closed = 1;
nodes = (
"496 431 OFFCURVE",
"489 425 OFFCURVE",
"476 425 CURVE SMOOTH",
"43 425 LINE SMOOTH",
"21 425 OFFCURVE",
"20 414 OFFCURVE",
"20 392 CURVE SMOOTH",
"20 136 OFFCURVE",
"141 -10 OFFCURVE",
"374 -10 CURVE SMOOTH",
"567 -10 OFFCURVE",
"736 158 OFFCURVE",
"736 380 CURVE SMOOTH",
"736 599 OFFCURVE",
"599 752 OFFCURVE",
"377 752 CURVE SMOOTH",
"231 752 OFFCURVE",
"125 689 OFFCURVE",
"63 567 CURVE SMOOTH",
"55 551 OFFCURVE",
"56 542 OFFCURVE",
"68 536 CURVE SMOOTH",
"206 468 LINE SMOOTH",
"223 459 OFFCURVE",
"229 462 OFFCURVE",
"233 469 CURVE SMOOTH",
"279 544 OFFCURVE",
"317 578 OFFCURVE",
"379 578 CURVE SMOOTH",
"477 578 OFFCURVE",
"496 506 OFFCURVE",
"496 447 CURVE SMOOTH"
);
},
{
closed = 1;
nodes = (
"482 192 OFFCURVE",
"453 146 OFFCURVE",
"372 146 CURVE SMOOTH",
"304 146 OFFCURVE",
"263 201 OFFCURVE",
"263 267 CURVE SMOOTH",
"263 282 OFFCURVE",
"268 285 OFFCURVE",
"285 285 CURVE SMOOTH",
"494 284 LINE"
);
}
);
width = 767;
},
{
background = {
paths = (
{
closed = 1;
nodes = (
"639 381 OFFCURVE",
"638 380 OFFCURVE",
"633 380 CURVE SMOOTH",
"98 380 LINE SMOOTH",
"90 380 OFFCURVE",
"90 375 OFFCURVE",
"90 369 CURVE SMOOTH",
"90 174 OFFCURVE",
"156 -10 OFFCURVE",
"391 -10 CURVE SMOOTH",
"620 -10 OFFCURVE",
"691 180 OFFCURVE",
"691 366 CURVE SMOOTH",
"691 531 OFFCURVE",
"641 752 OFFCURVE",
"391 752 CURVE SMOOTH",
"163 752 OFFCURVE",
"119 560 OFFCURVE",
"104 522 CURVE SMOOTH",
"102 517 OFFCURVE",
"101 514 OFFCURVE",
"105 513 CURVE SMOOTH",
"143 500 LINE SMOOTH",
"147 499 OFFCURVE",
"149 498 OFFCURVE",
"150 500 CURVE SMOOTH",
"164 531 OFFCURVE",
"182 709 OFFCURVE",
"391 709 CURVE SMOOTH",
"609 709 OFFCURVE",
"639 504 OFFCURVE",
"639 386 CURVE SMOOTH"
);
},
{
closed = 1;
nodes = (
"636 191 OFFCURVE",
"587 33 OFFCURVE",
"391 33 CURVE SMOOTH",
"194 33 OFFCURVE",
"142 192 OFFCURVE",
"142 332 CURVE SMOOTH",
"142 336 OFFCURVE",
"144 338 OFFCURVE",
"150 338 CURVE SMOOTH",
"639 338 LINE"
);
}
);
};
layerId = "91AB5BCA-6A50-42DA-B2F7-8181BF189245";
paths = (
{
closed = 1;
nodes = (
"639 381 OFFCURVE",
"638 380 OFFCURVE",
"633 380 CURVE SMOOTH",
"98 380 LINE SMOOTH",
"90 380 OFFCURVE",
"90 375 OFFCURVE",
"90 369 CURVE SMOOTH",
"90 174 OFFCURVE",
"156 -10 OFFCURVE",
"391 -10 CURVE SMOOTH",
"620 -10 OFFCURVE",
"691 180 OFFCURVE",
"691 366 CURVE SMOOTH",
"691 531 OFFCURVE",
"641 752 OFFCURVE",
"391 752 CURVE SMOOTH",
"163 752 OFFCURVE",
"119 560 OFFCURVE",
"104 522 CURVE SMOOTH",
"102 517 OFFCURVE",
"101 514 OFFCURVE",
"105 513 CURVE SMOOTH",
"143 500 LINE SMOOTH",
"147 499 OFFCURVE",
"149 498 OFFCURVE",
"150 500 CURVE SMOOTH",
"164 531 OFFCURVE",
"182 709 OFFCURVE",
"391 709 CURVE SMOOTH",
"609 709 OFFCURVE",
"639 504 OFFCURVE",
"639 386 CURVE SMOOTH"
);
},
{
closed = 1;
nodes = (
"636 191 OFFCURVE",
"587 33 OFFCURVE",
"391 33 CURVE SMOOTH",
"194 33 OFFCURVE",
"142 192 OFFCURVE",
"142 332 CURVE SMOOTH",
"142 336 OFFCURVE",
"144 338 OFFCURVE",
"150 338 CURVE SMOOTH",
"639 338 LINE"
);
}
);
width = 781;
}
);
leftMetricsKey = O;
rightMetricsKey = O;
unicode = 018F;
},
{
glyphname = T;
lastChange = "2017-03-23 16:33:28 +0000";
layers = (
{
anchors = (
{
name = bottom;
position = "{325, 0}";
},
{
name = top;
position = "{325, 742}";
}
);
background = {
anchors = (
{
name = bottom;
position = "{329, 0}";
},
{
name = top;
position = "{329, 742}";
}
);
paths = (
{
closed = 1;
nodes = (
"5 586 OFFCURVE",
"14 581 OFFCURVE",
"28 581 CURVE SMOOTH",
"204 581 LINE SMOOTH",
"212 581 OFFCURVE",
"215 577 OFFCURVE",
"215 567 CURVE SMOOTH",
"215 20 LINE SMOOTH",
"215 7 OFFCURVE",
"222 0 OFFCURVE",
"233 0 CURVE SMOOTH",
"423 0 LINE SMOOTH",
"434 0 OFFCURVE",
"442 7 OFFCURVE",
"442 22 CURVE SMOOTH",
"442 571 LINE SMOOTH",
"442 578 OFFCURVE",
"446 581 OFFCURVE",
"454 581 CURVE SMOOTH",
"631 581 LINE SMOOTH",
"644 581 OFFCURVE",
"653 586 OFFCURVE",
"653 600 CURVE SMOOTH",
"653 719 LINE SMOOTH",
"653 732 OFFCURVE",
"645 742 OFFCURVE",
"628 742 CURVE SMOOTH",
"30 742 LINE SMOOTH",
"13 742 OFFCURVE",
"5 732 OFFCURVE",
"5 719 CURVE SMOOTH",
"5 600 LINE SMOOTH"
);
}
);
};
layerId = "258ED206-D907-4350-8EBA-CBDDA1C16BF7";
paths = (
{
closed = 1;
nodes = (
"216 566 LINE",
"216 0 LINE",
"416 0 LINE",
"416 566 LINE",
"628 566 LINE",
"628 742 LINE",
"5 742 LINE",
"5 566 LINE"
);
}
);
width = 633;
},
{
anchors = (
{
name = bottom;
position = "{291, 0}";
},
{
name = top;
position = "{291, 742}";
}
);
background = {
anchors = (
{
name = bottom;
position = "{291, 0}";
},
{
name = top;
position = "{291, 742}";
}
);
paths = (
{
closed = 1;
nodes = (
"15 703 OFFCURVE",
"17 702 OFFCURVE",
"23 702 CURVE SMOOTH",
"257 702 LINE SMOOTH",
"265 702 OFFCURVE",
"267 701 OFFCURVE",
"267 693 CURVE SMOOTH",
"267 10 LINE SMOOTH",
"267 2 OFFCURVE",
"269 0 OFFCURVE",
"277 0 CURVE SMOOTH",
"304 0 LINE SMOOTH",
"311 0 OFFCURVE",
"313 2 OFFCURVE",
"313 10 CURVE SMOOTH",
"313 693 LINE SMOOTH",
"313 701 OFFCURVE",
"315 702 OFFCURVE",
"323 702 CURVE SMOOTH",
"536 702 LINE SMOOTH",
"542 702 OFFCURVE",
"544 703 OFFCURVE",
"544 709 CURVE SMOOTH",
"544 735 LINE SMOOTH",
"544 740 OFFCURVE",
"542 742 OFFCURVE",
"537 742 CURVE SMOOTH",
"22 742 LINE SMOOTH",
"17 742 OFFCURVE",
"15 740 OFFCURVE",
"15 735 CURVE SMOOTH",
"15 709 LINE SMOOTH"
);
}
);
};
layerId = "91AB5BCA-6A50-42DA-B2F7-8181BF189245";
paths = (
{
closed = 1;
nodes = (
"270 700 LINE",
"270 0 LINE",
"310 0 LINE",
"310 700 LINE",
"544 700 LINE",
"544 742 LINE",
"15 742 LINE",
"15 700 LINE"
);
}
);
width = 559;
}
);
leftKerningGroup = T;
rightKerningGroup = T;
unicode = 0054;
},
{
glyphname = Tbar;
lastChange = "2017-03-13 19:23:46 +0000";
layers = (
{
background = {
components = (
{
name = T;
}
);
paths = (
{
closed = 1;
nodes = (
"554 414 OFFCURVE",
"547 422 OFFCURVE",
"536 422 CURVE SMOOTH",
"135 422 LINE SMOOTH",
"123 422 OFFCURVE",
"116 414 OFFCURVE",
"116 399 CURVE SMOOTH",
"116 306 LINE SMOOTH",
"116 289 OFFCURVE",
"122 281 OFFCURVE",
"142 281 CURVE SMOOTH",
"521 281 LINE SMOOTH",
"544 281 OFFCURVE",
"554 289 OFFCURVE",
"554 309 CURVE SMOOTH",
"554 402 LINE SMOOTH"
);
}
);
};
components = (
{
name = T;
}
);
layerId = "258ED206-D907-4350-8EBA-CBDDA1C16BF7";
paths = (
{
closed = 1;
nodes = (
"116 422 LINE",
"116 281 LINE",
"554 281 LINE",
"554 422 LINE"
);
}
);
width = 689;
},
{
background = {
components = (
{
name = T;
transform = "{1, 0, 0, 1, 4, 0}";
}
);
guideLines = (
{
angle = 90;
position = "{179, 188}";
showMeasurement = 1;
}
);
paths = (
{
closed = 1;
nodes = (
"508 399 OFFCURVE",
"506 402 OFFCURVE",
"501 402 CURVE SMOOTH",
"149 402 LINE SMOOTH",
"144 402 OFFCURVE",
"142 399 OFFCURVE",
"142 393 CURVE SMOOTH",
"142 370 LINE SMOOTH",
"142 363 OFFCURVE",
"144 360 OFFCURVE",
"152 360 CURVE SMOOTH",
"495 360 LINE SMOOTH",
"504 360 OFFCURVE",
"508 363 OFFCURVE",
"508 371 CURVE SMOOTH",
"508 394 LINE SMOOTH"
);
}
);
};
components = (
{
name = T;
}
);
guideLines = (
{
angle = 90;
position = "{287, 188}";
showMeasurement = 1;
}
);
layerId = "91AB5BCA-6A50-42DA-B2F7-8181BF189245";
paths = (
{
closed = 1;
nodes = (
"142 402 LINE",
"142 360 LINE",
"508 360 LINE",
"508 402 LINE"
);
}
);
width = 654;
}
);
leftMetricsKey = T;
rightMetricsKey = T;
unicode = 0166;
},
{
glyphname = U;
lastChange = "2017-03-16 16:21:57 +0000";
layers = (
{
anchors = (
{
name = ogonek;
position = "{461, 12}";
},
{
name = top;
position = "{362, 742}";
}
);
background = {
anchors = (
{
name = ogonek;
position = "{477, 10}";
},
{
name = top;
position = "{382, 742}";
}
);
paths = (
{
closed = 1;
nodes = (
"685 721 LINE SMOOTH",
"685 734 OFFCURVE",
"679 742 OFFCURVE",
"667 742 CURVE SMOOTH",
"517 742 LINE SMOOTH",
"505 742 OFFCURVE",
"498 734 OFFCURVE",
"498 719 CURVE SMOOTH",
"498 292 LINE SMOOTH",
"498 181 OFFCURVE",
"444 149 OFFCURVE",
"382 149 CURVE SMOOTH",
"314 149 OFFCURVE",
"272 187 OFFCURVE",
"272 289 CURVE SMOOTH",
"272 721 LINE SMOOTH",
"272 734 OFFCURVE",
"266 742 OFFCURVE",
"254 742 CURVE SMOOTH",
"64 742 LINE SMOOTH",
"53 742 OFFCURVE",
"45 734 OFFCURVE",
"45 719 CURVE SMOOTH",
"45 313 LINE SMOOTH",
"45 104 OFFCURVE",
"126 -10 OFFCURVE",
"365 -10 CURVE SMOOTH",
"556 -10 OFFCURVE",
"685 62 OFFCURVE",
"685 293 CURVE SMOOTH"
);
}
);
};
layerId = "258ED206-D907-4350-8EBA-CBDDA1C16BF7";
paths = (
{
closed = 1;
nodes = (
"700 742 LINE",
"498 742 LINE",
"498 298 LINE SMOOTH",
"498 196 OFFCURVE",
"442 157 OFFCURVE",
"380 157 CURVE SMOOTH",
"318 157 OFFCURVE",
"262 196 OFFCURVE",
"262 298 CURVE SMOOTH",
"262 742 LINE",
"60 742 LINE",
"60 307 LINE SMOOTH",
"60 118 OFFCURVE",
"141 -10 OFFCURVE",
"380 -10 CURVE SMOOTH",
"619 -10 OFFCURVE",
"700 118 OFFCURVE",
"700 307 CURVE SMOOTH"
);
}
);
width = 750;
},
{
anchors = (
{
name = ogonek;
position = "{417, 9}";
},
{
name = top;
position = "{349, 742}";
}
);
background = {
anchors = (
{
name = ogonek;
position = "{417, 9}";
},
{
name = top;
position = "{349, 742}";
}
);
paths = (
{
closed = 1;
nodes = (
"592 733 LINE SMOOTH",
"592 739 OFFCURVE",
"590 742 OFFCURVE",
"584 742 CURVE SMOOTH",
"560 742 LINE SMOOTH",
"554 742 OFFCURVE",
"552 739 OFFCURVE",
"552 733 CURVE SMOOTH",
"552 229 LINE SMOOTH",
"552 97 OFFCURVE",
"485 32 OFFCURVE",
"347 32 CURVE SMOOTH",
"211 32 OFFCURVE",
"144 96 OFFCURVE",
"144 226 CURVE SMOOTH",
"144 732 LINE SMOOTH",
"144 740 OFFCURVE",
"142 742 OFFCURVE",
"134 742 CURVE SMOOTH",
"106 742 LINE SMOOTH",
"100 742 OFFCURVE",
"98 739 OFFCURVE",
"98 731 CURVE SMOOTH",
"98 245 LINE SMOOTH",
"98 71 OFFCURVE",
"177 -10 OFFCURVE",
"345 -10 CURVE SMOOTH",
"511 -10 OFFCURVE",
"592 69 OFFCURVE",
"592 230 CURVE SMOOTH"
);
}
);
};
layerId = "91AB5BCA-6A50-42DA-B2F7-8181BF189245";
paths = (
{
closed = 1;
nodes = (
"592 742 LINE",
"552 742 LINE",
"552 228 LINE SMOOTH",
"552 96 OFFCURVE",
"483 29 OFFCURVE",
"345 29 CURVE SMOOTH",
"209 29 OFFCURVE",
"144 98 OFFCURVE",
"144 228 CURVE SMOOTH",
"144 742 LINE",
"100 742 LINE",
"100 245 LINE SMOOTH",
"100 71 OFFCURVE",
"177 -10 OFFCURVE",
"345 -10 CURVE SMOOTH",
"511 -10 OFFCURVE",
"592 69 OFFCURVE",
"592 230 CURVE SMOOTH"
);
}
);
width = 692;
}
);
leftKerningGroup = U;
rightKerningGroup = U;
unicode = 0055;
},
{
glyphname = V;
lastChange = "2017-03-21 18:33:41 +0000";
layers = (
{
background = {
paths = (
{
closed = 1;
nodes = (
"542 742 LINE SMOOTH",
"530 742 OFFCURVE",
"519 734 OFFCURVE",
"516 721 CURVE SMOOTH",
"391 283 LINE SMOOTH",
"388 273 OFFCURVE",
"384 273 OFFCURVE",
"381 282 CURVE SMOOTH",
"247 721 LINE SMOOTH",
"243 734 OFFCURVE",
"234 742 OFFCURVE",
"222 742 CURVE SMOOTH",
"29 742 LINE SMOOTH",
"13 742 OFFCURVE",
"4 728 OFFCURVE",
"10 713 CURVE SMOOTH",
"242 25 LINE SMOOTH",
"247 8 OFFCURVE",
"259 0 OFFCURVE",
"279 0 CURVE SMOOTH",
"441 0 LINE SMOOTH",
"461 0 OFFCURVE",
"473 8 OFFCURVE",
"478 25 CURVE SMOOTH",
"710 713 LINE SMOOTH",
"715 728 OFFCURVE",
"707 742 OFFCURVE",
"691 742 CURVE SMOOTH"
);
}
);
};
guideLines = (
{
angle = -108.62;
position = "{360, 234}";
}
);
layerId = "258ED206-D907-4350-8EBA-CBDDA1C16BF7";
paths = (
{
closed = 1;
nodes = (
"531 742 LINE",
"360 234 LINE",
"188 742 LINE",
"0 742 LINE",
"250 0 LINE",
"470 0 LINE",
"720 742 LINE"
);
}
);
width = 720;
},
{
background = {
paths = (
{
closed = 1;
nodes = (
"566 742 LINE SMOOTH",
"560 742 OFFCURVE",
"557 740 OFFCURVE",
"555 735 CURVE SMOOTH",
"311 65 LINE SMOOTH",
"306 51 OFFCURVE",
"300 51 OFFCURVE",
"295 64 CURVE SMOOTH",
"58 734 LINE SMOOTH",
"56 740 OFFCURVE",
"53 742 OFFCURVE",
"45 742 CURVE SMOOTH",
"22 742 LINE SMOOTH",
"15 742 OFFCURVE",
"12 738 OFFCURVE",
"14 732 CURVE SMOOTH",
"269 10 LINE SMOOTH",
"271 3 OFFCURVE",
"277 0 OFFCURVE",
"288 0 CURVE SMOOTH",
"320 0 LINE SMOOTH",
"329 0 OFFCURVE",
"333 3 OFFCURVE",
"336 11 CURVE SMOOTH",
"598 733 LINE SMOOTH",
"600 738 OFFCURVE",
"597 742 OFFCURVE",
"591 742 CURVE SMOOTH"
);
}
);
};
layerId = "91AB5BCA-6A50-42DA-B2F7-8181BF189245";
paths = (
{
closed = 1;
nodes = (
"558 742 LINE",
"303 42 LINE",
"55 742 LINE",
"10 742 LINE",
"273 0 LINE",
"332 0 LINE",
"601 742 LINE"
);
}
);
width = 611;
}
);
leftKerningGroup = V;
rightKerningGroup = V;
unicode = 0056;
},
{
glyphname = W;
lastChange = "2017-03-21 18:32:45 +0000";
layers = (
{
anchors = (
{
name = top;
position = "{515, 742}";
}
);
background = {
anchors = (
{
name = top;
position = "{526, 742}";
}
);
paths = (
{
closed = 1;
nodes = (
"906 742 LINE SMOOTH",
"885 742 OFFCURVE",
"877 734 OFFCURVE",
"874 721 CURVE SMOOTH",
"772 339 LINE SMOOTH",
"770 331 OFFCURVE",
"763 333 OFFCURVE",
"761 341 CURVE SMOOTH",
"651 721 LINE SMOOTH",
"647 734 OFFCURVE",
"640 742 OFFCURVE",
"619 742 CURVE SMOOTH",
"479 742 LINE SMOOTH",
"458 742 OFFCURVE",
"450 734 OFFCURVE",
"447 721 CURVE SMOOTH",
"342 346 LINE SMOOTH",
"339 335 OFFCURVE",
"334 335 OFFCURVE",
"330 350 CURVE SMOOTH",
"224 721 LINE SMOOTH",
"220 734 OFFCURVE",
"213 742 OFFCURVE",
"192 742 CURVE SMOOTH",
"27 742 LINE SMOOTH",
"1 742 OFFCURVE",
"-9 725 OFFCURVE",
"-3 702 CURVE SMOOTH",
"201 25 LINE SMOOTH",
"207 8 OFFCURVE",
"217 0 OFFCURVE",
"237 0 CURVE SMOOTH",
"380 0 LINE SMOOTH",
"401 0 OFFCURVE",
"411 8 OFFCURVE",
"416 25 CURVE SMOOTH",
"519 375 LINE SMOOTH",
"526 395 OFFCURVE",
"531 393 OFFCURVE",
"535 377 CURVE SMOOTH",
"639 25 LINE SMOOTH",
"644 8 OFFCURVE",
"655 0 OFFCURVE",
"675 0 CURVE SMOOTH",
"813 0 LINE SMOOTH",
"833 0 OFFCURVE",
"843 8 OFFCURVE",
"849 25 CURVE SMOOTH",
"1052 702 LINE SMOOTH",
"1058 725 OFFCURVE",
"1048 742 OFFCURVE",
"1022 742 CURVE SMOOTH"
);
}
);
};
guideLines = (
{
angle = -73.94;
position = "{218, 742}";
},
{
angle = 74.3834;
position = "{443, 742}";
}
);
layerId = "258ED206-D907-4350-8EBA-CBDDA1C16BF7";
paths = (
{
closed = 1;
nodes = (
"797 742 LINE",
"686 346 LINE",
"572 742 LINE",
"433 742 LINE",
"322 346 LINE",
"208 742 LINE",
"15 742 LINE",
"239 0 LINE",
"386 0 LINE",
"504 403 LINE",
"621 0 LINE",
"770 0 LINE",
"992 742 LINE"
);
}
);
width = 1007;
},
{
anchors = (
{
name = top;
position = "{488, 742}";
}
);
background = {
anchors = (
{
name = top;
position = "{488, 742}";
}
);
guideLines = (
{
position = "{22, 125}";
showMeasurement = 1;
}
);
paths = (
{
closed = 1;
nodes = (
"910 742 LINE SMOOTH",
"904 742 OFFCURVE",
"899 740 OFFCURVE",
"898 735 CURVE SMOOTH",
"709 72 LINE SMOOTH",
"705 58 OFFCURVE",
"701 58 OFFCURVE",
"697 71 CURVE SMOOTH",
"512 734 LINE SMOOTH",
"510 740 OFFCURVE",
"508 742 OFFCURVE",
"500 742 CURVE SMOOTH",
"475 742 LINE SMOOTH",
"466 742 OFFCURVE",
"463 738 OFFCURVE",
"462 735 CURVE SMOOTH",
"273 72 LINE SMOOTH",
"269 58 OFFCURVE",
"265 58 OFFCURVE",
"261 71 CURVE SMOOTH",
"76 734 LINE SMOOTH",
"74 740 OFFCURVE",
"72 742 OFFCURVE",
"64 742 CURVE SMOOTH",
"39 742 LINE SMOOTH",
"32 742 OFFCURVE",
"29 738 OFFCURVE",
"31 732 CURVE SMOOTH",
"233 10 LINE SMOOTH",
"235 3 OFFCURVE",
"241 0 OFFCURVE",
"251 0 CURVE SMOOTH",
"283 0 LINE SMOOTH",
"293 0 OFFCURVE",
"297 3 OFFCURVE",
"299 11 CURVE SMOOTH",
"484 658 LINE SMOOTH",
"485 662 OFFCURVE",
"487 662 OFFCURVE",
"488 658 CURVE SMOOTH",
"669 10 LINE SMOOTH",
"671 3 OFFCURVE",
"677 0 OFFCURVE",
"687 0 CURVE SMOOTH",
"719 0 LINE SMOOTH",
"729 0 OFFCURVE",
"733 3 OFFCURVE",
"735 11 CURVE SMOOTH",
"942 733 LINE SMOOTH",
"943 738 OFFCURVE",
"941 742 OFFCURVE",
"935 742 CURVE SMOOTH"
);
}
);
};
guideLines = (
{
position = "{130, 125}";
showMeasurement = 1;
}
);
layerId = "91AB5BCA-6A50-42DA-B2F7-8181BF189245";
paths = (
{
closed = 1;
nodes = (
"892 742 LINE",
"695 50 LINE",
"502 742 LINE",
"462 742 LINE",
"265 50 LINE",
"75 742 LINE",
"30 742 LINE",
"238 0 LINE",
"291 0 LINE",
"481 665 LINE",
"667 0 LINE",
"723 0 LINE",
"936 742 LINE"
);
}
);
width = 966;
}
);
leftKerningGroup = W;
rightKerningGroup = W;
unicode = 0057;
},
{
glyphname = X;
lastChange = "2017-03-16 16:24:07 +0000";
layers = (
{
background = {
paths = (
{
closed = 1;
nodes = (
"489 403 LINE",
"711 742 LINE",
"494 742 LINE",
"380 541 LINE",
"266 742 LINE",
"11 742 LINE",
"247 374 LINE",
"38 51 LINE SMOOTH",
"12 11 OFFCURVE",
"23 0 OFFCURVE",
"51 0 CURVE SMOOTH",
"225 0 LINE",
"358 233 LINE",
"494 0 LINE",
"704 0 LINE SMOOTH",
"732 0 OFFCURVE",
"743 12 OFFCURVE",
"718 51 CURVE SMOOTH"
);
}
);
};
layerId = "258ED206-D907-4350-8EBA-CBDDA1C16BF7";
paths = (
{
closed = 1;
nodes = (
"475 403 LINE",
"697 742 LINE",
"487 742 LINE",
"373 541 LINE",
"259 742 LINE",
"11 742 LINE",
"247 374 LINE",
"5 0 LINE",
"218 0 LINE",
"351 233 LINE",
"487 0 LINE",
"737 0 LINE"
);
}
);
width = 742;
},
{
background = {
guideLines = (
{
angle = 90;
position = "{32, 437}";
},
{
angle = 90;
position = "{543, 372}";
},
{
position = "{-2, 716}";
showMeasurement = 1;
},
{
position = "{-8, 32}";
showMeasurement = 1;
},
{
position = "{62, 454}";
showMeasurement = 1;
},
{
position = "{60, 290}";
showMeasurement = 1;
},
{
angle = 236.602;
position = "{275, 374}";
},
{
angle = 123.344;
position = "{332, 374}";
},
{
angle = 56.5817;
position = "{320, 370}";
},
{
angle = 123.4;
position = "{285, 370}";
}
);
paths = (
{
closed = 1;
nodes = (
"334 374 LINE SMOOTH",
"330 380 OFFCURVE",
"331 384 OFFCURVE",
"335 390 CURVE SMOOTH",
"569 736 LINE SMOOTH",
"571 739 OFFCURVE",
"571 742 OFFCURVE",
"567 742 CURVE SMOOTH",
"526 742 LINE SMOOTH",
"522 742 OFFCURVE",
"520 741 OFFCURVE",
"518 738 CURVE SMOOTH",
"311 431 LINE SMOOTH",
"304 421 OFFCURVE",
"300 422 OFFCURVE",
"294 430 CURVE SMOOTH",
"87 738 LINE SMOOTH",
"85 741 OFFCURVE",
"84 742 OFFCURVE",
"78 742 CURVE SMOOTH",
"39 742 LINE SMOOTH",
"35 742 OFFCURVE",
"34 737 OFFCURVE",
"36 734 CURVE SMOOTH",
"268 391 LINE SMOOTH",
"273 383 OFFCURVE",
"274 377 OFFCURVE",
"269 370 CURVE SMOOTH",
"27 10 LINE SMOOTH",
"22 2 OFFCURVE",
"24 0 OFFCURVE",
"30 0 CURVE SMOOTH",
"66 0 LINE SMOOTH",
"69 0 OFFCURVE",
"72 1 OFFCURVE",
"74 4 CURVE SMOOTH",
"291 324 LINE SMOOTH",
"301 339 OFFCURVE",
"305 338 OFFCURVE",
"312 327 CURVE SMOOTH",
"532 4 LINE SMOOTH",
"534 1 OFFCURVE",
"535 0 OFFCURVE",
"539 0 CURVE SMOOTH",
"575 0 LINE SMOOTH",
"581 0 OFFCURVE",
"585 2 OFFCURVE",
"579 10 CURVE SMOOTH"
);
}
);
};
guideLines = (
{
angle = 90;
position = "{140, 437}";
},
{
angle = 90;
position = "{651, 372}";
},
{
position = "{106, 716}";
showMeasurement = 1;
},
{
position = "{100, 32}";
showMeasurement = 1;
},
{
position = "{170, 454}";
showMeasurement = 1;
},
{
position = "{168, 290}";
showMeasurement = 1;
},
{
angle = 236.602;
position = "{383, 374}";
},
{
angle = 123.344;
position = "{440, 374}";
},
{
angle = 56.5817;
position = "{428, 370}";
},
{
angle = 123.4;
position = "{393, 370}";
}
);
layerId = "91AB5BCA-6A50-42DA-B2F7-8181BF189245";
paths = (
{
closed = 1;
nodes = (
"329 381 LINE",
"573 742 LINE",
"521 742 LINE",
"302 418 LINE",
"84 742 LINE",
"31 742 LINE",
"276 380 LINE",
"20 0 LINE",
"71 0 LINE",
"303 341 LINE",
"535 0 LINE",
"586 0 LINE"
);
}
);
width = 606;
}
);
leftKerningGroup = X;
rightKerningGroup = X;
unicode = 0058;
},
{
glyphname = Y;
lastChange = "2017-03-22 20:14:44 +0000";
layers = (
{
anchors = (
{
name = top;
position = "{382, 742}";
}
);
background = {
anchors = (
{
name = top;
position = "{382, 742}";
}
);
paths = (
{
closed = 1;
nodes = (
"555 742 LINE SMOOTH",
"536 742 OFFCURVE",
"529 738 OFFCURVE",
"521 721 CURVE SMOOTH",
"400 498 LINE SMOOTH",
"393 486 OFFCURVE",
"389 487 OFFCURVE",
"383 499 CURVE SMOOTH",
"260 721 LINE SMOOTH",
"251 737 OFFCURVE",
"246 742 OFFCURVE",
"226 742 CURVE SMOOTH",
"25 742 LINE SMOOTH",
"4 742 OFFCURVE",
"-3 730 OFFCURVE",
"7 714 CURVE SMOOTH",
"241 332 LINE SMOOTH",
"250 317 OFFCURVE",
"255 309 OFFCURVE",
"255 288 CURVE SMOOTH",
"255 25 LINE SMOOTH",
"255 8 OFFCURVE",
"261 0 OFFCURVE",
"281 0 CURVE SMOOTH",
"449 0 LINE SMOOTH",
"472 0 OFFCURVE",
"482 8 OFFCURVE",
"482 29 CURVE SMOOTH",
"482 275 LINE SMOOTH",
"482 317 OFFCURVE",
"483 327 OFFCURVE",
"492 341 CURVE SMOOTH",
"726 719 LINE SMOOTH",
"734 732 OFFCURVE",
"729 742 OFFCURVE",
"712 742 CURVE SMOOTH"
);
}
);
};
guideLines = (
{
angle = 58.823;
position = "{502, 742}";
}
);
layerId = "258ED206-D907-4350-8EBA-CBDDA1C16BF7";
paths = (
{
closed = 1;
nodes = (
"502 742 LINE",
"356 478 LINE",
"209 742 LINE",
"-6 742 LINE",
"256 309 LINE",
"256 0 LINE",
"456 0 LINE",
"456 309 LINE",
"719 742 LINE"
);
}
);
width = 714;
},
{
anchors = (
{
name = top;
position = "{273, 742}";
}
);
background = {
anchors = (
{
name = top;
position = "{273, 742}";
}
);
paths = (
{
closed = 1;
nodes = (
"515 742 LINE SMOOTH",
"506 742 OFFCURVE",
"504 741 OFFCURVE",
"499 733 CURVE SMOOTH",
"290 374 LINE SMOOTH",
"282 361 OFFCURVE",
"275 360 OFFCURVE",
"266 376 CURVE SMOOTH",
"56 733 LINE SMOOTH",
"52 740 OFFCURVE",
"49 742 OFFCURVE",
"40 742 CURVE SMOOTH",
"17 742 LINE SMOOTH",
"7 742 OFFCURVE",
"5 737 OFFCURVE",
"9 730 CURVE SMOOTH",
"253 315 LINE SMOOTH",
"257 308 OFFCURVE",
"258 305 OFFCURVE",
"258 295 CURVE SMOOTH",
"258 11 LINE SMOOTH",
"258 4 OFFCURVE",
"261 0 OFFCURVE",
"270 0 CURVE SMOOTH",
"289 0 LINE SMOOTH",
"300 0 OFFCURVE",
"304 4 OFFCURVE",
"304 13 CURVE SMOOTH",
"304 306 LINE SMOOTH",
"304 316 OFFCURVE",
"304 320 OFFCURVE",
"308 326 CURVE SMOOTH",
"547 731 LINE SMOOTH",
"551 737 OFFCURVE",
"548 742 OFFCURVE",
"541 742 CURVE SMOOTH"
);
}
);
};
guideLines = (
{
angle = 239.8907;
position = "{298, 319}";
},
{
angle = -59.5603;
position = "{151, 503}";
}
);
layerId = "91AB5BCA-6A50-42DA-B2F7-8181BF189245";
paths = (
{
closed = 1;
nodes = (
"504 742 LINE",
"279 354 LINE",
"51 742 LINE",
"10 742 LINE",
"258 320 LINE",
"258 0 LINE",
"298 0 LINE",
"298 319 LINE",
"543 742 LINE"
);
}
);
width = 553;
}
);
leftKerningGroup = Y;
rightKerningGroup = Y;
unicode = 0059;
},
{
glyphname = Z;
lastChange = "2017-03-16 16:23:59 +0000";
layers = (
{
anchors = (
{
name = bottom;
position = "{356, 0}";
},
{
name = top;
position = "{380, 742}";
}
);
background = {
anchors = (
{
name = bottom;
position = "{356, 0}";
},
{
name = top;
position = "{380, 742}";
}
);
paths = (
{
closed = 1;
nodes = (
"686 0 LINE",
"686 166 LINE",
"345 166 LINE",
"692 654 LINE",
"692 742 LINE",
"68 742 LINE",
"68 577 LINE",
"375 577 LINE",
"35 91 LINE",
"35 0 LINE"
);
}
);
};
layerId = "258ED206-D907-4350-8EBA-CBDDA1C16BF7";
paths = (
{
closed = 1;
nodes = (
"666 0 LINE",
"666 166 LINE",
"315 166 LINE",
"672 654 LINE",
"672 742 LINE",
"68 742 LINE",
"68 577 LINE",
"385 577 LINE",
"35 91 LINE",
"35 0 LINE"
);
}
);
width = 697;
},
{
anchors = (
{
name = bottom;
position = "{297, 0}";
},
{
name = top;
position = "{290, 742}";
}
);
background = {
anchors = (
{
name = bottom;
position = "{297, 0}";
},
{
name = top;
position = "{290, 742}";
}
);
paths = (
{
closed = 1;
nodes = (
"529 0 LINE",
"529 40 LINE",
"95 40 LINE",
"529 715 LINE",
"529 742 LINE",
"50 742 LINE",
"50 702 LINE",
"471 702 LINE",
"40 28 LINE",
"40 0 LINE"
);
}
);
};
guideLines = (
{
angle = 237.1304;
position = "{529, 711}";
}
);
layerId = "91AB5BCA-6A50-42DA-B2F7-8181BF189245";
paths = (
{
closed = 1;
nodes = (
"529 0 LINE",
"529 40 LINE",
"91 40 LINE",
"529 711 LINE",
"529 742 LINE",
"50 742 LINE",
"50 702 LINE",
"476 702 LINE",
"40 32 LINE",
"40 0 LINE"
);
}
);
width = 559;
}
);
leftKerningGroup = Z;
rightKerningGroup = Z;
unicode = 005A;
},
{
glyphname = a;
lastChange = "2017-03-23 04:34:08 +0000";
layers = (
{
anchors = (
{
name = ogonek;
position = "{506, 10}";
},
{
name = top;
position = "{294, 530}";
}
);
background = {
anchors = (
{
name = ogonek;
position = "{506, 10}";
},
{
name = top;
position = "{294, 530}";
}
);
guideLines = (
{
angle = 90;
position = "{344, 102}";
}
);
paths = (
{
closed = 1;
nodes = (
"337 56 OFFCURVE",
"345 55 OFFCURVE",
"347 42 CURVE SMOOTH",
"348 35 LINE SMOOTH",
"351 16 OFFCURVE",
"356 0 OFFCURVE",
"374 0 CURVE SMOOTH",
"511 0 LINE SMOOTH",
"530 0 OFFCURVE",
"534 7 OFFCURVE",
"534 27 CURVE SMOOTH",
"534 375 LINE SMOOTH",
"534 473 OFFCURVE",
"479 540 OFFCURVE",
"294 540 CURVE SMOOTH",
"163 540 OFFCURVE",
"72 506 OFFCURVE",
"42 421 CURVE SMOOTH",
"33 396 OFFCURVE",
"39 391 OFFCURVE",
"49 389 CURVE SMOOTH",
"180 363 LINE SMOOTH",
"198 360 OFFCURVE",
"202 363 OFFCURVE",
"207 374 CURVE SMOOTH",
"224 411 OFFCURVE",
"257 421 OFFCURVE",
"285 421 CURVE SMOOTH",
"325 421 OFFCURVE",
"344 400 OFFCURVE",
"344 363 CURVE SMOOTH",
"344 346 LINE SMOOTH",
"344 334 OFFCURVE",
"334 332 OFFCURVE",
"329 332 CURVE SMOOTH",
"322 332 LINE SMOOTH",
"133 332 OFFCURVE",
"15 253 OFFCURVE",
"15 136 CURVE SMOOTH",
"15 53 OFFCURVE",
"75 -10 OFFCURVE",
"175 -10 CURVE SMOOTH",
"237 -10 OFFCURVE",
"284 12 OFFCURVE",
"320 42 CURVE SMOOTH"
);
},
{
closed = 1;
nodes = (
"344 171 LINE SMOOTH",
"344 156 OFFCURVE",
"333 145 OFFCURVE",
"321 135 CURVE SMOOTH",
"310 126 OFFCURVE",
"292 116 OFFCURVE",
"266 116 CURVE SMOOTH",
"230 116 OFFCURVE",
"209 135 OFFCURVE",
"209 163 CURVE SMOOTH",
"209 219 OFFCURVE",
"293 242 OFFCURVE",
"325 242 CURVE SMOOTH",
"329 242 LINE SMOOTH",
"341 242 OFFCURVE",
"344 236 OFFCURVE",
"344 224 CURVE SMOOTH"
);
}
);
};
guideLines = (
{
angle = 90;
position = "{344, 102}";
}
);
layerId = "258ED206-D907-4350-8EBA-CBDDA1C16BF7";
paths = (
{
closed = 1;
nodes = (
"247 -10 OFFCURVE",
"302 21 OFFCURVE",
"344 62 CURVE",
"364 0 LINE",
"534 0 LINE",
"534 375 LINE SMOOTH",
"534 473 OFFCURVE",
"479 540 OFFCURVE",
"294 540 CURVE SMOOTH",
"158 540 OFFCURVE",
"63 498 OFFCURVE",
"32 392 CURVE",
"200 359 LINE",
"219 408 OFFCURVE",
"255 421 OFFCURVE",
"285 421 CURVE SMOOTH",
"325 421 OFFCURVE",
"344 400 OFFCURVE",
"344 363 CURVE SMOOTH",
"344 332 LINE",
"322 332 LINE SMOOTH",
"133 332 OFFCURVE",
"15 253 OFFCURVE",
"15 136 CURVE SMOOTH",
"15 53 OFFCURVE",
"75 -10 OFFCURVE",
"175 -10 CURVE SMOOTH"
);
},
{
closed = 1;
nodes = (
"230 116 OFFCURVE",
"209 135 OFFCURVE",
"209 163 CURVE SMOOTH",
"209 219 OFFCURVE",
"290 242 OFFCURVE",
"322 242 CURVE SMOOTH",
"344 242 LINE",
"344 154 LINE",
"328 136 OFFCURVE",
"303 116 OFFCURVE",
"266 116 CURVE SMOOTH"
);
}
);
width = 569;
},
{
anchors = (
{
name = ogonek;
position = "{463, 14}";
},
{
name = top;
position = "{278, 530}";
}
);
background = {
anchors = (
{
name = ogonek;
position = "{463, 14}";
},
{
name = top;
position = "{278, 530}";
}
);
paths = (
{
closed = 1;
nodes = (
"425 78 OFFCURVE",
"429 77 OFFCURVE",
"430 70 CURVE SMOOTH",
"432 9 LINE SMOOTH",
"432 2 OFFCURVE",
"435 0 OFFCURVE",
"441 0 CURVE SMOOTH",
"459 0 LINE SMOOTH",
"465 0 OFFCURVE",
"469 2 OFFCURVE",
"469 10 CURVE SMOOTH",
"469 367 LINE SMOOTH",
"469 475 OFFCURVE",
"395 540 OFFCURVE",
"282 540 CURVE SMOOTH",
"187 540 OFFCURVE",
"120 493 OFFCURVE",
"78 431 CURVE SMOOTH",
"74 426 OFFCURVE",
"75 423 OFFCURVE",
"78 421 CURVE SMOOTH",
"102 406 LINE SMOOTH",
"106 403 OFFCURVE",
"108 405 OFFCURVE",
"112 410 CURVE SMOOTH",
"157 470 OFFCURVE",
"211 502 OFFCURVE",
"280 502 CURVE SMOOTH",
"370 502 OFFCURVE",
"429 448 OFFCURVE",
"429 363 CURVE SMOOTH",
"429 332 LINE SMOOTH",
"429 323 OFFCURVE",
"423 318 OFFCURVE",
"412 317 CURVE SMOOTH",
"307 308 LINE SMOOTH",
"143 294 OFFCURVE",
"60 236 OFFCURVE",
"60 135 CURVE SMOOTH",
"60 45 OFFCURVE",
"125 -10 OFFCURVE",
"230 -10 CURVE SMOOTH",
"304 -10 OFFCURVE",
"365 17 OFFCURVE",
"420 72 CURVE SMOOTH"
);
},
{
closed = 1;
nodes = (
"429 171 LINE SMOOTH",
"429 141 OFFCURVE",
"409 107 OFFCURVE",
"372 77 CURVE SMOOTH",
"334 47 OFFCURVE",
"285 28 OFFCURVE",
"236 28 CURVE SMOOTH",
"155 28 OFFCURVE",
"102 69 OFFCURVE",
"102 138 CURVE SMOOTH",
"102 215 OFFCURVE",
"169 261 OFFCURVE",
"326 273 CURVE SMOOTH",
"415 280 LINE SMOOTH",
"424 281 OFFCURVE",
"429 277 OFFCURVE",
"429 266 CURVE SMOOTH"
);
}
);
};
hints = (
{
horizontal = 1;
place = "{4145, 208}";
}
);
layerId = "91AB5BCA-6A50-42DA-B2F7-8181BF189245";
paths = (
{
closed = 1;
nodes = (
"308 -10 OFFCURVE",
"372 20 OFFCURVE",
"430 82 CURVE",
"432 0 LINE",
"469 0 LINE",
"469 367 LINE SMOOTH",
"469 475 OFFCURVE",
"395 540 OFFCURVE",
"282 540 CURVE SMOOTH",
"185 540 OFFCURVE",
"116 490 OFFCURVE",
"73 424 CURVE",
"107 403 LINE",
"153 468 OFFCURVE",
"209 502 OFFCURVE",
"280 502 CURVE SMOOTH",
"370 502 OFFCURVE",
"429 448 OFFCURVE",
"429 363 CURVE SMOOTH",
"429 318 LINE",
"307 308 LINE SMOOTH",
"143 294 OFFCURVE",
"60 236 OFFCURVE",
"60 135 CURVE SMOOTH",
"60 45 OFFCURVE",
"125 -10 OFFCURVE",
"230 -10 CURVE SMOOTH"
);
},
{
closed = 1;
nodes = (
"155 28 OFFCURVE",
"102 69 OFFCURVE",
"102 138 CURVE SMOOTH",
"102 215 OFFCURVE",
"169 261 OFFCURVE",
"326 273 CURVE SMOOTH",
"429 281 LINE",
"429 171 LINE SMOOTH",
"429 99 OFFCURVE",
"324 28 OFFCURVE",
"236 28 CURVE SMOOTH"
);
}
);
width = 554;
}
);
leftKerningGroup = a;
unicode = 0061;
},
{
glyphname = ae;
lastChange = "2017-03-13 19:23:21 +0000";
layers = (
{
anchors = (
{
name = top;
position = "{453, 530}";
}
);
background = {
anchors = (
{
name = top;
position = "{453, 530}";
}
);
paths = (
{
closed = 1;
nodes = (
"875 229 LINE SMOOTH",
"892 230 OFFCURVE",
"893 237 OFFCURVE",
"893 254 CURVE SMOOTH",
"893 435 OFFCURVE",
"778 540 OFFCURVE",
"621 540 CURVE SMOOTH",
"569 540 OFFCURVE",
"519 526 OFFCURVE",
"476 500 CURVE",
"438 525 OFFCURVE",
"379 539 OFFCURVE",
"290 540 CURVE SMOOTH",
"137 540 OFFCURVE",
"80 499 OFFCURVE",
"42 421 CURVE SMOOTH",
"37 410 OFFCURVE",
"40 391 OFFCURVE",
"49 389 CURVE SMOOTH",
"180 363 LINE SMOOTH",
"198 360 OFFCURVE",
"202 361 OFFCURVE",
"207 374 CURVE",
"224 411 OFFCURVE",
"257 421 OFFCURVE",
"285 421 CURVE SMOOTH",
"325 421 OFFCURVE",
"344 400 OFFCURVE",
"344 363 CURVE SMOOTH",
"344 346 LINE SMOOTH",
"344 334 OFFCURVE",
"334 332 OFFCURVE",
"326 332 CURVE",
"303 331 LINE SMOOTH",
"111 322 OFFCURVE",
"15 250 OFFCURVE",
"15 143 CURVE SMOOTH",
"15 52 OFFCURVE",
"75 -10 OFFCURVE",
"188 -10 CURVE SMOOTH",
"280 -10 OFFCURVE",
"345 12 OFFCURVE",
"406 71 CURVE SMOOTH",
"410 75 OFFCURVE",
"413 75 OFFCURVE",
"417 71 CURVE SMOOTH",
"467 20 OFFCURVE",
"541 -10 OFFCURVE",
"625 -10 CURVE SMOOTH",
"737 -10 OFFCURVE",
"805 17 OFFCURVE",
"877 118 CURVE",
"886 129 OFFCURVE",
"883 138 OFFCURVE",
"873 142 CURVE SMOOTH",
"782 179 LINE SMOOTH",
"769 184 OFFCURVE",
"766 183 OFFCURVE",
"761 178 CURVE SMOOTH",
"717 135 OFFCURVE",
"686 122 OFFCURVE",
"652 122 CURVE SMOOTH",
"594 122 OFFCURVE",
"549 151 OFFCURVE",
"549 212 CURVE SMOOTH",
"549 224 OFFCURVE",
"554 229 OFFCURVE",
"564 229 CURVE SMOOTH"
);
},
{
closed = 1;
nodes = (
"680 423 OFFCURVE",
"699 372 OFFCURVE",
"699 346 CURVE SMOOTH",
"699 334 OFFCURVE",
"695 332 OFFCURVE",
"682 332 CURVE SMOOTH",
"552 333 LINE",
"551 395 OFFCURVE",
"589 423 OFFCURVE",
"630 423 CURVE SMOOTH"
);
},
{
closed = 1;
nodes = (
"344 160 LINE SMOOTH",
"344 127 OFFCURVE",
"307 108 OFFCURVE",
"269 108 CURVE SMOOTH",
"230 108 OFFCURVE",
"209 127 OFFCURVE",
"209 156 CURVE SMOOTH",
"209 205 OFFCURVE",
"274 230 OFFCURVE",
"312 233 CURVE SMOOTH",
"326 234 LINE SMOOTH",
"338 234 OFFCURVE",
"344 228 OFFCURVE",
"344 216 CURVE SMOOTH"
);
}
);
};
layerId = "258ED206-D907-4350-8EBA-CBDDA1C16BF7";
paths = (
{
closed = 1;
nodes = (
"893 229 LINE",
"893 426 OFFCURVE",
"778 540 OFFCURVE",
"621 540 CURVE SMOOTH",
"569 540 OFFCURVE",
"519 526 OFFCURVE",
"476 500 CURVE",
"438 525 OFFCURVE",
"379 539 OFFCURVE",
"290 540 CURVE SMOOTH",
"129 540 OFFCURVE",
"68 489 OFFCURVE",
"28 393 CURVE",
"200 359 LINE",
"219 408 OFFCURVE",
"255 421 OFFCURVE",
"285 421 CURVE SMOOTH",
"325 421 OFFCURVE",
"344 400 OFFCURVE",
"344 363 CURVE SMOOTH",
"344 333 LINE",
"303 331 LINE SMOOTH",
"111 322 OFFCURVE",
"15 250 OFFCURVE",
"15 143 CURVE SMOOTH",
"15 52 OFFCURVE",
"75 -10 OFFCURVE",
"188 -10 CURVE SMOOTH",
"280 -10 OFFCURVE",
"345 12 OFFCURVE",
"406 71 CURVE SMOOTH",
"410 75 OFFCURVE",
"413 75 OFFCURVE",
"417 71 CURVE SMOOTH",
"467 20 OFFCURVE",
"541 -10 OFFCURVE",
"625 -10 CURVE SMOOTH",
"742 -10 OFFCURVE",
"814 21 OFFCURVE",
"889 135 CURVE",
"768 185 LINE",
"721 137 OFFCURVE",
"688 122 OFFCURVE",
"652 122 CURVE SMOOTH",
"594 122 OFFCURVE",
"549 156 OFFCURVE",
"549 229 CURVE"
);
},
{
closed = 1;
nodes = (
"680 423 OFFCURVE",
"699 363 OFFCURVE",
"699 332 CURVE",
"552 333 LINE",
"551 395 OFFCURVE",
"589 423 OFFCURVE",
"630 423 CURVE SMOOTH"
);
},
{
closed = 1;
nodes = (
"344 160 LINE SMOOTH",
"344 127 OFFCURVE",
"307 108 OFFCURVE",
"269 108 CURVE SMOOTH",
"230 108 OFFCURVE",
"209 127 OFFCURVE",
"209 156 CURVE SMOOTH",
"209 205 OFFCURVE",
"274 230 OFFCURVE",
"312 233 CURVE SMOOTH",
"344 235 LINE"
);
}
);
width = 908;
},
{
anchors = (
{
name = top;
position = "{465, 530}";
}
);
background = {
anchors = (
{
name = top;
position = "{465, 530}";
}
);
paths = (
{
closed = 1;
nodes = (
"875 254 LINE SMOOTH",
"889 254 OFFCURVE",
"893 261 OFFCURVE",
"893 274 CURVE SMOOTH",
"893 444 OFFCURVE",
"801 540 OFFCURVE",
"664 540 CURVE SMOOTH",
"570 540 OFFCURVE",
"498 500 OFFCURVE",
"458 421 CURVE",
"438 501 OFFCURVE",
"382 540 OFFCURVE",
"283 540 CURVE SMOOTH",
"198 540 OFFCURVE",
"121 500 OFFCURVE",
"78 431 CURVE SMOOTH",
"75 426 OFFCURVE",
"75 423 OFFCURVE",
"78 421 CURVE SMOOTH",
"100 406 LINE SMOOTH",
"104 403 OFFCURVE",
"106 404 OFFCURVE",
"111 410 CURVE SMOOTH",
"157 470 OFFCURVE",
"211 502 OFFCURVE",
"275 502 CURVE SMOOTH",
"375 502 OFFCURVE",
"429 448 OFFCURVE",
"429 363 CURVE SMOOTH",
"429 332 LINE SMOOTH",
"429 323 OFFCURVE",
"423 318 OFFCURVE",
"411 317 CURVE SMOOTH",
"299 308 LINE SMOOTH",
"136 294 OFFCURVE",
"60 234 OFFCURVE",
"60 136 CURVE SMOOTH",
"60 45 OFFCURVE",
"122 -10 OFFCURVE",
"226 -10 CURVE SMOOTH",
"357 -10 OFFCURVE",
"415 62 OFFCURVE",
"451 108 CURVE SMOOTH",
"453 111 OFFCURVE",
"454 111 OFFCURVE",
"456 108 CURVE SMOOTH",
"485 65 OFFCURVE",
"539 -10 OFFCURVE",
"661 -10 CURVE SMOOTH",
"758 -10 OFFCURVE",
"839 37 OFFCURVE",
"873 100 CURVE SMOOTH",
"876 106 OFFCURVE",
"875 108 OFFCURVE",
"872 110 CURVE SMOOTH",
"850 125 LINE SMOOTH",
"845 128 OFFCURVE",
"844 127 OFFCURVE",
"839 121 CURVE SMOOTH",
"810 81 OFFCURVE",
"767 28 OFFCURVE",
"663 28 CURVE SMOOTH",
"551 28 OFFCURVE",
"463 134 OFFCURVE",
"463 228 CURVE SMOOTH",
"463 249 OFFCURVE",
"466 253 OFFCURVE",
"483 253 CURVE SMOOTH"
);
},
{
closed = 1;
nodes = (
"771 502 OFFCURVE",
"850 414 OFFCURVE",
"850 306 CURVE SMOOTH",
"850 294 OFFCURVE",
"849 290 OFFCURVE",
"833 290 CURVE SMOOTH",
"465 291 LINE",
"466 418 OFFCURVE",
"551 502 OFFCURVE",
"661 502 CURVE SMOOTH"
);
},
{
closed = 1;
nodes = (
"429 177 LINE",
"429 99 OFFCURVE",
"343 34 OFFCURVE",
"236 29 CURVE SMOOTH",
"152 25 OFFCURVE",
"103 71 OFFCURVE",
"103 138 CURVE SMOOTH",
"103 215 OFFCURVE",
"169 260 OFFCURVE",
"319 272 CURVE SMOOTH",
"414 279 LINE SMOOTH",
"427 280 OFFCURVE",
"429 275 OFFCURVE",
"429 265 CURVE SMOOTH"
);
}
);
};
hints = (
{
horizontal = 1;
place = "{4145, 208}";
}
);
layerId = "91AB5BCA-6A50-42DA-B2F7-8181BF189245";
paths = (
{
closed = 1;
nodes = (
"893 254 LINE",
"893 437 OFFCURVE",
"801 540 OFFCURVE",
"664 540 CURVE SMOOTH",
"570 540 OFFCURVE",
"498 500 OFFCURVE",
"458 421 CURVE",
"438 501 OFFCURVE",
"382 540 OFFCURVE",
"283 540 CURVE SMOOTH",
"196 540 OFFCURVE",
"118 497 OFFCURVE",
"74 424 CURVE",
"105 402 LINE",
"153 467 OFFCURVE",
"209 502 OFFCURVE",
"275 502 CURVE SMOOTH",
"375 502 OFFCURVE",
"429 448 OFFCURVE",
"429 363 CURVE SMOOTH",
"429 318 LINE",
"299 308 LINE SMOOTH",
"136 294 OFFCURVE",
"60 234 OFFCURVE",
"60 136 CURVE SMOOTH",
"60 45 OFFCURVE",
"122 -10 OFFCURVE",
"226 -10 CURVE SMOOTH",
"357 -10 OFFCURVE",
"415 62 OFFCURVE",
"451 108 CURVE SMOOTH",
"453 111 OFFCURVE",
"454 111 OFFCURVE",
"456 108 CURVE SMOOTH",
"485 65 OFFCURVE",
"539 -10 OFFCURVE",
"661 -10 CURVE SMOOTH",
"760 -10 OFFCURVE",
"842 40 OFFCURVE",
"877 107 CURVE",
"845 129 LINE",
"815 85 OFFCURVE",
"770 28 OFFCURVE",
"663 28 CURVE SMOOTH",
"551 28 OFFCURVE",
"463 147 OFFCURVE",
"463 253 CURVE"
);
},
{
closed = 1;
nodes = (
"771 502 OFFCURVE",
"850 407 OFFCURVE",
"850 290 CURVE",
"465 291 LINE",
"466 418 OFFCURVE",
"551 502 OFFCURVE",
"661 502 CURVE SMOOTH"
);
},
{
closed = 1;
nodes = (
"429 177 LINE",
"429 99 OFFCURVE",
"343 34 OFFCURVE",
"236 29 CURVE SMOOTH",
"152 25 OFFCURVE",
"103 71 OFFCURVE",
"103 138 CURVE SMOOTH",
"103 215 OFFCURVE",
"169 260 OFFCURVE",
"319 272 CURVE SMOOTH",
"429 280 LINE"
);
}
);
width = 953;
}
);
leftMetricsKey = a;
rightMetricsKey = e;
unicode = 00E6;
},
{
glyphname = b;
lastChange = "2017-03-21 15:47:43 +0000";
layers = (
{
background = {
paths = (
{
closed = 1;
nodes = (
"187 0 OFFCURVE",
"195 7 OFFCURVE",
"200 23 CURVE SMOOTH",
"216 70 LINE SMOOTH",
"219 78 OFFCURVE",
"223 79 OFFCURVE",
"229 73 CURVE SMOOTH",
"268 22 OFFCURVE",
"322 -10 OFFCURVE",
"385 -10 CURVE SMOOTH",
"531 -10 OFFCURVE",
"612 99 OFFCURVE",
"612 269 CURVE SMOOTH",
"612 436 OFFCURVE",
"536 540 OFFCURVE",
"406 540 CURVE SMOOTH",
"361 540 OFFCURVE",
"320 527 OFFCURVE",
"279 488 CURVE SMOOTH",
"269 480 OFFCURVE",
"260 480 OFFCURVE",
"260 496 CURVE SMOOTH",
"260 721 LINE SMOOTH",
"260 734 OFFCURVE",
"254 742 OFFCURVE",
"242 742 CURVE SMOOTH",
"79 742 LINE SMOOTH",
"68 742 OFFCURVE",
"60 734 OFFCURVE",
"60 719 CURVE SMOOTH",
"60 25 LINE SMOOTH",
"60 8 OFFCURVE",
"66 0 OFFCURVE",
"87 0 CURVE SMOOTH",
"174 0 LINE SMOOTH"
);
},
{
closed = 1;
nodes = (
"280 403 OFFCURVE",
"303 418 OFFCURVE",
"334 418 CURVE SMOOTH",
"383 418 OFFCURVE",
"410 381 OFFCURVE",
"410 265 CURVE SMOOTH",
"410 148 OFFCURVE",
"383 107 OFFCURVE",
"331 107 CURVE SMOOTH",
"289 107 OFFCURVE",
"260 135 OFFCURVE",
"260 185 CURVE SMOOTH",
"260 378 LINE"
);
}
);
};
layerId = "258ED206-D907-4350-8EBA-CBDDA1C16BF7";
paths = (
{
closed = 1;
nodes = (
"531 -10 OFFCURVE",
"612 99 OFFCURVE",
"612 269 CURVE SMOOTH",
"612 436 OFFCURVE",
"536 540 OFFCURVE",
"406 540 CURVE SMOOTH",
"354 540 OFFCURVE",
"307 522 OFFCURVE",
"260 470 CURVE",
"260 782 LINE",
"60 782 LINE",
"60 0 LINE",
"201 0 LINE",
"221 84 LINE",
"262 26 OFFCURVE",
"319 -10 OFFCURVE",
"385 -10 CURVE SMOOTH"
);
},
{
closed = 1;
nodes = (
"287 119 OFFCURVE",
"260 156 OFFCURVE",
"260 245 CURVE",
"260 291 LINE",
"260 383 OFFCURVE",
"289 410 OFFCURVE",
"334 410 CURVE SMOOTH",
"375 410 OFFCURVE",
"410 387 OFFCURVE",
"410 271 CURVE SMOOTH",
"410 154 OFFCURVE",
"378 119 OFFCURVE",
"331 119 CURVE"
);
}
);
width = 637;
},
{
background = {
paths = (
{
closed = 1;
nodes = (
"139 0 OFFCURVE",
"142 3 OFFCURVE",
"142 13 CURVE SMOOTH",
"144 64 LINE SMOOTH",
"144 73 OFFCURVE",
"149 74 OFFCURVE",
"154 67 CURVE SMOOTH",
"166 50 OFFCURVE",
"216 -10 OFFCURVE",
"319 -10 CURVE SMOOTH",
"463 -10 OFFCURVE",
"547 96 OFFCURVE",
"547 267 CURVE SMOOTH",
"547 416 OFFCURVE",
"483 540 OFFCURVE",
"330 540 CURVE SMOOTH",
"224 540 OFFCURVE",
"168 482 OFFCURVE",
"158 473 CURVE SMOOTH",
"149 465 OFFCURVE",
"145 465 OFFCURVE",
"145 478 CURVE SMOOTH",
"145 731 LINE SMOOTH",
"145 739 OFFCURVE",
"143 742 OFFCURVE",
"137 742 CURVE SMOOTH",
"114 742 LINE SMOOTH",
"108 742 OFFCURVE",
"105 739 OFFCURVE",
"105 732 CURVE SMOOTH",
"105 13 LINE SMOOTH",
"105 3 OFFCURVE",
"108 0 OFFCURVE",
"116 0 CURVE SMOOTH",
"127 0 LINE SMOOTH"
);
},
{
closed = 1;
nodes = (
"185 463 OFFCURVE",
"249 502 OFFCURVE",
"323 502 CURVE SMOOTH",
"441 502 OFFCURVE",
"504 409 OFFCURVE",
"504 267 CURVE SMOOTH",
"504 103 OFFCURVE",
"419 28 OFFCURVE",
"315 28 CURVE SMOOTH",
"231 28 OFFCURVE",
"145 96 OFFCURVE",
"145 177 CURVE SMOOTH",
"145 415 LINE"
);
}
);
};
layerId = "91AB5BCA-6A50-42DA-B2F7-8181BF189245";
paths = (
{
closed = 1;
nodes = (
"463 -10 OFFCURVE",
"547 96 OFFCURVE",
"547 267 CURVE SMOOTH",
"547 416 OFFCURVE",
"483 540 OFFCURVE",
"330 540 CURVE SMOOTH",
"216 540 OFFCURVE",
"156 472 OFFCURVE",
"145 461 CURVE",
"145 782 LINE",
"105 782 LINE",
"105 0 LINE",
"141 0 LINE",
"145 80 LINE",
"157 60 OFFCURVE",
"210 -10 OFFCURVE",
"319 -10 CURVE SMOOTH"
);
},
{
closed = 1;
nodes = (
"231 28 OFFCURVE",
"145 96 OFFCURVE",
"145 177 CURVE SMOOTH",
"145 415 LINE",
"185 463 OFFCURVE",
"249 502 OFFCURVE",
"323 502 CURVE SMOOTH",
"441 502 OFFCURVE",
"504 409 OFFCURVE",
"504 267 CURVE SMOOTH",
"504 103 OFFCURVE",
"419 28 OFFCURVE",
"315 28 CURVE SMOOTH"
);
}
);
width = 602;
}
);
leftMetricsKey = h;
rightMetricsKey = e;
unicode = 0062;
},
{
glyphname = c;
lastChange = "2017-03-23 04:40:25 +0000";
layers = (
{
anchors = (
{
name = bottom;
position = "{296, 0}";
},
{
name = top;
position = "{297, 530}";
}
);
background = {
anchors = (
{
name = bottom;
position = "{296, 0}";
},
{
name = top;
position = "{297, 530}";
}
);
paths = (
{
closed = 1;
nodes = (
"139 540 OFFCURVE",
"20 428 OFFCURVE",
"20 263 CURVE SMOOTH",
"20 101 OFFCURVE",
"137 -10 OFFCURVE",
"297 -10 CURVE SMOOTH",
"459 -10 OFFCURVE",
"525 105 OFFCURVE",
"535 157 CURVE SMOOTH",
"539 172 OFFCURVE",
"537 178 OFFCURVE",
"526 180 CURVE SMOOTH",
"432 198 LINE SMOOTH",
"419 200 OFFCURVE",
"415 198 OFFCURVE",
"412 193 CURVE SMOOTH",
"387 148 OFFCURVE",
"368 114 OFFCURVE",
"313 114 CURVE SMOOTH",
"256 114 OFFCURVE",
"222 154 OFFCURVE",
"222 265 CURVE SMOOTH",
"222 372 OFFCURVE",
"253 414 OFFCURVE",
"302 414 CURVE SMOOTH",
"350 414 OFFCURVE",
"359 376 OFFCURVE",
"363 351 CURVE SMOOTH",
"365 340 OFFCURVE",
"369 336 OFFCURVE",
"380 337 CURVE SMOOTH",
"517 344 LINE SMOOTH",
"534 345 OFFCURVE",
"540 353 OFFCURVE",
"535 370 CURVE SMOOTH",
"519 447 OFFCURVE",
"440 540 OFFCURVE",
"297 540 CURVE SMOOTH"
);
}
);
};
guideLines = (
{
angle = -0.5577;
position = "{-593, 185}";
},
{
position = "{576, 136}";
},
{
angle = 3.769;
position = "{454, 340}";
}
);
layerId = "258ED206-D907-4350-8EBA-CBDDA1C16BF7";
paths = (
{
closed = 1;
nodes = (
"143 540 OFFCURVE",
"20 427 OFFCURVE",
"20 263 CURVE SMOOTH",
"20 100 OFFCURVE",
"145 -10 OFFCURVE",
"297 -10 CURVE SMOOTH",
"442 -10 OFFCURVE",
"532 91 OFFCURVE",
"537 184 CURVE",
"370 205 LINE",
"365 174 OFFCURVE",
"352 117 OFFCURVE",
"302 117 CURVE SMOOTH",
"241 117 OFFCURVE",
"213 177 OFFCURVE",
"213 265 CURVE SMOOTH",
"213 355 OFFCURVE",
"243 413 OFFCURVE",
"302 413 CURVE SMOOTH",
"354 413 OFFCURVE",
"361 348 OFFCURVE",
"365 314 CURVE",
"540 335 LINE",
"537 434 OFFCURVE",
"447 540 OFFCURVE",
"297 540 CURVE SMOOTH"
);
}
);
width = 555;
},
{
anchors = (
{
name = bottom;
position = "{296, 0}";
},
{
name = top;
position = "{294, 530}";
}
);
background = {
anchors = (
{
name = bottom;
position = "{296, 0}";
},
{
name = top;
position = "{294, 530}";
}
);
paths = (
{
closed = 1;
nodes = (
"154 540 OFFCURVE",
"55 425 OFFCURVE",
"55 263 CURVE SMOOTH",
"55 100 OFFCURVE",
"152 -10 OFFCURVE",
"295 -10 CURVE SMOOTH",
"380 -10 OFFCURVE",
"452 29 OFFCURVE",
"500 107 CURVE SMOOTH",
"502 111 OFFCURVE",
"501 115 OFFCURVE",
"498 117 CURVE SMOOTH",
"475 132 LINE SMOOTH",
"471 135 OFFCURVE",
"469 134 OFFCURVE",
"465 128 CURVE SMOOTH",
"421 60 OFFCURVE",
"367 28 OFFCURVE",
"299 28 CURVE SMOOTH",
"177 28 OFFCURVE",
"97 123 OFFCURVE",
"97 265 CURVE SMOOTH",
"97 407 OFFCURVE",
"177 502 OFFCURVE",
"300 502 CURVE SMOOTH",
"356 502 OFFCURVE",
"401 478 OFFCURVE",
"456 411 CURVE SMOOTH",
"460 406 OFFCURVE",
"464 405 OFFCURVE",
"467 407 CURVE SMOOTH",
"491 423 LINE SMOOTH",
"494 425 OFFCURVE",
"495 427 OFFCURVE",
"491 433 CURVE SMOOTH",
"445 499 OFFCURVE",
"384 540 OFFCURVE",
"295 540 CURVE SMOOTH"
);
}
);
};
layerId = "91AB5BCA-6A50-42DA-B2F7-8181BF189245";
paths = (
{
closed = 1;
nodes = (
"152 540 OFFCURVE",
"55 426 OFFCURVE",
"55 263 CURVE SMOOTH",
"55 101 OFFCURVE",
"152 -10 OFFCURVE",
"295 -10 CURVE SMOOTH",
"382 -10 OFFCURVE",
"455 31 OFFCURVE",
"504 113 CURVE",
"470 135 LINE",
"425 62 OFFCURVE",
"371 28 OFFCURVE",
"299 28 CURVE SMOOTH",
"179 28 OFFCURVE",
"97 122 OFFCURVE",
"97 265 CURVE SMOOTH",
"97 406 OFFCURVE",
"181 502 OFFCURVE",
"300 502 CURVE SMOOTH",
"362 502 OFFCURVE",
"405 476 OFFCURVE",
"462 404 CURVE",
"496 426 LINE",
"449 496 OFFCURVE",
"384 540 OFFCURVE",
"295 540 CURVE SMOOTH"
);
}
);
width = 559;
}
);
leftKerningGroup = o;
leftMetricsKey = e;
unicode = 0063;
},
{
glyphname = d;
lastChange = "2017-03-21 16:20:44 +0000";
layers = (
{
anchors = (
{
name = bottom;
position = "{305, 0}";
},
{
name = center;
position = "{305, 265}";
},
{
name = topright;
position = "{591, 530}";
}
);
background = {
anchors = (
{
name = bottom;
position = "{305, 0}";
},
{
name = center;
position = "{305, 265}";
},
{
name = topright;
position = "{591, 530}";
}
);
paths = (
{
closed = 1;
nodes = (
"546 0 LINE SMOOTH",
"567 0 OFFCURVE",
"573 8 OFFCURVE",
"573 25 CURVE SMOOTH",
"573 719 LINE SMOOTH",
"573 734 OFFCURVE",
"565 742 OFFCURVE",
"554 742 CURVE SMOOTH",
"392 742 LINE SMOOTH",
"380 742 OFFCURVE",
"374 734 OFFCURVE",
"374 721 CURVE SMOOTH",
"374 496 LINE SMOOTH",
"374 480 OFFCURVE",
"365 480 OFFCURVE",
"355 488 CURVE SMOOTH",
"314 528 OFFCURVE",
"276 540 OFFCURVE",
"231 540 CURVE SMOOTH",
"121 540 OFFCURVE",
"21 431 OFFCURVE",
"21 263 CURVE SMOOTH",
"21 82 OFFCURVE",
"103 -10 OFFCURVE",
"221 -10 CURVE SMOOTH",
"283 -10 OFFCURVE",
"322 10 OFFCURVE",
"361 46 CURVE SMOOTH",
"368 52 OFFCURVE",
"376 51 OFFCURVE",
"376 42 CURVE SMOOTH",
"376 23 LINE SMOOTH",
"376 6 OFFCURVE",
"388 0 OFFCURVE",
"401 0 CURVE SMOOTH"
);
},
{
closed = 1;
nodes = (
"373 176 LINE SMOOTH",
"373 137 OFFCURVE",
"342 110 OFFCURVE",
"303 110 CURVE SMOOTH",
"252 110 OFFCURVE",
"223 149 OFFCURVE",
"223 264 CURVE SMOOTH",
"223 380 OFFCURVE",
"256 416 OFFCURVE",
"303 416 CURVE SMOOTH",
"334 416 OFFCURVE",
"352 403 OFFCURVE",
"373 378 CURVE"
);
}
);
};
layerId = "258ED206-D907-4350-8EBA-CBDDA1C16BF7";
paths = (
{
closed = 1;
nodes = (
"318 -10 OFFCURVE",
"375 26 OFFCURVE",
"416 84 CURVE",
"436 0 LINE",
"577 0 LINE",
"577 782 LINE",
"377 782 LINE",
"377 470 LINE",
"330 522 OFFCURVE",
"283 540 OFFCURVE",
"231 540 CURVE SMOOTH",
"101 540 OFFCURVE",
"25 436 OFFCURVE",
"25 269 CURVE SMOOTH",
"25 99 OFFCURVE",
"106 -10 OFFCURVE",
"252 -10 CURVE SMOOTH"
);
},
{
closed = 1;
nodes = (
"259 119 OFFCURVE",
"227 154 OFFCURVE",
"227 271 CURVE SMOOTH",
"227 387 OFFCURVE",
"262 410 OFFCURVE",
"303 410 CURVE SMOOTH",
"348 410 OFFCURVE",
"377 383 OFFCURVE",
"377 291 CURVE",
"377 245 LINE",
"377 156 OFFCURVE",
"350 119 OFFCURVE",
"306 119 CURVE"
);
}
);
width = 637;
},
{
anchors = (
{
name = bottom;
position = "{300, 0}";
},
{
name = center;
position = "{312, 265}";
},
{
name = topright;
position = "{625, 742}";
}
);
background = {
anchors = (
{
name = bottom;
position = "{300, 0}";
},
{
name = center;
position = "{312, 265}";
},
{
name = topright;
position = "{625, 742}";
}
);
paths = (
{
closed = 1;
nodes = (
"487 0 LINE SMOOTH",
"496 0 OFFCURVE",
"499 3 OFFCURVE",
"499 12 CURVE SMOOTH",
"499 733 LINE SMOOTH",
"499 739 OFFCURVE",
"496 742 OFFCURVE",
"491 742 CURVE SMOOTH",
"468 742 LINE SMOOTH",
"461 742 OFFCURVE",
"459 739 OFFCURVE",
"459 732 CURVE SMOOTH",
"459 493 LINE SMOOTH",
"459 480 OFFCURVE",
"457 476 OFFCURVE",
"445 486 CURVE SMOOTH",
"414 510 OFFCURVE",
"371 540 OFFCURVE",
"298 540 CURVE SMOOTH",
"151 540 OFFCURVE",
"55 425 OFFCURVE",
"55 255 CURVE SMOOTH",
"55 78 OFFCURVE",
"158 -10 OFFCURVE",
"286 -10 CURVE SMOOTH",
"382 -10 OFFCURVE",
"433 49 OFFCURVE",
"449 66 CURVE SMOOTH",
"457 74 OFFCURVE",
"461 73 OFFCURVE",
"461 62 CURVE SMOOTH",
"461 11 LINE SMOOTH",
"461 4 OFFCURVE",
"464 0 OFFCURVE",
"471 0 CURVE SMOOTH"
);
},
{
closed = 1;
nodes = (
"459 170 LINE SMOOTH",
"459 110 OFFCURVE",
"387 28 OFFCURVE",
"291 28 CURVE SMOOTH",
"189 28 OFFCURVE",
"97 100 OFFCURVE",
"97 259 CURVE SMOOTH",
"97 411 OFFCURVE",
"182 502 OFFCURVE",
"299 502 CURVE SMOOTH",
"360 502 OFFCURVE",
"410 474 OFFCURVE",
"459 426 CURVE"
);
}
);
};
layerId = "91AB5BCA-6A50-42DA-B2F7-8181BF189245";
paths = (
{
closed = 1;
nodes = (
"389 -10 OFFCURVE",
"444 59 OFFCURVE",
"461 79 CURVE",
"461 0 LINE",
"499 0 LINE",
"499 782 LINE",
"459 782 LINE",
"459 475 LINE",
"407 517 OFFCURVE",
"362 540 OFFCURVE",
"298 540 CURVE SMOOTH",
"151 540 OFFCURVE",
"55 425 OFFCURVE",
"55 255 CURVE SMOOTH",
"55 78 OFFCURVE",
"158 -10 OFFCURVE",
"286 -10 CURVE SMOOTH"
);
},
{
closed = 1;
nodes = (
"189 28 OFFCURVE",
"97 100 OFFCURVE",
"97 259 CURVE SMOOTH",
"97 411 OFFCURVE",
"182 502 OFFCURVE",
"299 502 CURVE SMOOTH",
"360 502 OFFCURVE",
"410 474 OFFCURVE",
"459 426 CURVE",
"459 170 LINE",
"459 110 OFFCURVE",
"387 28 OFFCURVE",
"291 28 CURVE SMOOTH"
);
}
);
width = 604;
}
);
leftKerningGroup = o;
unicode = 0064;
},
{
glyphname = eth;
lastChange = "2017-03-13 19:23:12 +0000";
layers = (
{
background = {
paths = (
{
closed = 1;
nodes = (
"573 440 OFFCURVE",
"498 582 OFFCURVE",
"374 669 CURVE",
"420 695 LINE SMOOTH",
"426 699 OFFCURVE",
"427 704 OFFCURVE",
"424 709 CURVE SMOOTH",
"403 747 LINE SMOOTH",
"399 752 OFFCURVE",
"392 754 OFFCURVE",
"385 749 CURVE SMOOTH",
"310 707 LINE",
"273 726 OFFCURVE",
"232 740 OFFCURVE",
"189 750 CURVE SMOOTH",
"177 753 OFFCURVE",
"175 752 OFFCURVE",
"168 746 CURVE SMOOTH",
"84 677 LINE SMOOTH",
"77 671 OFFCURVE",
"80 665 OFFCURVE",
"86 663 CURVE SMOOTH",
"116 653 OFFCURVE",
"143 641 OFFCURVE",
"168 628 CURVE",
"97 589 LINE SMOOTH",
"90 586 OFFCURVE",
"87 578 OFFCURVE",
"95 567 CURVE SMOOTH",
"110 543 LINE SMOOTH",
"117 532 OFFCURVE",
"123 530 OFFCURVE",
"134 536 CURVE SMOOTH",
"230 590 LINE",
"258 569 OFFCURVE",
"277 551 OFFCURVE",
"296 525 CURVE SMOOTH",
"298 522 OFFCURVE",
"298 520 OFFCURVE",
"294 520 CURVE SMOOTH",
"136 520 OFFCURVE",
"15 409 OFFCURVE",
"15 252 CURVE SMOOTH",
"15 103 OFFCURVE",
"129 -10 OFFCURVE",
"293 -10 CURVE SMOOTH",
"460 -10 OFFCURVE",
"573 102 OFFCURVE",
"573 282 CURVE SMOOTH"
);
},
{
closed = 1;
nodes = (
"241 118 OFFCURVE",
"217 162 OFFCURVE",
"217 256 CURVE SMOOTH",
"217 351 OFFCURVE",
"241 396 OFFCURVE",
"294 396 CURVE SMOOTH",
"348 396 OFFCURVE",
"371 351 OFFCURVE",
"371 256 CURVE SMOOTH",
"371 163 OFFCURVE",
"348 118 OFFCURVE",
"294 118 CURVE SMOOTH"
);
}
);
};
layerId = "258ED206-D907-4350-8EBA-CBDDA1C16BF7";
paths = (
{
closed = 1;
nodes = (
"573 440 OFFCURVE",
"498 582 OFFCURVE",
"374 669 CURVE",
"429 700 LINE",
"398 756 LINE",
"310 707 LINE",
"269 727 OFFCURVE",
"224 742 OFFCURVE",
"176 753 CURVE",
"73 668 LINE",
"107 656 OFFCURVE",
"139 643 OFFCURVE",
"168 628 CURVE",
"85 583 LINE",
"119 528 LINE",
"230 590 LINE",
"258 569 OFFCURVE",
"277 551 OFFCURVE",
"296 525 CURVE SMOOTH",
"298 522 OFFCURVE",
"298 520 OFFCURVE",
"294 520 CURVE SMOOTH",
"136 520 OFFCURVE",
"15 409 OFFCURVE",
"15 252 CURVE SMOOTH",
"15 103 OFFCURVE",
"129 -10 OFFCURVE",
"293 -10 CURVE SMOOTH",
"460 -10 OFFCURVE",
"573 102 OFFCURVE",
"573 282 CURVE SMOOTH"
);
},
{
closed = 1;
nodes = (
"241 118 OFFCURVE",
"217 162 OFFCURVE",
"217 256 CURVE SMOOTH",
"217 351 OFFCURVE",
"241 396 OFFCURVE",
"294 396 CURVE SMOOTH",
"348 396 OFFCURVE",
"371 351 OFFCURVE",
"371 256 CURVE SMOOTH",
"371 163 OFFCURVE",
"348 118 OFFCURVE",
"294 118 CURVE SMOOTH"
);
}
);
width = 588;
},
{
background = {
paths = (
{
closed = 1;
nodes = (
"541 422 OFFCURVE",
"486 563 OFFCURVE",
"330 669 CURVE",
"420 719 LINE SMOOTH",
"423 721 OFFCURVE",
"423 724 OFFCURVE",
"421 727 CURVE SMOOTH",
"409 749 LINE SMOOTH",
"408 751 OFFCURVE",
"403 752 OFFCURVE",
"400 750 CURVE SMOOTH",
"296 692 LINE",
"261 713 OFFCURVE",
"224 731 OFFCURVE",
"180 749 CURVE SMOOTH",
"171 753 OFFCURVE",
"168 751 OFFCURVE",
"162 747 CURVE SMOOTH",
"144 735 LINE SMOOTH",
"139 731 OFFCURVE",
"140 726 OFFCURVE",
"145 724 CURVE SMOOTH",
"187 707 OFFCURVE",
"224 689 OFFCURVE",
"258 670 CURVE",
"103 583 LINE SMOOTH",
"100 581 OFFCURVE",
"98 578 OFFCURVE",
"102 572 CURVE SMOOTH",
"111 558 LINE SMOOTH",
"115 552 OFFCURVE",
"118 550 OFFCURVE",
"124 553 CURVE SMOOTH",
"292 648 LINE",
"378 590 OFFCURVE",
"431 523 OFFCURVE",
"462 451 CURVE",
"419 494 OFFCURVE",
"360 520 OFFCURVE",
"289 520 CURVE SMOOTH",
"153 520 OFFCURVE",
"55 408 OFFCURVE",
"55 252 CURVE SMOOTH",
"55 98 OFFCURVE",
"152 -10 OFFCURVE",
"296 -10 CURVE SMOOTH",
"450 -10 OFFCURVE",
"541 101 OFFCURVE",
"541 255 CURVE SMOOTH"
);
},
{
closed = 1;
nodes = (
"184 28 OFFCURVE",
"97 128 OFFCURVE",
"97 254 CURVE SMOOTH",
"97 380 OFFCURVE",
"184 482 OFFCURVE",
"299 482 CURVE SMOOTH",
"413 482 OFFCURVE",
"499 381 OFFCURVE",
"499 254 CURVE SMOOTH",
"499 127 OFFCURVE",
"415 28 OFFCURVE",
"300 28 CURVE SMOOTH"
);
}
);
};
layerId = "91AB5BCA-6A50-42DA-B2F7-8181BF189245";
paths = (
{
closed = 1;
nodes = (
"541 422 OFFCURVE",
"486 563 OFFCURVE",
"330 669 CURVE",
"424 721 LINE",
"407 754 LINE",
"296 692 LINE",
"258 714 OFFCURVE",
"218 734 OFFCURVE",
"171 753 CURVE",
"134 728 LINE",
"180 710 OFFCURVE",
"221 691 OFFCURVE",
"258 670 CURVE",
"97 580 LINE",
"117 549 LINE",
"292 648 LINE",
"378 590 OFFCURVE",
"431 523 OFFCURVE",
"462 451 CURVE",
"419 494 OFFCURVE",
"360 520 OFFCURVE",
"289 520 CURVE SMOOTH",
"153 520 OFFCURVE",
"55 408 OFFCURVE",
"55 252 CURVE SMOOTH",
"55 98 OFFCURVE",
"152 -10 OFFCURVE",
"296 -10 CURVE SMOOTH",
"450 -10 OFFCURVE",
"541 101 OFFCURVE",
"541 255 CURVE SMOOTH"
);
},
{
closed = 1;
nodes = (
"184 28 OFFCURVE",
"97 128 OFFCURVE",
"97 254 CURVE SMOOTH",
"97 380 OFFCURVE",
"184 482 OFFCURVE",
"299 482 CURVE SMOOTH",
"413 482 OFFCURVE",
"499 381 OFFCURVE",
"499 254 CURVE SMOOTH",
"499 127 OFFCURVE",
"415 28 OFFCURVE",
"300 28 CURVE SMOOTH"
);
}
);
width = 601;
}
);
leftMetricsKey = o;
rightMetricsKey = o;
unicode = 00F0;
},
{
glyphname = dcroat;
lastChange = "2017-01-26 17:38:57 +0000";
layers = (
{
background = {
components = (
{
name = d;
}
);
paths = (
{
closed = 1;
nodes = (
"613 680 OFFCURVE",
"607 687 OFFCURVE",
"597 687 CURVE SMOOTH",
"258 687 LINE SMOOTH",
"248 687 OFFCURVE",
"242 680 OFFCURVE",
"242 667 CURVE SMOOTH",
"242 602 LINE SMOOTH",
"242 587 OFFCURVE",
"247 580 OFFCURVE",
"264 580 CURVE SMOOTH",
"584 580 LINE SMOOTH",
"604 580 OFFCURVE",
"613 587 OFFCURVE",
"613 604 CURVE SMOOTH",
"613 669 LINE SMOOTH"
);
}
);
};
components = (
{
name = d;
}
);
layerId = "258ED206-D907-4350-8EBA-CBDDA1C16BF7";
paths = (
{
closed = 1;
nodes = (
"242 687 LINE",
"242 580 LINE",
"613 580 LINE",
"613 687 LINE"
);
}
);
width = 636;
},
{
background = {
components = (
{
name = d;
transform = "{1, 0, 0, 1, 4, 0}";
}
);
paths = (
{
closed = 1;
nodes = (
"581 660 OFFCURVE",
"579 662 OFFCURVE",
"576 662 CURVE SMOOTH",
"297 662 LINE SMOOTH",
"294 662 OFFCURVE",
"292 660 OFFCURVE",
"292 655 CURVE SMOOTH",
"292 635 LINE SMOOTH",
"292 629 OFFCURVE",
"293 627 OFFCURVE",
"299 627 CURVE SMOOTH",
"571 627 LINE SMOOTH",
"578 627 OFFCURVE",
"581 629 OFFCURVE",
"581 635 CURVE SMOOTH",
"581 656 LINE SMOOTH"
);
}
);
};
components = (
{
name = d;
}
);
layerId = "91AB5BCA-6A50-42DA-B2F7-8181BF189245";
paths = (
{
closed = 1;
nodes = (
"292 662 LINE",
"292 627 LINE",
"581 627 LINE",
"581 662 LINE"
);
}
);
width = 606;
}
);
leftKerningGroup = o;
leftMetricsKey = d;
unicode = 0111;
},
{
glyphname = e;
lastChange = "2017-03-23 16:45:10 +0000";
layers = (
{
anchors = (
{
name = bottom;
position = "{303, 0}";
},
{
name = ogonek;
position = "{432, 26}";
},
{
name = top;
position = "{300, 530}";
}
);
background = {
anchors = (
{
name = bottom;
position = "{303, 0}";
},
{
name = ogonek;
position = "{432, 26}";
},
{
name = top;
position = "{300, 530}";
}
);
paths = (
{
closed = 1;
nodes = (
"226 224 OFFCURVE",
"231 229 OFFCURVE",
"241 229 CURVE SMOOTH",
"552 229 LINE SMOOTH",
"569 230 OFFCURVE",
"570 237 OFFCURVE",
"570 254 CURVE SMOOTH",
"570 435 OFFCURVE",
"455 540 OFFCURVE",
"298 540 CURVE SMOOTH",
"150 540 OFFCURVE",
"20 426 OFFCURVE",
"20 256 CURVE SMOOTH",
"20 99 OFFCURVE",
"142 -10 OFFCURVE",
"302 -10 CURVE SMOOTH",
"414 -10 OFFCURVE",
"482 17 OFFCURVE",
"554 118 CURVE SMOOTH",
"563 129 OFFCURVE",
"560 138 OFFCURVE",
"550 142 CURVE SMOOTH",
"459 179 LINE SMOOTH",
"446 184 OFFCURVE",
"443 183 OFFCURVE",
"438 178 CURVE SMOOTH",
"394 135 OFFCURVE",
"363 122 OFFCURVE",
"329 122 CURVE SMOOTH",
"271 122 OFFCURVE",
"226 151 OFFCURVE",
"226 212 CURVE SMOOTH"
);
},
{
closed = 1;
nodes = (
"228 395 OFFCURVE",
"266 423 OFFCURVE",
"307 423 CURVE SMOOTH",
"357 423 OFFCURVE",
"376 372 OFFCURVE",
"376 346 CURVE SMOOTH",
"376 334 OFFCURVE",
"372 332 OFFCURVE",
"359 332 CURVE SMOOTH",
"229 333 LINE"
);
}
);
};
layerId = "258ED206-D907-4350-8EBA-CBDDA1C16BF7";
paths = (
{
closed = 1;
nodes = (
"570 208 LINE",
"570 395 OFFCURVE",
"500 540 OFFCURVE",
"298 540 CURVE SMOOTH",
"136 540 OFFCURVE",
"20 422 OFFCURVE",
"20 256 CURVE SMOOTH",
"20 95 OFFCURVE",
"141 -10 OFFCURVE",
"307 -10 CURVE SMOOTH",
"424 -10 OFFCURVE",
"516 42 OFFCURVE",
"558 138 CURVE",
"405 173 LINE",
"388 138 OFFCURVE",
"347 114 OFFCURVE",
"310 114 CURVE SMOOTH",
"269 114 OFFCURVE",
"215 143 OFFCURVE",
"215 208 CURVE"
);
},
{
closed = 1;
nodes = (
"219 375 OFFCURVE",
"249 418 OFFCURVE",
"305 418 CURVE SMOOTH",
"361 418 OFFCURVE",
"390 375 OFFCURVE",
"390 335 CURVE",
"219 335 LINE"
);
}
);
width = 590;
},
{
anchors = (
{
name = bottom;
position = "{278, 0}";
},
{
name = ogonek;
position = "{383, 18}";
},
{
name = top;
position = "{287, 530}";
}
);
background = {
anchors = (
{
name = bottom;
position = "{290, 0}";
},
{
name = ogonek;
position = "{383, 18}";
},
{
name = top;
position = "{287, 530}";
}
);
paths = (
{
closed = 1;
nodes = (
"88 247 OFFCURVE",
"90 254 OFFCURVE",
"94 254 CURVE SMOOTH",
"505 254 LINE SMOOTH",
"520 254 OFFCURVE",
"518 266 OFFCURVE",
"518 274 CURVE SMOOTH",
"518 442 OFFCURVE",
"430 540 OFFCURVE",
"289 540 CURVE SMOOTH",
"148 540 OFFCURVE",
"46 436 OFFCURVE",
"46 261 CURVE SMOOTH",
"46 100 OFFCURVE",
"145 -10 OFFCURVE",
"289 -10 CURVE SMOOTH",
"383 -10 OFFCURVE",
"453 27 OFFCURVE",
"499 100 CURVE SMOOTH",
"502 104 OFFCURVE",
"501 108 OFFCURVE",
"498 110 CURVE SMOOTH",
"475 125 LINE SMOOTH",
"471 128 OFFCURVE",
"468 127 OFFCURVE",
"464 121 CURVE SMOOTH",
"428 61 OFFCURVE",
"369 28 OFFCURVE",
"289 28 CURVE SMOOTH",
"177 28 OFFCURVE",
"88 127 OFFCURVE",
"88 240 CURVE SMOOTH"
);
},
{
closed = 1;
nodes = (
"88 390 OFFCURVE",
"156 502 OFFCURVE",
"288 502 CURVE SMOOTH",
"404 502 OFFCURVE",
"476 414 OFFCURVE",
"476 304 CURVE SMOOTH",
"476 293 OFFCURVE",
"473 290 OFFCURVE",
"459 290 CURVE SMOOTH",
"89 290 LINE"
);
}
);
};
guideLines = (
{
angle = 88.4926;
position = "{289, 521}";
}
);
layerId = "91AB5BCA-6A50-42DA-B2F7-8181BF189245";
paths = (
{
closed = 1;
nodes = (
"508 254 LINE",
"508 435 OFFCURVE",
"433 540 OFFCURVE",
"289 540 CURVE SMOOTH",
"145 540 OFFCURVE",
"55 436 OFFCURVE",
"55 261 CURVE SMOOTH",
"55 87 OFFCURVE",
"160 -10 OFFCURVE",
"299 -10 CURVE SMOOTH",
"384 -10 OFFCURVE",
"459 28 OFFCURVE",
"496 109 CURVE",
"457 123 LINE",
"426 65 OFFCURVE",
"381 30 OFFCURVE",
"299 30 CURVE SMOOTH",
"165 30 OFFCURVE",
"98 134 OFFCURVE",
"98 254 CURVE"
);
},
{
closed = 1;
nodes = (
"98 394 OFFCURVE",
"159 500 OFFCURVE",
"288 500 CURVE SMOOTH",
"407 500 OFFCURVE",
"466 412 OFFCURVE",
"466 294 CURVE",
"99 294 LINE"
);
}
);
width = 563;
}
);
leftKerningGroup = o;
unicode = 0065;
},
{
glyphname = f;
lastChange = "2017-03-22 17:15:58 +0000";
layers = (
{
background = {
paths = (
{
closed = 1;
nodes = (
"309 530 LINE SMOOTH",
"301 530 OFFCURVE",
"296 533 OFFCURVE",
"296 543 CURVE SMOOTH",
"296 561 LINE SMOOTH",
"296 589 OFFCURVE",
"318 612 OFFCURVE",
"341 612 CURVE SMOOTH",
"384 612 LINE SMOOTH",
"396 612 OFFCURVE",
"402 621 OFFCURVE",
"402 632 CURVE",
"401 716 LINE",
"401 732 OFFCURVE",
"391 742 OFFCURVE",
"372 742 CURVE SMOOTH",
"259 742 LINE SMOOTH",
"162 742 OFFCURVE",
"101 688 OFFCURVE",
"101 601 CURVE SMOOTH",
"101 548 LINE SMOOTH",
"101 535 OFFCURVE",
"98 530 OFFCURVE",
"87 530 CURVE SMOOTH",
"39 530 LINE SMOOTH",
"22 530 OFFCURVE",
"15 520 OFFCURVE",
"15 508 CURVE SMOOTH",
"15 414 LINE SMOOTH",
"15 400 OFFCURVE",
"23 395 OFFCURVE",
"37 395 CURVE SMOOTH",
"93 395 LINE SMOOTH",
"99 395 OFFCURVE",
"101 392 OFFCURVE",
"101 385 CURVE SMOOTH",
"101 20 LINE SMOOTH",
"101 7 OFFCURVE",
"108 0 OFFCURVE",
"119 0 CURVE SMOOTH",
"282 0 LINE SMOOTH",
"294 0 OFFCURVE",
"301 7 OFFCURVE",
"301 22 CURVE SMOOTH",
"301 383 LINE SMOOTH",
"301 391 OFFCURVE",
"306 395 OFFCURVE",
"313 395 CURVE SMOOTH",
"375 395 LINE SMOOTH",
"388 395 OFFCURVE",
"397 400 OFFCURVE",
"397 414 CURVE SMOOTH",
"397 508 LINE SMOOTH",
"397 520 OFFCURVE",
"389 530 OFFCURVE",
"372 530 CURVE SMOOTH"
);
}
);
};
layerId = "258ED206-D907-4350-8EBA-CBDDA1C16BF7";
paths = (
{
closed = 1;
nodes = (
"296 530 LINE",
"296 561 LINE SMOOTH",
"296 600 OFFCURVE",
"308 612 OFFCURVE",
"341 612 CURVE SMOOTH",
"402 612 LINE",
"401 742 LINE",
"259 742 LINE SMOOTH",
"162 742 OFFCURVE",
"101 688 OFFCURVE",
"101 601 CURVE SMOOTH",
"101 530 LINE",
"15 530 LINE",
"15 395 LINE",
"101 395 LINE",
"101 0 LINE",
"301 0 LINE",
"301 395 LINE",
"397 395 LINE",
"397 530 LINE"
);
}
);
width = 417;
},
{
background = {
paths = (
{
closed = 1;
nodes = (
"208 530 LINE SMOOTH",
"203 530 OFFCURVE",
"201 532 OFFCURVE",
"201 537 CURVE SMOOTH",
"201 627 LINE SMOOTH",
"201 678 OFFCURVE",
"214 707 OFFCURVE",
"264 707 CURVE SMOOTH",
"344 707 LINE SMOOTH",
"349 707 OFFCURVE",
"352 709 OFFCURVE",
"352 714 CURVE SMOOTH",
"352 735 LINE SMOOTH",
"352 740 OFFCURVE",
"350 742 OFFCURVE",
"346 742 CURVE SMOOTH",
"274 742 LINE SMOOTH",
"194 742 OFFCURVE",
"161 700 OFFCURVE",
"161 618 CURVE SMOOTH",
"161 537 LINE SMOOTH",
"161 532 OFFCURVE",
"159 530 OFFCURVE",
"154 530 CURVE SMOOTH",
"41 530 LINE SMOOTH",
"37 530 OFFCURVE",
"35 528 OFFCURVE",
"35 524 CURVE SMOOTH",
"35 501 LINE SMOOTH",
"35 497 OFFCURVE",
"37 495 OFFCURVE",
"41 495 CURVE SMOOTH",
"155 495 LINE SMOOTH",
"159 495 OFFCURVE",
"161 492 OFFCURVE",
"161 488 CURVE SMOOTH",
"161 10 LINE SMOOTH",
"161 3 OFFCURVE",
"163 0 OFFCURVE",
"169 0 CURVE SMOOTH",
"192 0 LINE SMOOTH",
"198 0 OFFCURVE",
"201 3 OFFCURVE",
"201 11 CURVE SMOOTH",
"201 488 LINE SMOOTH",
"201 493 OFFCURVE",
"203 495 OFFCURVE",
"208 495 CURVE SMOOTH",
"341 495 LINE SMOOTH",
"345 495 OFFCURVE",
"347 497 OFFCURVE",
"347 501 CURVE SMOOTH",
"347 524 LINE SMOOTH",
"347 528 OFFCURVE",
"345 530 OFFCURVE",
"342 530 CURVE SMOOTH"
);
}
);
};
layerId = "91AB5BCA-6A50-42DA-B2F7-8181BF189245";
paths = (
{
closed = 1;
nodes = (
"201 530 LINE",
"201 627 LINE SMOOTH",
"201 678 OFFCURVE",
"214 707 OFFCURVE",
"264 707 CURVE SMOOTH",
"352 707 LINE",
"352 742 LINE",
"274 742 LINE SMOOTH",
"194 742 OFFCURVE",
"161 700 OFFCURVE",
"161 618 CURVE SMOOTH",
"161 530 LINE",
"35 530 LINE",
"35 495 LINE",
"161 495 LINE",
"161 0 LINE",
"201 0 LINE",
"201 495 LINE",
"347 495 LINE",
"347 530 LINE"
);
}
);
width = 387;
}
);
leftKerningGroup = f;
rightKerningGroup = f;
unicode = 0066;
},
{
glyphname = g;
lastChange = "2017-03-22 17:08:18 +0000";
layers = (
{
anchors = (
{
name = top;
position = "{325, 530}";
}
);
background = {
anchors = (
{
name = top;
position = "{325, 530}";
}
);
paths = (
{
closed = 1;
nodes = (
"605 562 OFFCURVE",
"549 534 OFFCURVE",
"522 496 CURVE SMOOTH",
"515 486 OFFCURVE",
"501 485 OFFCURVE",
"491 493 CURVE SMOOTH",
"458 519 OFFCURVE",
"400 538 OFFCURVE",
"324 538 CURVE SMOOTH",
"145 538 OFFCURVE",
"54 469 OFFCURVE",
"54 373 CURVE SMOOTH",
"54 312 OFFCURVE",
"92 265 OFFCURVE",
"158 237 CURVE SMOOTH",
"168 231 OFFCURVE",
"161 228 OFFCURVE",
"155 225 CURVE SMOOTH",
"101 202 OFFCURVE",
"46 169 OFFCURVE",
"46 122 CURVE SMOOTH",
"46 81 OFFCURVE",
"77 56 OFFCURVE",
"112 39 CURVE SMOOTH",
"120 35 OFFCURVE",
"122 31 OFFCURVE",
"112 28 CURVE SMOOTH",
"59 13 OFFCURVE",
"15 -8 OFFCURVE",
"15 -53 CURVE SMOOTH",
"15 -137 OFFCURVE",
"117 -175 OFFCURVE",
"326 -175 CURVE SMOOTH",
"527 -175 OFFCURVE",
"629 -99 OFFCURVE",
"629 3 CURVE SMOOTH",
"629 85 OFFCURVE",
"563 143 OFFCURVE",
"415 152 CURVE SMOOTH",
"263 161 LINE SMOOTH",
"234 163 OFFCURVE",
"219 167 OFFCURVE",
"219 182 CURVE SMOOTH",
"219 198 OFFCURVE",
"246 209 OFFCURVE",
"312 209 CURVE SMOOTH",
"480 209 OFFCURVE",
"569 284 OFFCURVE",
"569 374 CURVE SMOOTH",
"569 384 OFFCURVE",
"567 395 OFFCURVE",
"564 405 CURVE SMOOTH",
"560 419 OFFCURVE",
"565 428 OFFCURVE",
"584 428 CURVE SMOOTH",
"596 428 OFFCURVE",
"615 425 OFFCURVE",
"628 421 CURVE SMOOTH",
"643 416 OFFCURVE",
"654 424 OFFCURVE",
"654 447 CURVE SMOOTH",
"654 537 LINE SMOOTH",
"654 555 OFFCURVE",
"645 562 OFFCURVE",
"634 562 CURVE SMOOTH"
);
},
{
closed = 1;
nodes = (
"260 300 OFFCURVE",
"232 334 OFFCURVE",
"232 370 CURVE SMOOTH",
"232 411 OFFCURVE",
"260 445 OFFCURVE",
"310 445 CURVE SMOOTH",
"366 445 OFFCURVE",
"388 411 OFFCURVE",
"388 370 CURVE SMOOTH",
"388 335 OFFCURVE",
"366 300 OFFCURVE",
"310 300 CURVE SMOOTH"
);
},
{
closed = 1;
nodes = (
"433 0 OFFCURVE",
"456 -16 OFFCURVE",
"456 -35 CURVE SMOOTH",
"456 -64 OFFCURVE",
"414 -86 OFFCURVE",
"336 -86 CURVE SMOOTH",
"211 -86 OFFCURVE",
"176 -64 OFFCURVE",
"176 -27 CURVE SMOOTH",
"176 -6 OFFCURVE",
"202 10 OFFCURVE",
"245 8 CURVE SMOOTH",
"390 2 LINE SMOOTH"
);
}
);
};
layerId = "258ED206-D907-4350-8EBA-CBDDA1C16BF7";
paths = (
{
closed = 1;
nodes = (
"527 -175 OFFCURVE",
"629 -99 OFFCURVE",
"629 3 CURVE SMOOTH",
"629 85 OFFCURVE",
"564 152 OFFCURVE",
"417 162 CURVE SMOOTH",
"372 165 OFFCURVE",
"330 167 OFFCURVE",
"312 168 CURVE SMOOTH",
"260 171 OFFCURVE",
"227 171 OFFCURVE",
"227 186 CURVE",
"227 191 OFFCURVE",
"231 193 OFFCURVE",
"241 195 CURVE",
"259 193 OFFCURVE",
"295 192 OFFCURVE",
"312 192 CURVE SMOOTH",
"480 192 OFFCURVE",
"569 284 OFFCURVE",
"569 374 CURVE SMOOTH",
"569 381 OFFCURVE",
"568 390 OFFCURVE",
"566 397 CURVE SMOOTH",
"562 411 OFFCURVE",
"565 419 OFFCURVE",
"584 421 CURVE SMOOTH",
"605 423 OFFCURVE",
"632 426 OFFCURVE",
"653 428 CURVE",
"654 569 LINE",
"620 555 OFFCURVE",
"569 535 OFFCURVE",
"522 516 CURVE SMOOTH",
"512 512 OFFCURVE",
"482 500 OFFCURVE",
"480 501 CURVE SMOOTH",
"441 521 OFFCURVE",
"400 538 OFFCURVE",
"324 538 CURVE SMOOTH",
"180 538 OFFCURVE",
"54 480 OFFCURVE",
"54 373 CURVE SMOOTH",
"54 317 OFFCURVE",
"91 249 OFFCURVE",
"168 215 CURVE",
"85 204 OFFCURVE",
"46 164 OFFCURVE",
"46 122 CURVE SMOOTH",
"46 84 OFFCURVE",
"77 56 OFFCURVE",
"112 39 CURVE SMOOTH",
"120 35 OFFCURVE",
"122 31 OFFCURVE",
"112 28 CURVE SMOOTH",
"59 13 OFFCURVE",
"15 -8 OFFCURVE",
"15 -53 CURVE SMOOTH",
"15 -121 OFFCURVE",
"117 -175 OFFCURVE",
"326 -175 CURVE SMOOTH"
);
},
{
closed = 1;
nodes = (
"255 -71 OFFCURVE",
"209 -64 OFFCURVE",
"209 -30 CURVE SMOOTH",
"209 -12 OFFCURVE",
"223 11 OFFCURVE",
"278 8 CURVE SMOOTH",
"374 2 LINE SMOOTH",
"415 -1 OFFCURVE",
"440 -15 OFFCURVE",
"440 -38 CURVE SMOOTH",
"440 -57 OFFCURVE",
"427 -71 OFFCURVE",
"357 -71 CURVE SMOOTH"
);
},
{
closed = 1;
nodes = (
"280 296 OFFCURVE",
"254 326 OFFCURVE",
"254 366 CURVE SMOOTH",
"254 406 OFFCURVE",
"280 441 OFFCURVE",
"318 441 CURVE SMOOTH",
"356 441 OFFCURVE",
"382 406 OFFCURVE",
"382 366 CURVE SMOOTH",
"382 326 OFFCURVE",
"356 296 OFFCURVE",
"318 296 CURVE SMOOTH"
);
}
);
width = 664;
},
{
anchors = (
{
name = top;
position = "{293, 530}";
}
);
background = {
anchors = (
{
name = top;
position = "{293, 530}";
}
);
guideLines = (
{
angle = 90;
position = "{289, 374}";
showMeasurement = 1;
}
);
paths = (
{
closed = 1;
nodes = (
"507 530 OFFCURVE",
"477 507 OFFCURVE",
"457 492 CURVE SMOOTH",
"450 487 OFFCURVE",
"446 487 OFFCURVE",
"439 493 CURVE SMOOTH",
"405 522 OFFCURVE",
"362 538 OFFCURVE",
"296 538 CURVE SMOOTH",
"164 538 OFFCURVE",
"86 475 OFFCURVE",
"86 369 CURVE SMOOTH",
"86 307 OFFCURVE",
"110 266 OFFCURVE",
"165 235 CURVE SMOOTH",
"172 231 OFFCURVE",
"174 225 OFFCURVE",
"166 223 CURVE SMOOTH",
"116 207 OFFCURVE",
"99 181 OFFCURVE",
"99 159 CURVE SMOOTH",
"99 137 OFFCURVE",
"110 121 OFFCURVE",
"137 109 CURVE SMOOTH",
"144 106 OFFCURVE",
"144 102 OFFCURVE",
"137 98 CURVE SMOOTH",
"74 63 OFFCURVE",
"45 21 OFFCURVE",
"45 -27 CURVE SMOOTH",
"45 -120 OFFCURVE",
"131 -175 OFFCURVE",
"285 -175 CURVE SMOOTH",
"436 -175 OFFCURVE",
"524 -119 OFFCURVE",
"524 -19 CURVE SMOOTH",
"524 60 OFFCURVE",
"477 110 OFFCURVE",
"370 116 CURVE SMOOTH",
"250 123 LINE SMOOTH",
"173 127 OFFCURVE",
"141 136 OFFCURVE",
"141 160 CURVE SMOOTH",
"141 184 OFFCURVE",
"174 209 OFFCURVE",
"289 209 CURVE SMOOTH",
"430 209 OFFCURVE",
"491 280 OFFCURVE",
"491 369 CURVE SMOOTH",
"491 411 OFFCURVE",
"477 434 OFFCURVE",
"470 451 CURVE SMOOTH",
"467 458 OFFCURVE",
"472 464 OFFCURVE",
"490 474 CURVE SMOOTH",
"506 483 OFFCURVE",
"519 487 OFFCURVE",
"545 488 CURVE SMOOTH",
"559 489 OFFCURVE",
"562 495 OFFCURVE",
"562 504 CURVE SMOOTH",
"562 517 LINE SMOOTH",
"562 526 OFFCURVE",
"558 530 OFFCURVE",
"543 530 CURVE SMOOTH"
);
},
{
closed = 1;
nodes = (
"185 247 OFFCURVE",
"126 290 OFFCURVE",
"126 371 CURVE SMOOTH",
"126 453 OFFCURVE",
"186 500 OFFCURVE",
"290 500 CURVE SMOOTH",
"396 500 OFFCURVE",
"451 454 OFFCURVE",
"451 371 CURVE SMOOTH",
"451 289 OFFCURVE",
"398 247 OFFCURVE",
"290 247 CURVE SMOOTH"
);
},
{
closed = 1;
nodes = (
"453 70 OFFCURVE",
"482 36 OFFCURVE",
"482 -19 CURVE SMOOTH",
"482 -101 OFFCURVE",
"416 -137 OFFCURVE",
"294 -137 CURVE SMOOTH",
"163 -137 OFFCURVE",
"87 -96 OFFCURVE",
"87 -23 CURVE SMOOTH",
"87 43 OFFCURVE",
"161 88 OFFCURVE",
"193 86 CURVE SMOOTH",
"369 75 LINE SMOOTH"
);
}
);
};
guideLines = (
{
angle = 90;
position = "{397, 374}";
showMeasurement = 1;
}
);
layerId = "91AB5BCA-6A50-42DA-B2F7-8181BF189245";
paths = (
{
closed = 1;
nodes = (
"436 -175 OFFCURVE",
"524 -119 OFFCURVE",
"524 -19 CURVE SMOOTH",
"524 60 OFFCURVE",
"477 110 OFFCURVE",
"370 116 CURVE SMOOTH",
"320 119 OFFCURVE",
"281 121 OFFCURVE",
"250 123 CURVE SMOOTH",
"165 129 OFFCURVE",
"141 137 OFFCURVE",
"141 160 CURVE SMOOTH",
"141 183 OFFCURVE",
"172 207 OFFCURVE",
"278 209 CURVE SMOOTH",
"282 209 OFFCURVE",
"285 209 OFFCURVE",
"289 209 CURVE SMOOTH",
"430 209 OFFCURVE",
"491 280 OFFCURVE",
"491 369 CURVE SMOOTH",
"491 407 OFFCURVE",
"478 433 OFFCURVE",
"473 444 CURVE SMOOTH",
"467 457 OFFCURVE",
"467 459 OFFCURVE",
"490 464 CURVE SMOOTH",
"515 469 OFFCURVE",
"525 471 OFFCURVE",
"562 478 CURVE",
"562 537 LINE",
"523 521 OFFCURVE",
"481 503 OFFCURVE",
"457 492 CURVE SMOOTH",
"450 489 OFFCURVE",
"446 487 OFFCURVE",
"439 493 CURVE SMOOTH",
"405 522 OFFCURVE",
"362 538 OFFCURVE",
"296 538 CURVE SMOOTH",
"164 538 OFFCURVE",
"86 475 OFFCURVE",
"86 369 CURVE SMOOTH",
"86 303 OFFCURVE",
"111 264 OFFCURVE",
"177 228 CURVE",
"126 212 OFFCURVE",
"99 188 OFFCURVE",
"99 159 CURVE SMOOTH",
"99 137 OFFCURVE",
"110 121 OFFCURVE",
"137 109 CURVE SMOOTH",
"144 106 OFFCURVE",
"144 102 OFFCURVE",
"137 98 CURVE SMOOTH",
"74 63 OFFCURVE",
"45 21 OFFCURVE",
"45 -27 CURVE SMOOTH",
"45 -120 OFFCURVE",
"131 -175 OFFCURVE",
"285 -175 CURVE SMOOTH"
);
},
{
closed = 1;
nodes = (
"163 -137 OFFCURVE",
"87 -96 OFFCURVE",
"87 -23 CURVE SMOOTH",
"87 43 OFFCURVE",
"161 88 OFFCURVE",
"193 86 CURVE SMOOTH",
"369 75 LINE SMOOTH",
"453 70 OFFCURVE",
"482 36 OFFCURVE",
"482 -19 CURVE SMOOTH",
"482 -101 OFFCURVE",
"416 -137 OFFCURVE",
"294 -137 CURVE SMOOTH"
);
},
{
closed = 1;
nodes = (
"185 247 OFFCURVE",
"126 290 OFFCURVE",
"126 371 CURVE SMOOTH",
"126 453 OFFCURVE",
"186 500 OFFCURVE",
"290 500 CURVE SMOOTH",
"396 500 OFFCURVE",
"451 454 OFFCURVE",
"451 371 CURVE SMOOTH",
"451 289 OFFCURVE",
"398 247 OFFCURVE",
"290 247 CURVE SMOOTH"
);
}
);
width = 592;
}
);
leftKerningGroup = g;
unicode = 0067;
},
{
glyphname = gcommaaccent;
lastChange = "2017-03-13 19:23:08 +0000";
layers = (
{
anchors = (
{
name = _top;
position = "{303, 550}";
}
);
background = {
anchors = (
{
name = _top;
position = "{303, 550}";
}
);
components = (
{
name = g;
}
);
paths = (
{
closed = 1;
nodes = (
"350 599 LINE SMOOTH",
"360 599 OFFCURVE",
"368 605 OFFCURVE",
"368 619 CURVE SMOOTH",
"368 680 LINE SMOOTH",
"368 696 OFFCURVE",
"362 702 OFFCURVE",
"345 702 CURVE SMOOTH",
"336 702 LINE SMOOTH",
"322 702 OFFCURVE",
"316 717 OFFCURVE",
"327 731 CURVE SMOOTH",
"360 776 LINE SMOOTH",
"366 784 OFFCURVE",
"359 796 OFFCURVE",
"348 796 CURVE SMOOTH",
"330 796 LINE SMOOTH",
"312 796 OFFCURVE",
"305 793 OFFCURVE",
"297 782 CURVE SMOOTH",
"243 715 LINE SMOOTH",
"242 712 OFFCURVE",
"239 707 OFFCURVE",
"239 702 CURVE SMOOTH",
"239 615 LINE SMOOTH",
"239 605 OFFCURVE",
"245 599 OFFCURVE",
"256 599 CURVE SMOOTH"
);
}
);
};
components = (
{
name = g;
}
);
layerId = "258ED206-D907-4350-8EBA-CBDDA1C16BF7";
paths = (
{
closed = 1;
nodes = (
"368 599 LINE",
"368 702 LINE",
"306 702 LINE",
"375 796 LINE",
"308 796 LINE",
"239 710 LINE",
"239 599 LINE"
);
}
);
width = 659;
},
{
anchors = (
{
name = _top;
position = "{287, 550}";
}
);
background = {
anchors = (
{
name = _top;
position = "{287, 550}";
}
);
components = (
{
name = g;
transform = "{1, 0, 0, 1, 4, 0}";
}
);
paths = (
{
closed = 1;
nodes = (
"306 632 LINE SMOOTH",
"310 632 OFFCURVE",
"313 634 OFFCURVE",
"313 640 CURVE SMOOTH",
"313 706 LINE SMOOTH",
"313 713 OFFCURVE",
"311 715 OFFCURVE",
"305 715 CURVE SMOOTH",
"297 715 LINE SMOOTH",
"292 715 OFFCURVE",
"290 718 OFFCURVE",
"293 724 CURVE SMOOTH",
"318 778 LINE SMOOTH",
"320 782 OFFCURVE",
"318 786 OFFCURVE",
"314 786 CURVE SMOOTH",
"301 786 LINE SMOOTH",
"293 786 OFFCURVE",
"290 785 OFFCURVE",
"287 780 CURVE SMOOTH",
"256 721 LINE SMOOTH",
"256 720 OFFCURVE",
"255 717 OFFCURVE",
"255 715 CURVE SMOOTH",
"255 639 LINE SMOOTH",
"255 634 OFFCURVE",
"257 632 OFFCURVE",
"261 632 CURVE SMOOTH"
);
}
);
};
components = (
{
name = g;
}
);
layerId = "91AB5BCA-6A50-42DA-B2F7-8181BF189245";
paths = (
{
closed = 1;
nodes = (
"313 632 LINE",
"313 715 LINE",
"289 715 LINE",
"322 786 LINE",
"290 786 LINE",
"255 719 LINE",
"255 632 LINE"
);
}
);
width = 617;
}
);
leftKerningGroup = g;
leftMetricsKey = g;
rightMetricsKey = g;
unicode = 0123;
},
{
glyphname = h;
lastChange = "2017-03-23 04:34:25 +0000";
layers = (
{
anchors = (
{
name = bottom;
position = "{324, 0}";
},
{
name = top;
position = "{463, 530}";
}
);
background = {
anchors = (
{
name = bottom;
position = "{324, 0}";
},
{
name = top;
position = "{463, 530}";
}
);
paths = (
{
closed = 1;
nodes = (
"227 0 LINE SMOOTH",
"251 0 OFFCURVE",
"260 8 OFFCURVE",
"260 29 CURVE SMOOTH",
"260 349 LINE",
"279 383 OFFCURVE",
"303 399 OFFCURVE",
"334 399 CURVE SMOOTH",
"366 399 OFFCURVE",
"386 381 OFFCURVE",
"386 351 CURVE SMOOTH",
"386 25 LINE SMOOTH",
"386 6 OFFCURVE",
"392 0 OFFCURVE",
"409 0 CURVE SMOOTH",
"556 0 LINE SMOOTH",
"577 0 OFFCURVE",
"586 10 OFFCURVE",
"586 30 CURVE SMOOTH",
"586 375 LINE SMOOTH",
"586 481 OFFCURVE",
"529 540 OFFCURVE",
"430 540 CURVE SMOOTH",
"377 540 OFFCURVE",
"327 523 OFFCURVE",
"270 468 CURVE SMOOTH",
"262 461 OFFCURVE",
"257 464 OFFCURVE",
"257 472 CURVE SMOOTH",
"257 721 LINE SMOOTH",
"257 734 OFFCURVE",
"251 742 OFFCURVE",
"239 742 CURVE SMOOTH",
"79 742 LINE SMOOTH",
"67 742 OFFCURVE",
"60 733 OFFCURVE",
"60 719 CURVE SMOOTH",
"60 25 LINE SMOOTH",
"60 7 OFFCURVE",
"67 0 OFFCURVE",
"86 0 CURVE SMOOTH"
);
}
);
};
layerId = "258ED206-D907-4350-8EBA-CBDDA1C16BF7";
paths = (
{
closed = 1;
nodes = (
"260 0 LINE",
"260 349 LINE",
"279 383 OFFCURVE",
"303 399 OFFCURVE",
"334 399 CURVE SMOOTH",
"366 399 OFFCURVE",
"386 381 OFFCURVE",
"386 351 CURVE SMOOTH",
"386 0 LINE",
"586 0 LINE",
"586 375 LINE SMOOTH",
"586 481 OFFCURVE",
"529 540 OFFCURVE",
"430 540 CURVE SMOOTH",
"373 540 OFFCURVE",
"319 520 OFFCURVE",
"257 455 CURVE",
"257 782 LINE",
"60 782 LINE",
"60 0 LINE"
);
}
);
width = 636;
},
{
anchors = (
{
name = bottom;
position = "{317, 0}";
},
{
name = top;
position = "{339, 530}";
}
);
background = {
anchors = (
{
name = bottom;
position = "{317, 0}";
},
{
name = top;
position = "{339, 530}";
}
);
paths = (
{
closed = 1;
nodes = (
"136 0 LINE SMOOTH",
"142 0 OFFCURVE",
"145 3 OFFCURVE",
"145 9 CURVE SMOOTH",
"145 410 LINE",
"225 471 OFFCURVE",
"272 502 OFFCURVE",
"343 502 CURVE SMOOTH",
"430 502 OFFCURVE",
"466 455 OFFCURVE",
"466 377 CURVE SMOOTH",
"466 9 LINE SMOOTH",
"466 3 OFFCURVE",
"469 0 OFFCURVE",
"475 0 CURVE SMOOTH",
"497 0 LINE SMOOTH",
"503 0 OFFCURVE",
"506 3 OFFCURVE",
"506 10 CURVE SMOOTH",
"506 393 LINE SMOOTH",
"506 480 OFFCURVE",
"451 540 OFFCURVE",
"344 540 CURVE SMOOTH",
"271 540 OFFCURVE",
"226 511 OFFCURVE",
"150 457 CURVE SMOOTH",
"144 452 OFFCURVE",
"142 453 OFFCURVE",
"142 460 CURVE SMOOTH",
"142 734 LINE SMOOTH",
"142 740 OFFCURVE",
"140 742 OFFCURVE",
"134 742 CURVE SMOOTH",
"113 742 LINE SMOOTH",
"107 742 OFFCURVE",
"105 739 OFFCURVE",
"105 733 CURVE SMOOTH",
"105 9 LINE SMOOTH",
"105 3 OFFCURVE",
"108 0 OFFCURVE",
"114 0 CURVE SMOOTH"
);
}
);
};
layerId = "91AB5BCA-6A50-42DA-B2F7-8181BF189245";
paths = (
{
closed = 1;
nodes = (
"145 0 LINE",
"145 410 LINE",
"225 471 OFFCURVE",
"272 502 OFFCURVE",
"343 502 CURVE SMOOTH",
"430 502 OFFCURVE",
"466 455 OFFCURVE",
"466 377 CURVE SMOOTH",
"466 0 LINE",
"506 0 LINE",
"506 393 LINE SMOOTH",
"506 480 OFFCURVE",
"451 540 OFFCURVE",
"344 540 CURVE SMOOTH",
"268 540 OFFCURVE",
"221 509 OFFCURVE",
"142 451 CURVE",
"142 782 LINE",
"105 782 LINE",
"105 0 LINE"
);
}
);
width = 596;
}
);
unicode = 0068;
},
{
glyphname = hbar;
lastChange = "2017-03-13 19:23:04 +0000";
layers = (
{
background = {
components = (
{
name = h;
transform = "{1, 0, 0, 1, 3, 0}";
}
);
paths = (
{
closed = 1;
nodes = (
"374 680 OFFCURVE",
"368 687 OFFCURVE",
"358 687 CURVE SMOOTH",
"19 687 LINE SMOOTH",
"9 687 OFFCURVE",
"3 680 OFFCURVE",
"3 667 CURVE SMOOTH",
"3 602 LINE SMOOTH",
"3 587 OFFCURVE",
"8 580 OFFCURVE",
"25 580 CURVE SMOOTH",
"345 580 LINE SMOOTH",
"365 580 OFFCURVE",
"374 587 OFFCURVE",
"374 604 CURVE SMOOTH",
"374 669 LINE SMOOTH"
);
}
);
};
components = (
{
name = h;
transform = "{1, 0, 0, 1, 3, 0}";
}
);
layerId = "258ED206-D907-4350-8EBA-CBDDA1C16BF7";
paths = (
{
closed = 1;
nodes = (
"3 687 LINE",
"3 580 LINE",
"374 580 LINE",
"374 687 LINE"
);
}
);
width = 609;
},
{
background = {
components = (
{
name = h;
}
);
paths = (
{
closed = 1;
nodes = (
"309 660 OFFCURVE",
"307 662 OFFCURVE",
"304 662 CURVE SMOOTH",
"25 662 LINE SMOOTH",
"22 662 OFFCURVE",
"20 660 OFFCURVE",
"20 655 CURVE SMOOTH",
"20 635 LINE SMOOTH",
"20 629 OFFCURVE",
"21 627 OFFCURVE",
"27 627 CURVE SMOOTH",
"299 627 LINE SMOOTH",
"306 627 OFFCURVE",
"309 629 OFFCURVE",
"309 635 CURVE SMOOTH",
"309 656 LINE SMOOTH"
);
}
);
};
components = (
{
name = h;
transform = "{1, 0, 0, 1, -4, 0}";
}
);
layerId = "91AB5BCA-6A50-42DA-B2F7-8181BF189245";
paths = (
{
closed = 1;
nodes = (
"20 662 LINE",
"20 627 LINE",
"309 627 LINE",
"309 662 LINE"
);
}
);
width = 602;
}
);
rightMetricsKey = h;
unicode = 0127;
},
{
glyphname = i;
lastChange = "2017-03-21 14:51:19 +0000";
layers = (
{
background = {
paths = (
{
closed = 1;
nodes = (
"253 522 OFFCURVE",
"246 530 OFFCURVE",
"235 530 CURVE SMOOTH",
"72 530 LINE SMOOTH",
"60 530 OFFCURVE",
"53 522 OFFCURVE",
"53 507 CURVE SMOOTH",
"53 25 LINE SMOOTH",
"53 8 OFFCURVE",
"59 0 OFFCURVE",
"79 0 CURVE SMOOTH",
"220 0 LINE SMOOTH",
"243 0 OFFCURVE",
"253 8 OFFCURVE",
"253 29 CURVE SMOOTH",
"253 510 LINE SMOOTH"
);
},
{
closed = 1;
nodes = (
"253 734 OFFCURVE",
"246 742 OFFCURVE",
"235 742 CURVE SMOOTH",
"72 742 LINE SMOOTH",
"60 742 OFFCURVE",
"53 734 OFFCURVE",
"53 719 CURVE SMOOTH",
"53 600 LINE SMOOTH",
"53 583 OFFCURVE",
"59 574 OFFCURVE",
"79 574 CURVE SMOOTH",
"220 574 LINE SMOOTH",
"243 574 OFFCURVE",
"253 583 OFFCURVE",
"253 603 CURVE SMOOTH",
"253 721 LINE SMOOTH"
);
}
);
};
layerId = "258ED206-D907-4350-8EBA-CBDDA1C16BF7";
paths = (
{
closed = 1;
nodes = (
"53 530 LINE",
"53 0 LINE",
"253 0 LINE",
"253 530 LINE"
);
},
{
closed = 1;
nodes = (
"53 762 LINE",
"53 594 LINE",
"253 594 LINE",
"253 762 LINE"
);
}
);
width = 306;
},
{
background = {
paths = (
{
closed = 1;
nodes = (
"150 528 OFFCURVE",
"148 530 OFFCURVE",
"141 530 CURVE SMOOTH",
"119 530 LINE SMOOTH",
"112 530 OFFCURVE",
"110 528 OFFCURVE",
"110 520 CURVE SMOOTH",
"110 10 LINE SMOOTH",
"110 2 OFFCURVE",
"112 0 OFFCURVE",
"121 0 CURVE SMOOTH",
"138 0 LINE SMOOTH",
"148 0 OFFCURVE",
"150 2 OFFCURVE",
"150 12 CURVE SMOOTH",
"150 520 LINE SMOOTH"
);
},
{
closed = 1;
nodes = (
"155 737 OFFCURVE",
"150 742 OFFCURVE",
"143 742 CURVE SMOOTH",
"117 742 LINE SMOOTH",
"110 742 OFFCURVE",
"105 737 OFFCURVE",
"105 729 CURVE SMOOTH",
"105 658 LINE SMOOTH",
"105 650 OFFCURVE",
"107 644 OFFCURVE",
"116 644 CURVE SMOOTH",
"143 644 LINE SMOOTH",
"153 644 OFFCURVE",
"155 650 OFFCURVE",
"155 660 CURVE SMOOTH",
"155 729 LINE SMOOTH"
);
}
);
};
layerId = "91AB5BCA-6A50-42DA-B2F7-8181BF189245";
paths = (
{
closed = 1;
nodes = (
"110 530 LINE",
"110 0 LINE",
"150 0 LINE",
"150 530 LINE"
);
},
{
closed = 1;
nodes = (
"105 762 LINE",
"105 664 LINE",
"155 664 LINE",
"155 762 LINE"
);
}
);
width = 260;
}
);
unicode = 0069;
},
{
glyphname = idotless;
lastChange = "2017-03-13 19:22:48 +0000";
layers = (
{
anchors = (
{
name = ogonek;
position = "{212, 9}";
},
{
name = top;
position = "{144, 530}";
}
);
background = {
anchors = (
{
name = ogonek;
position = "{212, 9}";
},
{
name = top;
position = "{144, 530}";
}
);
paths = (
{
closed = 1;
nodes = (
"240 522 OFFCURVE",
"233 530 OFFCURVE",
"222 530 CURVE SMOOTH",
"59 530 LINE SMOOTH",
"47 530 OFFCURVE",
"40 522 OFFCURVE",
"40 507 CURVE SMOOTH",
"40 25 LINE SMOOTH",
"40 8 OFFCURVE",
"46 0 OFFCURVE",
"66 0 CURVE SMOOTH",
"207 0 LINE SMOOTH",
"230 0 OFFCURVE",
"240 8 OFFCURVE",
"240 29 CURVE SMOOTH",
"240 510 LINE SMOOTH"
);
}
);
};
layerId = "258ED206-D907-4350-8EBA-CBDDA1C16BF7";
paths = (
{
closed = 1;
nodes = (
"40 530 LINE",
"40 0 LINE",
"240 0 LINE",
"240 530 LINE"
);
}
);
width = 280;
},
{
anchors = (
{
name = ogonek;
position = "{142, 13}";
},
{
name = top;
position = "{130, 530}";
}
);
background = {
anchors = (
{
name = ogonek;
position = "{142, 13}";
},
{
name = top;
position = "{130, 530}";
}
);
paths = (
{
closed = 1;
nodes = (
"150 528 OFFCURVE",
"148 530 OFFCURVE",
"141 530 CURVE SMOOTH",
"119 530 LINE SMOOTH",
"112 530 OFFCURVE",
"110 528 OFFCURVE",
"110 520 CURVE SMOOTH",
"110 10 LINE SMOOTH",
"110 2 OFFCURVE",
"112 0 OFFCURVE",
"121 0 CURVE SMOOTH",
"138 0 LINE SMOOTH",
"148 0 OFFCURVE",
"150 2 OFFCURVE",
"150 12 CURVE SMOOTH",
"150 520 LINE SMOOTH"
);
}
);
};
layerId = "91AB5BCA-6A50-42DA-B2F7-8181BF189245";
paths = (
{
closed = 1;
nodes = (
"110 530 LINE",
"110 0 LINE",
"150 0 LINE",
"150 530 LINE"
);
}
);
width = 260;
}
);
leftMetricsKey = i;
rightMetricsKey = i;
unicode = 0131;
},
{
glyphname = j;
lastChange = "2017-03-16 15:58:38 +0000";
layers = (
{
background = {
paths = (
{
closed = 1;
nodes = (
"234 510 LINE SMOOTH",
"234 522 OFFCURVE",
"228 530 OFFCURVE",
"216 530 CURVE SMOOTH",
"54 530 LINE SMOOTH",
"42 530 OFFCURVE",
"34 522 OFFCURVE",
"34 507 CURVE SMOOTH",
"34 36 LINE SMOOTH",
"34 2 OFFCURVE",
"23 -6 OFFCURVE",
"10 -10 CURVE SMOOTH",
"-25 -16 LINE SMOOTH",
"-38 -19 OFFCURVE",
"-45 -32 OFFCURVE",
"-45 -43 CURVE SMOOTH",
"-44 -145 LINE SMOOTH",
"-44 -166 OFFCURVE",
"-32 -170 OFFCURVE",
"24 -170 CURVE SMOOTH",
"166 -170 OFFCURVE",
"234 -103 OFFCURVE",
"234 29 CURVE SMOOTH"
);
},
{
closed = 1;
nodes = (
"234 734 OFFCURVE",
"228 742 OFFCURVE",
"216 742 CURVE SMOOTH",
"54 742 LINE SMOOTH",
"42 742 OFFCURVE",
"34 734 OFFCURVE",
"34 719 CURVE SMOOTH",
"34 600 LINE SMOOTH",
"34 583 OFFCURVE",
"41 574 OFFCURVE",
"61 574 CURVE SMOOTH",
"202 574 LINE SMOOTH",
"202 574 OFFCURVE",
"234 583 OFFCURVE",
"234 603 CURVE SMOOTH",
"234 721 LINE SMOOTH"
);
}
);
};
layerId = "258ED206-D907-4350-8EBA-CBDDA1C16BF7";
paths = (
{
closed = 1;
nodes = (
"234 530 LINE",
"34 530 LINE",
"34 29 LINE",
"34 7 OFFCURVE",
"23 -6 OFFCURVE",
"-15 -14 CURVE",
"-45 -19 LINE",
"-44 -153 LINE",
"-44 -153 OFFCURVE",
"-29 -170 OFFCURVE",
"24 -170 CURVE",
"166 -170 OFFCURVE",
"234 -103 OFFCURVE",
"234 29 CURVE SMOOTH"
);
},
{
closed = 1;
nodes = (
"34 742 LINE",
"34 574 LINE",
"234 574 LINE",
"234 742 LINE"
);
}
);
width = 287;
},
{
background = {
paths = (
{
closed = 1;
nodes = (
"153 520 LINE SMOOTH",
"153 527 OFFCURVE",
"151 530 OFFCURVE",
"145 530 CURVE SMOOTH",
"123 530 LINE SMOOTH",
"116 530 OFFCURVE",
"113 527 OFFCURVE",
"113 520 CURVE SMOOTH",
"113 -46 LINE SMOOTH",
"113 -110 OFFCURVE",
"92 -132 OFFCURVE",
"39 -133 CURVE SMOOTH",
"-19 -134 LINE SMOOTH",
"-23 -134 OFFCURVE",
"-25 -136 OFFCURVE",
"-25 -140 CURVE SMOOTH",
"-25 -161 LINE SMOOTH",
"-25 -169 OFFCURVE",
"-19 -170 OFFCURVE",
"40 -170 CURVE SMOOTH",
"131 -170 OFFCURVE",
"153 -133 OFFCURVE",
"153 -51 CURVE SMOOTH"
);
},
{
closed = 1;
nodes = (
"158 737 OFFCURVE",
"153 742 OFFCURVE",
"146 742 CURVE SMOOTH",
"120 742 LINE SMOOTH",
"113 742 OFFCURVE",
"108 737 OFFCURVE",
"108 729 CURVE SMOOTH",
"108 658 LINE SMOOTH",
"108 650 OFFCURVE",
"110 644 OFFCURVE",
"119 644 CURVE SMOOTH",
"146 644 LINE SMOOTH",
"156 644 OFFCURVE",
"158 650 OFFCURVE",
"158 660 CURVE SMOOTH",
"158 729 LINE SMOOTH"
);
}
);
};
layerId = "91AB5BCA-6A50-42DA-B2F7-8181BF189245";
paths = (
{
closed = 1;
nodes = (
"153 530 LINE",
"113 530 LINE",
"113 -46 LINE SMOOTH",
"113 -110 OFFCURVE",
"92 -132 OFFCURVE",
"39 -133 CURVE SMOOTH",
"-25 -134 LINE",
"-25 -161 LINE SMOOTH",
"-25 -161 OFFCURVE",
"-19 -170 OFFCURVE",
"40 -170 CURVE SMOOTH",
"131 -170 OFFCURVE",
"153 -133 OFFCURVE",
"153 -51 CURVE SMOOTH"
);
},
{
closed = 1;
nodes = (
"108 742 LINE",
"108 644 LINE",
"158 644 LINE",
"158 742 LINE"
);
}
);
width = 263;
}
);
unicode = 006A;
},
{
glyphname = jdotless;
lastChange = "2016-11-02 00:47:50 +0000";
layers = (
{
anchors = (
{
name = top;
position = "{142, 530}";
}
);
background = {
anchors = (
{
name = top;
position = "{142, 530}";
}
);
paths = (
{
closed = 1;
nodes = (
"242 510 LINE SMOOTH",
"242 522 OFFCURVE",
"236 530 OFFCURVE",
"224 530 CURVE SMOOTH",
"62 530 LINE SMOOTH",
"50 530 OFFCURVE",
"42 522 OFFCURVE",
"42 507 CURVE SMOOTH",
"42 36 LINE SMOOTH",
"42 2 OFFCURVE",
"31 -6 OFFCURVE",
"18 -10 CURVE SMOOTH",
"-17 -16 LINE SMOOTH",
"-30 -19 OFFCURVE",
"-37 -32 OFFCURVE",
"-37 -43 CURVE SMOOTH",
"-36 -145 LINE SMOOTH",
"-36 -166 OFFCURVE",
"-24 -170 OFFCURVE",
"32 -170 CURVE SMOOTH",
"174 -170 OFFCURVE",
"242 -103 OFFCURVE",
"242 29 CURVE SMOOTH"
);
}
);
};
layerId = "258ED206-D907-4350-8EBA-CBDDA1C16BF7";
paths = (
{
closed = 1;
nodes = (
"242 530 LINE",
"42 530 LINE",
"42 29 LINE",
"42 7 OFFCURVE",
"31 -6 OFFCURVE",
"-7 -14 CURVE",
"-37 -19 LINE",
"-36 -153 LINE",
"-36 -153 OFFCURVE",
"-21 -170 OFFCURVE",
"32 -170 CURVE",
"174 -170 OFFCURVE",
"242 -103 OFFCURVE",
"242 29 CURVE SMOOTH"
);
}
);
width = 293;
},
{
anchors = (
{
name = top;
position = "{111, 530}";
}
);
background = {
anchors = (
{
name = top;
position = "{111, 530}";
}
);
paths = (
{
closed = 1;
nodes = (
"131 520 LINE SMOOTH",
"131 527 OFFCURVE",
"129 530 OFFCURVE",
"123 530 CURVE SMOOTH",
"101 530 LINE SMOOTH",
"94 530 OFFCURVE",
"91 527 OFFCURVE",
"91 520 CURVE SMOOTH",
"91 -46 LINE SMOOTH",
"91 -110 OFFCURVE",
"70 -132 OFFCURVE",
"17 -133 CURVE SMOOTH",
"-41 -134 LINE SMOOTH",
"-45 -134 OFFCURVE",
"-47 -136 OFFCURVE",
"-47 -140 CURVE SMOOTH",
"-47 -161 LINE SMOOTH",
"-47 -169 OFFCURVE",
"-41 -170 OFFCURVE",
"18 -170 CURVE SMOOTH",
"109 -170 OFFCURVE",
"131 -133 OFFCURVE",
"131 -51 CURVE SMOOTH"
);
}
);
};
layerId = "91AB5BCA-6A50-42DA-B2F7-8181BF189245";
paths = (
{
closed = 1;
nodes = (
"131 530 LINE",
"91 530 LINE",
"91 -46 LINE SMOOTH",
"91 -110 OFFCURVE",
"70 -132 OFFCURVE",
"17 -133 CURVE SMOOTH",
"-47 -134 LINE",
"-47 -161 LINE SMOOTH",
"-47 -169 OFFCURVE",
"-41 -170 OFFCURVE",
"18 -170 CURVE SMOOTH",
"109 -170 OFFCURVE",
"131 -133 OFFCURVE",
"131 -51 CURVE SMOOTH"
);
}
);
width = 222;
}
);
unicode = 0237;
},
{
glyphname = k;
lastChange = "2017-03-21 16:55:39 +0000";
layers = (
{
anchors = (
{
name = bottom;
position = "{320, 0}";
}
);
background = {
anchors = (
{
name = bottom;
position = "{320, 0}";
}
);
paths = (
{
closed = 1;
nodes = (
"473 337 LINE SMOOTH",
"464 355 OFFCURVE",
"466 361 OFFCURVE",
"475 372 CURVE SMOOTH",
"604 501 LINE SMOOTH",
"617 515 OFFCURVE",
"613 530 OFFCURVE",
"590 530 CURVE SMOOTH",
"453 530 LINE SMOOTH",
"443 530 OFFCURVE",
"432 523 OFFCURVE",
"422 513 CURVE SMOOTH",
"272 344 LINE SMOOTH",
"264 335 OFFCURVE",
"260 340 OFFCURVE",
"260 346 CURVE SMOOTH",
"260 721 LINE SMOOTH",
"260 734 OFFCURVE",
"254 742 OFFCURVE",
"242 742 CURVE SMOOTH",
"79 742 LINE SMOOTH",
"68 742 OFFCURVE",
"60 734 OFFCURVE",
"60 719 CURVE SMOOTH",
"60 25 LINE SMOOTH",
"60 8 OFFCURVE",
"66 0 OFFCURVE",
"87 0 CURVE SMOOTH",
"228 0 LINE SMOOTH",
"251 0 OFFCURVE",
"260 8 OFFCURVE",
"260 29 CURVE SMOOTH",
"260 130 LINE SMOOTH",
"260 146 OFFCURVE",
"263 153 OFFCURVE",
"269 158 CURVE SMOOTH",
"317 203 LINE SMOOTH",
"327 213 OFFCURVE",
"332 211 OFFCURVE",
"338 198 CURVE SMOOTH",
"410 26 LINE SMOOTH",
"417 10 OFFCURVE",
"426 0 OFFCURVE",
"443 0 CURVE SMOOTH",
"614 0 LINE SMOOTH",
"632 0 OFFCURVE",
"639 17 OFFCURVE",
"633 28 CURVE SMOOTH"
);
}
);
};
layerId = "258ED206-D907-4350-8EBA-CBDDA1C16BF7";
paths = (
{
closed = 1;
nodes = (
"462 359 LINE",
"633 530 LINE",
"437 530 LINE",
"260 330 LINE",
"260 782 LINE",
"60 782 LINE",
"60 0 LINE",
"260 0 LINE",
"260 150 LINE",
"331 216 LINE",
"421 0 LINE",
"647 0 LINE"
);
}
);
width = 652;
},
{
anchors = (
{
name = bottom;
position = "{287, 0}";
}
);
background = {
anchors = (
{
name = bottom;
position = "{287, 0}";
}
);
paths = (
{
closed = 1;
nodes = (
"320 331 LINE SMOOTH",
"317 336 OFFCURVE",
"318 339 OFFCURVE",
"321 342 CURVE SMOOTH",
"490 515 LINE SMOOTH",
"499 524 OFFCURVE",
"498 530 OFFCURVE",
"488 530 CURVE SMOOTH",
"456 530 LINE SMOOTH",
"449 530 OFFCURVE",
"446 528 OFFCURVE",
"439 520 CURVE",
"155 229 LINE SMOOTH",
"147 221 OFFCURVE",
"145 222 OFFCURVE",
"145 234 CURVE SMOOTH",
"145 732 LINE SMOOTH",
"145 740 OFFCURVE",
"143 742 OFFCURVE",
"136 742 CURVE SMOOTH",
"114 742 LINE SMOOTH",
"107 742 OFFCURVE",
"105 740 OFFCURVE",
"105 732 CURVE SMOOTH",
"105 10 LINE SMOOTH",
"105 2 OFFCURVE",
"107 0 OFFCURVE",
"116 0 CURVE SMOOTH",
"133 0 LINE SMOOTH",
"143 0 OFFCURVE",
"145 2 OFFCURVE",
"145 12 CURVE SMOOTH",
"145 152 LINE SMOOTH",
"145 159 OFFCURVE",
"147 164 OFFCURVE",
"152 169 CURVE SMOOTH",
"280 299 LINE SMOOTH",
"285 304 OFFCURVE",
"286 302 OFFCURVE",
"288 299 CURVE SMOOTH",
"470 7 LINE SMOOTH",
"473 2 OFFCURVE",
"476 0 OFFCURVE",
"482 0 CURVE SMOOTH",
"513 0 LINE SMOOTH",
"522 0 OFFCURVE",
"523 4 OFFCURVE",
"518 12 CURVE SMOOTH"
);
}
);
};
layerId = "91AB5BCA-6A50-42DA-B2F7-8181BF189245";
paths = (
{
closed = 1;
nodes = (
"316 337 LINE",
"505 530 LINE",
"449 530 LINE",
"145 219 LINE",
"145 782 LINE",
"105 782 LINE",
"105 0 LINE",
"145 0 LINE",
"145 162 LINE",
"285 304 LINE",
"474 0 LINE",
"525 0 LINE"
);
}
);
width = 565;
}
);
leftMetricsKey = h;
rightKerningGroup = k;
unicode = 006B;
},
{
glyphname = kgreenlandic;
lastChange = "2017-03-13 19:22:35 +0000";
layers = (
{
background = {
paths = (
{
closed = 1;
nodes = (
"453 337 LINE SMOOTH",
"444 355 OFFCURVE",
"446 361 OFFCURVE",
"455 372 CURVE SMOOTH",
"584 501 LINE SMOOTH",
"597 515 OFFCURVE",
"593 530 OFFCURVE",
"570 530 CURVE SMOOTH",
"433 530 LINE SMOOTH",
"423 530 OFFCURVE",
"412 523 OFFCURVE",
"402 513 CURVE SMOOTH",
"252 344 LINE SMOOTH",
"244 335 OFFCURVE",
"240 340 OFFCURVE",
"240 346 CURVE SMOOTH",
"240 509 LINE SMOOTH",
"240 522 OFFCURVE",
"234 530 OFFCURVE",
"222 530 CURVE SMOOTH",
"59 530 LINE SMOOTH",
"48 530 OFFCURVE",
"40 522 OFFCURVE",
"40 507 CURVE SMOOTH",
"40 25 LINE SMOOTH",
"40 8 OFFCURVE",
"46 0 OFFCURVE",
"67 0 CURVE SMOOTH",
"208 0 LINE SMOOTH",
"231 0 OFFCURVE",
"240 8 OFFCURVE",
"240 29 CURVE SMOOTH",
"240 130 LINE SMOOTH",
"240 146 OFFCURVE",
"243 153 OFFCURVE",
"249 158 CURVE SMOOTH",
"297 203 LINE SMOOTH",
"307 213 OFFCURVE",
"312 211 OFFCURVE",
"318 198 CURVE SMOOTH",
"390 26 LINE SMOOTH",
"397 10 OFFCURVE",
"406 0 OFFCURVE",
"423 0 CURVE SMOOTH",
"594 0 LINE SMOOTH",
"612 0 OFFCURVE",
"619 17 OFFCURVE",
"613 28 CURVE SMOOTH"
);
}
);
};
layerId = "258ED206-D907-4350-8EBA-CBDDA1C16BF7";
paths = (
{
closed = 1;
nodes = (
"442 359 LINE",
"613 530 LINE",
"417 530 LINE",
"240 330 LINE",
"240 530 LINE",
"40 530 LINE",
"40 0 LINE",
"240 0 LINE",
"240 150 LINE",
"311 216 LINE",
"401 0 LINE",
"627 0 LINE"
);
}
);
width = 632;
},
{
background = {
paths = (
{
closed = 1;
nodes = (
"315 331 LINE SMOOTH",
"312 336 OFFCURVE",
"313 339 OFFCURVE",
"316 342 CURVE SMOOTH",
"485 515 LINE SMOOTH",
"494 524 OFFCURVE",
"493 530 OFFCURVE",
"483 530 CURVE SMOOTH",
"451 530 LINE SMOOTH",
"444 530 OFFCURVE",
"441 528 OFFCURVE",
"434 520 CURVE",
"150 229 LINE SMOOTH",
"142 221 OFFCURVE",
"140 222 OFFCURVE",
"140 234 CURVE SMOOTH",
"140 520 LINE SMOOTH",
"140 528 OFFCURVE",
"138 530 OFFCURVE",
"131 530 CURVE SMOOTH",
"109 530 LINE SMOOTH",
"102 530 OFFCURVE",
"100 528 OFFCURVE",
"100 520 CURVE SMOOTH",
"100 10 LINE SMOOTH",
"100 2 OFFCURVE",
"102 0 OFFCURVE",
"111 0 CURVE SMOOTH",
"128 0 LINE SMOOTH",
"138 0 OFFCURVE",
"140 2 OFFCURVE",
"140 12 CURVE SMOOTH",
"140 152 LINE SMOOTH",
"140 159 OFFCURVE",
"142 164 OFFCURVE",
"147 169 CURVE SMOOTH",
"275 299 LINE SMOOTH",
"280 304 OFFCURVE",
"281 302 OFFCURVE",
"283 299 CURVE SMOOTH",
"465 7 LINE SMOOTH",
"468 2 OFFCURVE",
"471 0 OFFCURVE",
"477 0 CURVE SMOOTH",
"508 0 LINE SMOOTH",
"517 0 OFFCURVE",
"518 4 OFFCURVE",
"513 12 CURVE SMOOTH"
);
}
);
};
layerId = "91AB5BCA-6A50-42DA-B2F7-8181BF189245";
paths = (
{
closed = 1;
nodes = (
"311 337 LINE",
"500 530 LINE",
"444 530 LINE",
"140 219 LINE",
"140 530 LINE",
"100 530 LINE",
"100 0 LINE",
"140 0 LINE",
"140 162 LINE",
"280 304 LINE",
"469 0 LINE",
"520 0 LINE"
);
}
);
width = 580;
}
);
leftMetricsKey = k;
rightKerningGroup = k;
rightMetricsKey = k;
unicode = 0138;
},
{
glyphname = l;
lastChange = "2017-03-23 17:20:02 +0000";
layers = (
{
anchors = (
{
name = bottom;
position = "{146, 0}";
},
{
name = top;
position = "{160, 785}";
},
{
name = topright;
position = "{409, 785}";
}
);
background = {
anchors = (
{
name = bottom;
position = "{104, 0}";
},
{
name = top;
position = "{160, 742}";
},
{
name = topright;
position = "{347, 530}";
}
);
paths = (
{
closed = 1;
nodes = (
"337 129 LINE",
"337 129 OFFCURVE",
"311 131 OFFCURVE",
"302 133 CURVE SMOOTH",
"263 142 OFFCURVE",
"256 163 OFFCURVE",
"256 190 CURVE SMOOTH",
"256 742 LINE",
"59 742 LINE",
"56 173 LINE",
"56 95 OFFCURVE",
"67 -1 OFFCURVE",
"262 2 CURVE SMOOTH",
"288 3 OFFCURVE",
"304 5 OFFCURVE",
"337 9 CURVE"
);
}
);
};
layerId = "258ED206-D907-4350-8EBA-CBDDA1C16BF7";
paths = (
{
closed = 1;
nodes = (
"288 -11 OFFCURVE",
"314 -4 OFFCURVE",
"337 5 CURVE",
"337 126 LINE",
"316 128 LINE",
"262 135 OFFCURVE",
"256 161 OFFCURVE",
"256 187 CURVE SMOOTH",
"256 782 LINE",
"60 782 LINE",
"60 160 LINE",
"60 82 OFFCURVE",
"67 -11 OFFCURVE",
"262 -11 CURVE SMOOTH"
);
}
);
width = 352;
},
{
anchors = (
{
name = bottom;
position = "{122, 0}";
},
{
name = top;
position = "{122, 782}";
},
{
name = topright;
position = "{267, 742}";
}
);
background = {
anchors = (
{
name = bottom;
position = "{122, 0}";
},
{
name = top;
position = "{122, 742}";
},
{
name = topright;
position = "{267, 742}";
}
);
paths = (
{
closed = 1;
nodes = (
"252 36 LINE",
"242 36 OFFCURVE",
"229 36 OFFCURVE",
"213 36 CURVE SMOOTH",
"149 36 OFFCURVE",
"142 87 OFFCURVE",
"142 130 CURVE",
"142 742 LINE",
"102 742 LINE",
"102 130 LINE",
"102 57 OFFCURVE",
"130 2 OFFCURVE",
"201 2 CURVE SMOOTH",
"225 2 OFFCURVE",
"239 3 OFFCURVE",
"252 6 CURVE"
);
}
);
};
layerId = "91AB5BCA-6A50-42DA-B2F7-8181BF189245";
paths = (
{
closed = 1;
nodes = (
"211 1 OFFCURVE",
"225 2 OFFCURVE",
"238 5 CURVE",
"238 35 LINE",
"205 35 LINE",
"176 35 OFFCURVE",
"145 60 OFFCURVE",
"145 129 CURVE",
"145 782 LINE",
"105 782 LINE",
"105 129 LINE",
"105 56 OFFCURVE",
"133 1 OFFCURVE",
"204 1 CURVE SMOOTH"
);
}
);
width = 293;
}
);
leftMetricsKey = h;
unicode = 006C;
},
{
glyphname = lslash;
lastChange = "2016-11-02 00:47:50 +0000";
layers = (
{
background = {
components = (
{
name = l;
transform = "{1, 0, 0, 1, 40, 0}";
}
);
paths = (
{
closed = 1;
nodes = (
"344 507 OFFCURVE",
"337 511 OFFCURVE",
"320 500 CURVE SMOOTH",
"39 324 LINE SMOOTH",
"27 316 OFFCURVE",
"20 305 OFFCURVE",
"20 290 CURVE SMOOTH",
"20 170 LINE SMOOTH",
"20 153 OFFCURVE",
"26 150 OFFCURVE",
"46 163 CURVE SMOOTH",
"324 345 LINE SMOOTH",
"337 354 OFFCURVE",
"344 366 OFFCURVE",
"344 378 CURVE SMOOTH",
"344 491 LINE SMOOTH"
);
}
);
};
components = (
{
name = l;
transform = "{1, 0, 0, 1, 40, 0}";
}
);
layerId = "258ED206-D907-4350-8EBA-CBDDA1C16BF7";
paths = (
{
closed = 1;
nodes = (
"20 312 LINE",
"20 146 LINE",
"344 358 LINE",
"344 515 LINE"
);
}
);
width = 374;
},
{
background = {
components = (
{
name = l;
transform = "{1, 0, 0, 1, 10, 0}";
}
);
paths = (
{
closed = 1;
nodes = (
"240 437 OFFCURVE",
"238 439 OFFCURVE",
"233 435 CURVE SMOOTH",
"8 225 LINE SMOOTH",
"5 222 OFFCURVE",
"3 219 OFFCURVE",
"3 215 CURVE SMOOTH",
"3 186 LINE SMOOTH",
"3 181 OFFCURVE",
"5 177 OFFCURVE",
"10 181 CURVE SMOOTH",
"234 392 LINE SMOOTH",
"238 396 OFFCURVE",
"240 399 OFFCURVE",
"240 403 CURVE SMOOTH",
"240 433 LINE SMOOTH"
);
}
);
};
components = (
{
name = l;
transform = "{1, 0, 0, 1, 6, 0}";
}
);
layerId = "91AB5BCA-6A50-42DA-B2F7-8181BF189245";
paths = (
{
closed = 1;
nodes = (
"3 220 LINE",
"3 174 LINE",
"240 398 LINE",
"240 442 LINE"
);
}
);
width = 226;
}
);
unicode = 0142;
},
{
glyphname = m;
lastChange = "2017-03-21 17:24:15 +0000";
layers = (
{
background = {
guideLines = (
{
angle = 90;
position = "{338, 331}";
showMeasurement = 1;
}
);
paths = (
{
closed = 1;
nodes = (
"222 0 LINE SMOOTH",
"246 0 OFFCURVE",
"255 8 OFFCURVE",
"255 29 CURVE SMOOTH",
"255 349 LINE",
"274 383 OFFCURVE",
"299 399 OFFCURVE",
"329 399 CURVE SMOOTH",
"361 399 OFFCURVE",
"381 381 OFFCURVE",
"381 351 CURVE SMOOTH",
"381 25 LINE SMOOTH",
"381 6 OFFCURVE",
"388 0 OFFCURVE",
"404 0 CURVE SMOOTH",
"550 0 LINE SMOOTH",
"571 0 OFFCURVE",
"580 10 OFFCURVE",
"580 30 CURVE SMOOTH",
"580 333 LINE SMOOTH",
"580 342 OFFCURVE",
"581 350 OFFCURVE",
"588 360 CURVE SMOOTH",
"603 381 OFFCURVE",
"629 399 OFFCURVE",
"654 399 CURVE SMOOTH",
"685 399 OFFCURVE",
"706 381 OFFCURVE",
"706 351 CURVE SMOOTH",
"706 25 LINE SMOOTH",
"706 6 OFFCURVE",
"712 0 OFFCURVE",
"729 0 CURVE SMOOTH",
"875 0 LINE SMOOTH",
"896 0 OFFCURVE",
"906 10 OFFCURVE",
"906 30 CURVE SMOOTH",
"906 373 LINE SMOOTH",
"906 480 OFFCURVE",
"842 540 OFFCURVE",
"752 540 CURVE SMOOTH",
"692 540 OFFCURVE",
"616 497 OFFCURVE",
"579 446 CURVE SMOOTH",
"574 440 OFFCURVE",
"569 440 OFFCURVE",
"567 445 CURVE SMOOTH",
"544 507 OFFCURVE",
"492 541 OFFCURVE",
"425 541 CURVE SMOOTH",
"364 541 OFFCURVE",
"308 507 OFFCURVE",
"265 461 CURVE SMOOTH",
"257 453 OFFCURVE",
"252 457 OFFCURVE",
"252 465 CURVE SMOOTH",
"252 510 LINE SMOOTH",
"252 522 OFFCURVE",
"246 530 OFFCURVE",
"234 530 CURVE SMOOTH",
"74 530 LINE SMOOTH",
"63 530 OFFCURVE",
"55 521 OFFCURVE",
"55 507 CURVE SMOOTH",
"55 25 LINE SMOOTH",
"55 7 OFFCURVE",
"62 0 OFFCURVE",
"81 0 CURVE SMOOTH"
);
}
);
};
guideLines = (
{
angle = 90;
position = "{338, 331}";
showMeasurement = 1;
}
);
layerId = "258ED206-D907-4350-8EBA-CBDDA1C16BF7";
paths = (
{
closed = 1;
nodes = (
"255 0 LINE",
"255 350 LINE",
"255 380 OFFCURVE",
"288 399 OFFCURVE",
"318 399 CURVE SMOOTH",
"348 399 OFFCURVE",
"381 380 OFFCURVE",
"381 350 CURVE SMOOTH",
"381 0 LINE",
"580 0 LINE",
"580 318 LINE SMOOTH",
"580 327 OFFCURVE",
"580 336 OFFCURVE",
"580 350 CURVE SMOOTH",
"580 380 OFFCURVE",
"614 399 OFFCURVE",
"644 399 CURVE SMOOTH",
"674 399 OFFCURVE",
"706 380 OFFCURVE",
"706 350 CURVE SMOOTH",
"706 0 LINE",
"906 0 LINE",
"906 373 LINE SMOOTH",
"906 480 OFFCURVE",
"842 540 OFFCURVE",
"752 540 CURVE SMOOTH",
"694 540 OFFCURVE",
"619 501 OFFCURVE",
"571 438 CURVE",
"545 503 OFFCURVE",
"498 541 OFFCURVE",
"425 541 CURVE SMOOTH",
"359 541 OFFCURVE",
"298 501 OFFCURVE",
"252 447 CURVE",
"252 530 LINE",
"55 530 LINE",
"55 0 LINE"
);
}
);
width = 956;
},
{
background = {
guideLines = (
{
position = "{285, 454}";
}
);
paths = (
{
closed = 1;
nodes = (
"136 0 LINE SMOOTH",
"142 0 OFFCURVE",
"145 3 OFFCURVE",
"145 9 CURVE SMOOTH",
"145 410 LINE",
"221 471 OFFCURVE",
"266 502 OFFCURVE",
"333 502 CURVE SMOOTH",
"413 502 OFFCURVE",
"446 455 OFFCURVE",
"446 377 CURVE SMOOTH",
"446 9 LINE SMOOTH",
"446 3 OFFCURVE",
"450 0 OFFCURVE",
"455 0 CURVE SMOOTH",
"477 0 LINE SMOOTH",
"482 0 OFFCURVE",
"486 3 OFFCURVE",
"486 10 CURVE SMOOTH",
"486 393 LINE SMOOTH",
"486 407 OFFCURVE",
"491 413 OFFCURVE",
"503 423 CURVE SMOOTH",
"542 455 OFFCURVE",
"601 502 OFFCURVE",
"674 502 CURVE SMOOTH",
"754 502 OFFCURVE",
"787 455 OFFCURVE",
"787 377 CURVE SMOOTH",
"787 9 LINE SMOOTH",
"787 3 OFFCURVE",
"790 0 OFFCURVE",
"796 0 CURVE SMOOTH",
"818 0 LINE SMOOTH",
"824 0 OFFCURVE",
"827 3 OFFCURVE",
"827 10 CURVE SMOOTH",
"827 393 LINE SMOOTH",
"827 480 OFFCURVE",
"775 540 OFFCURVE",
"675 540 CURVE SMOOTH",
"606 540 OFFCURVE",
"563 511 OFFCURVE",
"491 457 CURVE SMOOTH",
"485 452 OFFCURVE",
"478 448 OFFCURVE",
"476 454 CURVE SMOOTH",
"463 494 OFFCURVE",
"418 540 OFFCURVE",
"334 540 CURVE SMOOTH",
"265 540 OFFCURVE",
"222 511 OFFCURVE",
"150 457 CURVE SMOOTH",
"144 452 OFFCURVE",
"142 453 OFFCURVE",
"142 460 CURVE SMOOTH",
"142 522 LINE SMOOTH",
"142 528 OFFCURVE",
"140 530 OFFCURVE",
"134 530 CURVE SMOOTH",
"113 530 LINE SMOOTH",
"107 530 OFFCURVE",
"105 527 OFFCURVE",
"105 521 CURVE SMOOTH",
"105 9 LINE SMOOTH",
"105 3 OFFCURVE",
"108 0 OFFCURVE",
"114 0 CURVE SMOOTH"
);
}
);
};
guideLines = (
{
position = "{393, 454}";
}
);
layerId = "91AB5BCA-6A50-42DA-B2F7-8181BF189245";
paths = (
{
closed = 1;
nodes = (
"145 0 LINE",
"145 410 LINE",
"221 471 OFFCURVE",
"266 502 OFFCURVE",
"333 502 CURVE SMOOTH",
"413 502 OFFCURVE",
"446 455 OFFCURVE",
"446 377 CURVE SMOOTH",
"446 0 LINE",
"486 0 LINE",
"486 393 LINE SMOOTH",
"486 407 OFFCURVE",
"491 413 OFFCURVE",
"503 423 CURVE SMOOTH",
"542 455 OFFCURVE",
"601 502 OFFCURVE",
"674 502 CURVE SMOOTH",
"754 502 OFFCURVE",
"787 455 OFFCURVE",
"787 377 CURVE SMOOTH",
"787 0 LINE",
"827 0 LINE",
"827 393 LINE SMOOTH",
"827 480 OFFCURVE",
"775 540 OFFCURVE",
"675 540 CURVE SMOOTH",
"613 540 OFFCURVE",
"578 522 OFFCURVE",
"478 448 CURVE",
"460 504 OFFCURVE",
"409 540 OFFCURVE",
"334 540 CURVE SMOOTH",
"262 540 OFFCURVE",
"217 509 OFFCURVE",
"142 451 CURVE",
"142 530 LINE",
"105 530 LINE",
"105 0 LINE"
);
}
);
width = 922;
}
);
leftKerningGroup = n;
leftMetricsKey = n;
rightMetricsKey = n;
unicode = 006D;
},
